{
.appVersion = "3436";
.formatVersion = 3;
customParameters = (
{
name = "meta Table";
value = (
{
data = Latn;
tag = dlng;
},
{
data = Latn;
tag = slng;
}
);
},
{
name = vendorID;
value = NONE;
},
{
name = panose;
value = (
0,
0,
0,
0,
0,
0,
0,
0,
0,
0
);
},
{
name = unicodeRanges;
value = (
0,
1,
2,
3,
5,
6,
29,
31,
33,
35,
38
);
},
{
name = fsType;
value = (
);
},
{
name = glyphOrder;
value = (
.notdef,
space,
uni0024,
uni0025,
uni0026,
uni002B,
uni003C,
uni003D,
uni003E,
uni0040,
uni005E,
uni007C,
uni007E,
uni00A2,
uni00A3,
uni00A5,
uni00A7,
uni00A9,
uni00AE,
uni00B0,
uni00B6,
uni00D7,
uni00F7,
Euro,
uni2122,
uni2212,
uni25CC,
uni0021,
uni0022,
uni0023,
uni0027,
uni0028,
uni0029,
uni002A,
uni002C,
uni002D,
uni002E,
uni002F,
uni003A,
uni003B,
uni003F,
uni005B,
uni005C,
uni005D,
uni005F,
uni007B,
uni007D,
uni00A1,
guillemotleft,
uni00B7,
guillemotright,
uni00BF,
uni2013,
uni2014,
uni2018,
uni2019,
uni201A,
uni201C,
uni201D,
uni201E,
uni2022,
uni2026,
uni2039,
uni203A,
uni0030,
uni0031,
uni0032,
uni0033,
uni0034,
uni0035,
uni0036,
uni0037,
uni0038,
uni0039,
uni0060,
uni00A8,
uni00AF,
uni00B4,
uni00B8,
uni02C6,
uni02C7,
uni02D9,
uni02DA,
uni02DB,
uni02DC,
uni02DD,
uni0300,
uni0301,
uni0302,
uni0303,
uni0304,
uni0307,
uni0308,
uni030A,
uni030B,
uni030C,
uni0326,
uni0327,
uni0328,
uni0041,
uni0042,
uni0043,
uni0044,
uni0045,
uni0046,
uni0047,
uni0048,
uni0049,
uni004A,
uni004B,
uni004C,
uni004D,
uni004E,
uni004F,
uni0050,
uni0051,
uni0052,
uni0053,
uni0054,
uni0055,
uni0056,
uni0057,
uni0058,
uni0059,
uni005A,
uni0061,
uni0062,
uni0063,
uni0064,
uni0065,
uni0066,
uni0067,
uni0068,
uni0069,
uni006A,
uni006B,
uni006C,
uni006D,
uni006E,
uni006F,
uni0070,
uni0071,
uni0072,
uni0073,
uni0074,
uni0075,
uni0076,
uni0077,
uni0078,
uni0079,
uni007A,
uni00AA,
uni00BA,
uni00C0,
uni00C1,
uni00C2,
uni00C3,
uni00C4,
uni00C5,
uni00C6,
uni00C7,
uni00C8,
uni00C9,
uni00CA,
uni00CB,
uni00CC,
uni00CD,
uni00CE,
uni00CF,
uni00D0,
uni00D1,
uni00D2,
uni00D3,
uni00D4,
uni00D5,
uni00D6,

glyphs = (
{
glyphname = .notdef;
layers = (
{
layerId = m01;
shapes = (
{
closed = 1;
nodes = (
(450,700,l),
(50,700,l),
(50,0,l),
(450,0,l)
);
}
);
width = 500;
}
);
note = .notdef;
},
{
glyphname = uni0024;
layers = (
{
layerId = m01;
shapes = (
{
closed = 1;
nodes = (
(182,40,l),
(226,76,o),
(260,113,o),
(269,136,o),
(266,180,o),
(259,210,o),
(239,245,o),
(144,359,o),
(125,395,o),
(125,416,o),
(139,445,o),
(159,448,o),
(169,426,o),
(175,367,o),
(178,361,o),
(213,350,o),
(231,350,o),
(247,370,o),
(264,415,o),
(268,438,o),
(254,460,o),
(215,493,o),
(178,521,q),
(178,597,l),
(122,597,o),
(118,591,o),
(114,517,q),
(87,500,o),
(48,468,o),
(30,427,o),
(40,362,o),
(73,306,o),
(142,232,o),
(169,189,o),
(175,160,o),
(175,110,o),
(151,110,qs),
(139,110,o),
(131,138,o),
(131,172,o),
(127,201,o),
(108,220,o),
(69,220,o),
(56,210,o),
(33,166,o),
(23,132,o),
(47,97,o),
(115,40,o),
(117,32,q),
(125,-34,l),
(177,-32,l)
);
}
);
width = 289;
}
);
note = uni0024;
unicode = 36;
},
{
glyphname = uni0025;
layers = (
{
layerId = m01;
shapes = (
{
closed = 1;
nodes = (
(127,-16,o),
(133,4,q),
(133,6,o),
(157,71,o),
(196,176,o),
(242,299,o),
(287,422,o),
(345,590,q),
(323,594,o),
(303,591,q),
(77,-17,l),
(84,-19,ls),
(114,-24,o)
);
},
{
closed = 1;
nodes = (
(366,-24,o),
(393,0,o),
(395,13,qs),
(396,23,o),
(398,122,qs),
(398,190,ls),
(398,211,o),
(395,235,o),
(370,261,o),
(341,276,o),
(324,276,o),
(288,259,o),
(259,232,o),
(256,213,o),
(255,184,o),
(257,20,o),
(261,7,o),
(292,-27,o),
(331,-37,o)
);
},
{
closed = 1;
nodes = (
(319,15,o),
(317,18,o),
(316,20,o),
(315,54,o),
(314,100,o),
(314,190,o),
(316,222,o),
(323,225,o),
(337,217,o),
(338,175,o),
(338,100,o),
(336,18,o),
(329,11,o)
);
},
{
closed = 1;
nodes = (
(127,297,o),
(146,305,o),
(162,330,o),
(166,388,o),
(166,497,o),
(164,543,o),
(156,561,o),
(125,595,o),
(83,599,o),
(48,579,o),
(27,552,o),
(24,530,o),
(25,351,o),
(28,326,o),
(65,288,o),
(108,288,o)
);
},
{
closed = 1;
nodes = (
(85,365,o),
(84,451,o),
(84,538,q),
(86,542,o),
(107,542,q),
(103,338,l),
(89,335,o),
(86,337,o)
);
}
);
width = 423;
}
);
note = uni0025;
unicode = 37;
},
{
glyphname = uni0026;
layers = (
{
layerId = m01;
shapes = (
{
closed = 1;
nodes = (
(418,-12,o),
(432,-8,q),
(435,-5,o),
(406,34,o),
(376,88,qs),
(357,120,o),
(340,152,o),
(335,176,q),
(338,216,o),
(342,252,o),
(346,258,o),
(403,285,q),
(451,301,o),
(455,307,o),
(443,366,o),
(436,374,o),
(406,372,o),
(392,361,o),
(285,308,o),
(286,262,o),
(285,220,q),
(271,234,o),
(159,406,o),
(152,427,o),
(140,484,o),
(158,519,o),
(189,524,o),
(216,512,o),
(216,507,q),
(203,462,o),
(211,435,o),
(233,402,o),
(266,396,o),
(297,416,o),
(321,448,o),
(335,478,o),
(335,496,o),
(308,538,o),
(260,580,o),
(195,602,o),
(157,594,q),
(113,575,o),
(71,540,o),
(45,485,o),
(54,406,o),
(130,289,o),
(127,285,q),
(72,240,o),
(37,190,o),
(27,109,o),
(46,67,o),
(87,24,o),
(141,-9,o),
(204,-11,o),
(254,8,o),
(286,28,o),
(291,28,q),
(327,-34,l),
(373,-23,o)
);
},
{
closed = 1;
nodes = (
(161,77,o),
(140,111,o),
(135,155,o),
(143,197,o),
(159,224,o),
(170,227,o),
(177,216,qs),
(251,93,o),
(251,87,o),
(203,67,o)
);
}
);
width = 471;
}
);
note = uni0026;
unicode = 38;
},
{
glyphname = uni002B;
layers = (
{
layerId = m01;
shapes = (
{
closed = 1;
nodes = (
(254,180,l),
(372,180,o),
(404,183,o),
(413,196,o),
(413,249,q),
(319,247,o),
(298,247,o),
(254,250,q),
(252,415,l),
(182,416,l),
(182,252,l),
(26,249,l),
(24,180,l),
(102,180,ls),
(180,178,o),
(181,173,o),
(182,15,q),
(252,15,l)
);
}
);
width = 438;
}
);
note = uni002B;
unicode = 43;
},
{
glyphname = uni003C;
layers = (
{
layerId = m01;
shapes = (
{
closed = 1;
nodes = (
(261,38,o),
(271,60,o),
(266,68,o),
(229,101,o),
(175,144,o),
(123,186,o),
(87,216,o),
(87,220,o),
(120,246,o),
(170,285,o),
(223,326,o),
(266,358,o),
(274,365,q),
(261,394,o),
(257,409,o),
(252,417,o),
(247,416,o),
(59,263,o),
(33,237,o),
(24,224,q),
(38,195,o),
(84,149,o),
(240,19,o),
(243,13,o),
(249,19,o)
);
}
);
width = 299;
}
);
note = uni003C;
unicode = 60;
},
{
glyphname = uni003D;
layers = (
{
layerId = m01;
shapes = (
{
closed = 1;
nodes = (
(432,95,o),
(435,125,o),
(432,127,o),
(391,129,o),
(31,133,q),
(27,103,o),
(24,71,o),
(27,15,q),
(419,15,l),
(426,55,o)
);
},
{
closed = 1;
nodes = (
(434,394,o),
(434,409,o),
(432,411,o),
(391,413,o),
(31,417,q),
(27,387,o),
(24,355,o),
(27,299,q),
(419,299,l),
(428,347,o)
);
}
);
width = 458;
}
);
note = uni003D;
unicode = 61;
},
{
glyphname = uni003E;
layers = (
{
layerId = m01;
shapes = (
{
closed = 1;
nodes = (
(85,40,o),
(119,69,o),
(146,92,o),
(147,92,q),
(187,127,o),
(234,169,o),
(258,195,o),
(269,213,o),
(274,224,q),
(268,233,ls),
(265,238,o),
(229,270,o),
(175,315,o),
(113,366,o),
(62,408,o),
(41,420,o),
(41,405,q),
(24,365,l),
(112,297,o),
(211,220,o),
(211,217,q),
(32,68,o),
(28,60,o),
(39,33,o),
(54,12,o),
(58,18,q),
(58,18,o)
);
}
);
width = 298;
}
);
note = uni003E;
unicode = 62;
},
{
glyphname = uni0040;
layers = (
{
layerId = m01;
shapes = (
{
closed = 1;
nodes = (
(254,-10,o),
(287,11,qs),
(331,38,o),
(376,68,o),
(395,85,o),
(398,97,o),
(399,138,o),
(400,194,o),
(400,248,o),
(400,467,q),
(391,477,o),
(347,509,o),
(293,545,o),
(208,597,q),
(164,569,o),
(41,484,o),
(24,468,q),
(24,283,ls),
(26,96,o),
(31,82,o),
(47,70,q),
(209,-34,l),
(214,-34,o)
);
},
{
closed = 1;
nodes = (
(170,42,o),
(127,71,o),
(94,94,o),
(81,105,o),
(70,119,o),
(67,148,o),
(67,180,qs),
(67,283,ls),
(67,326,o),
(69,445,o),
(70,450,o),
(98,471,o),
(138,498,o),
(206,540,q),
(257,513,o),
(325,468,o),
(355,440,q),
(358,127,l),
(356,112,o),
(345,101,o),
(215,20,o),
(207,20,o)
);
},
{
closed = 1;
nodes = (
(211,136,o),
(215,149,qs),
(223,171,o),
(235,150,qs),
(242,139,o),
(252,128,qs),
(267,113,o),
(307,119,o),
(337,143,o),
(337,161,o),
(323,173,qs),
(306,187,o),
(298,230,o),
(298,323,o),
(302,363,o),
(307,379,o),
(307,390,q),
(303,401,l),
(277,425,o),
(242,455,o),
(209,478,o),
(195,477,o),
(165,457,o),
(132,428,o),
(108,402,o),
(108,393,o),
(124,356,o),
(141,333,o),
(156,328,o),
(177,328,o),
(187,339,o),
(188,356,qs),
(188,393,o),
(197,401,o),
(223,391,q),
(221,316,l),
(201,309,o),
(136,285,o),
(124,265,o),
(118,236,o),
(114,177,o),
(119,169,qs),
(141,140,o),
(170,115,o),
(191,115,o)
);
},
{
closed = 1;
nodes = (
(190,193,o),
(188,230,o),
(193,265,o),
(200,279,o),
(225,289,o),
(226,274,qs),
(227,250,ls),
(227,219,o),
(222,193,o),
(202,175,o)
);
}
);
width = 425;
}
);
note = uni0040;
unicode = 64;
},
{
glyphname = uni005E;
layers = (
{
layerId = m01;
shapes = (
{
closed = 1;
nodes = (
(451,261,o),
(478,308,o),
(502,355,o),
(518,387,o),
(518,389,o),
(499,405,o),
(474,424,o),
(454,438,o),
(412,471,o),
(378,501,o),
(359,527,o),
(319,563,o),
(281,588,o),
(261,588,o),
(243,580,o),
(202,545,o),
(76,430,o),
(37,401,o),
(24,383,o),
(27,377,qs),
(50,326,o),
(91,260,o),
(117,234,q),
(149,257,o),
(184,295,o),
(224,344,o),
(252,372,o),
(275,369,o),
(304,343,o),
(419,229,o),
(428,229,o)
);
}
);
width = 541;
}
);
note = uni005E;
unicode = 94;
},
{
glyphname = uni007C;
layers = (
{
layerId = m01;
shapes = (
{
closed = 1;
nodes = (
(62,529,ls),
(63,568,o),
(62,593,o),
(57,597,o),
(27,597,o),
(25,595,o),
(25,562,o),
(24,113,qs),
(25,-30,o),
(32,-34,o),
(62,-34,q)
);
}
);
width = 87;
}
);
note = uni007C;
unicode = 124;
},
{
glyphname = uni007E;
layers = (
{
layerId = m01;
shapes = (
{
closed = 1;
nodes = (
(148,37,qs),
(154,41,o),
(168,70,o),
(179,104,o),
(181,116,qs),
(186,149,o),
(210,164,o),
(261,146,o),
(364,73,o),
(416,47,o),
(476,47,o),
(544,89,o),
(602,158,o),
(643,239,o),
(659,316,o),
(642,376,o),
(595,398,o),
(567,399,o),
(551,391,qs),
(539,384,o),
(491,302,o),
(469,271,o),
(454,271,o),
(303,342,o),
(228,368,o),
(168,354,o),
(80,282,o),
(31,197,o),
(24,123,o),
(49,66,o),
(95,33,o),
(122,33,qs),
(141,33,o)
);
}
);
width = 674;
}
);
note = uni007E;
unicode = 126;
},
{
glyphname = uni00A2;
layers = (
{
layerId = m01;
shapes = (
{
closed = 1;
nodes = (
(191,-33,q),
(196,-29,o),
(200,-4,o),
(201,36,o),
(206,49,o),
(228,70,o),
(249,88,qs),
(307,136,o),
(307,153,qs),
(307,157,o),
(293,188,o),
(272,227,o),
(251,258,o),
(235,264,o),
(197,250,o),
(190,234,q),
(188,224,o),
(190,154,o),
(183,139,o),
(154,146,o),
(147,149,o),
(143,161,o),
(141,209,o),
(140,317,o),
(139,415,q),
(160,424,o),
(183,418,o),
(190,402,o),
(190,351,o),
(204,329,o),
(225,324,o),
(251,324,o),
(270,340,o),
(289,369,o),
(303,396,o),
(308,413,o),
(277,448,o),
(256,469,q),
(202,515,l),
(200,596,l),
(155,598,o),
(140,595,o),
(135,575,o),
(131,526,o),
(127,512,o),
(81,475,o),
(24,413,o),
(24,406,q),
(28,382,o),
(33,356,o),
(28,166,o),
(36,141,o),
(99,78,o),
(134,48,q),
(138,-31,l),
(174,-34,o),
(188,-34,o)
);
}
);
width = 332;
}
);
note = uni00A2;
unicode = 162;
},
{
glyphname = uni00A3;
layers = (
{
layerId = m01;
shapes = (
{
closed = 1;
nodes = (
(110,-6,o),
(129,22,o),
(136,22,qs),
(139,22,o),
(185,5,o),
(235,-17,o),
(274,-25,o),
(285,-22,qs),
(304,-17,o),
(338,21,o),
(360,60,o),
(366,83,o),
(359,125,o),
(339,163,o),
(307,187,o),
(287,183,qs),
(268,180,o),
(260,155,o),
(256,93,o),
(248,72,o),
(238,72,qs),
(231,72,o),
(158,95,o),
(156,103,o),
(187,135,o),
(204,171,o),
(211,228,o),
(215,277,q),
(266,277,o),
(280,279,o),
(284,298,o),
(282,317,o),
(279,321,o),
(220,326,o),
(206,332,o),
(174,406,o),
(163,480,o),
(166,490,qs),
(170,507,o),
(202,519,o),
(223,502,o),
(224,485,o),
(208,448,o),
(219,411,o),
(244,382,o),
(268,367,o),
(275,369,o),
(333,474,o),
(338,489,o),
(319,525,o),
(285,558,o),
(253,582,o),
(230,595,o),
(182,599,o),
(167,593,q),
(128,570,o),
(94,538,o),
(70,493,o),
(71,433,o),
(90,375,o),
(108,335,o),
(108,330,qs),
(108,327,o),
(53,325,q),
(53,278,l),
(117,277,o),
(125,267,o),
(127,241,o),
(125,171,o),
(102,128,o),
(41,87,o),
(26,56,o),
(33,22,o),
(51,-12,o),
(72,-34,o),
(90,-34,o)
);
}
);
width = 385;
}
);
note = uni00A3;
unicode = 163;
},
{
glyphname = uni00A5;
layers = (
{
layerId = m01;
shapes = (
{
closed = 1;
nodes = (
(225,15,o),
(233,51,o),
(218,86,o),
(218,90,o),
(311,91,q),
(307,136,l),
(237,136,o),
(213,138,o),
(208,149,o),
(208,181,q),
(307,183,l),
(308,234,l),
(280,232,o),
(215,230,o),
(207,233,o),
(210,252,o),
(229,308,o),
(249,351,o),
(312,457,q),
(324,481,l),
(314,520,o),
(297,564,o),
(275,597,o),
(258,597,o),
(227,577,o),
(195,540,o),
(188,514,qs),
(185,498,o),
(202,443,o),
(202,399,o),
(185,318,q),
(181,315,o),
(177,323,qs),
(166,351,o),
(154,392,o),
(149,437,o),
(161,469,o),
(164,502,o),
(162,508,q),
(145,544,o),
(125,575,o),
(103,597,o),
(78,597,o),
(53,569,o),
(34,532,o),
(24,500,o),
(24,487,o),
(94,361,o),
(130,286,o),
(144,233,o),
(131,230,o),
(37,228,q),
(36,183,l),
(138,181,l),
(136,138,l),
(34,136,l),
(34,91,l),
(99,91,o),
(130,87,q),
(113,38,o),
(134,-9,o),
(168,-35,o),
(178,-34,q),
(204,-15,o)
);
}
);
width = 349;
}
);
note = uni00A5;
unicode = 165;
},
{
glyphname = uni00A7;
layers = (
{
layerId = m01;
shapes = (
{
closed = 1;
nodes = (
(163,-30,o),
(200,-1,o),
(223,32,o),
(234,77,o),
(218,130,o),
(181,175,o),
(158,198,q),
(180,212,o),
(210,259,o),
(226,306,o),
(226,340,o),
(190,389,o),
(142,438,o),
(106,485,o),
(106,513,o),
(120,529,o),
(137,531,o),
(151,508,o),
(151,466,o),
(158,449,o),
(191,449,o),
(212,460,o),
(226,490,o),
(233,519,o),
(231,538,o),
(200,566,o),
(137,601,o),
(92,590,o),
(37,540,o),
(28,509,o),
(28,473,o),
(33,454,o),
(54,422,o),
(98,369,q),
(75,360,o),
(46,339,o),
(25,297,o),
(28,244,o),
(42,215,o),
(56,196,q),
(113,131,o),
(151,85,o),
(156,50,o),
(140,33,o),
(121,33,o),
(108,46,o),
(106,56,o),
(106,110,o),
(95,125,o),
(74,126,o),
(55,123,o),
(41,117,o),
(27,82,o),
(24,44,o),
(25,28,o),
(50,3,o),
(87,-24,q),
(115,-39,o)
);
},
{
closed = 1;
nodes = (
(124,235,o),
(107,263,o),
(107,293,o),
(112,320,o),
(118,339,o),
(120,338,q),
(141,312,o),
(159,275,o),
(162,236,o),
(145,219,o),
(142,220,o)
);
}
);
width = 257;
}
);
note = uni00A7;
unicode = 167;
},
{
glyphname = uni00A9;
layers = (
{
layerId = m01;
shapes = (
{
closed = 1;
nodes = (
(432,90,o),
(433,91,qs),
(435,94,o),
(437,107,o),
(439,145,o),
(441,222,o),
(445,454,q),
(416,482,o),
(368,516,o),
(314,550,o),
(266,579,o),
(234,597,o),
(231,597,o),
(142,542,o),
(28,463,q),
(28,96,l),
(46,84,o),
(190,-12,o),
(232,-34,q),
(324,16,o)
);
},
{
closed = 1;
nodes = (
(197,38,o),
(154,65,o),
(109,95,o),
(74,121,o),
(67,128,q),
(69,280,l),
(69,280,o),
(69,312,o),
(71,404,o),
(72,435,o),
(73,437,o),
(104,460,o),
(197,522,o),
(230,543,o),
(238,543,o),
(273,523,o),
(319,494,o),
(363,462,o),
(394,438,o),
(399,432,o),
(402,345,o),
(402,206,o),
(398,124,q),
(358,95,o),
(230,21,o),
(227,20,o)
);
},
{
closed = 1;
nodes = (
(287,114,o),
(323,143,o),
(348,165,o),
(348,167,q),
(343,184,l),
(327,224,o),
(311,256,o),
(300,263,o),
(279,263,o),
(269,257,o),
(267,221,o),
(266,181,o),
(263,170,qs),
(258,155,o),
(220,150,o),
(213,162,q),
(208,168,o),
(204,224,o),
(203,295,o),
(203,324,qs),
(203,382,o),
(211,402,o),
(241,417,o),
(256,406,qs),
(263,402,o),
(271,376,o),
(278,328,o),
(285,317,o),
(308,317,o),
(319,323,o),
(337,356,o),
(351,390,o),
(350,400,o),
(320,429,o),
(279,464,o),
(243,489,o),
(236,489,q),
(209,474,o),
(167,438,o),
(134,404,o),
(132,385,o),
(144,351,o),
(148,284,o),
(144,216,o),
(133,179,o),
(143,158,o),
(198,102,o),
(230,87,o),
(252,92,o)
);
}
);
width = 470;
}
);
note = uni00A9;
unicode = 169;
},
{
glyphname = uni00AE;
layers = (
{
layerId = m01;
shapes = (
{
closed = 1;
nodes = (
(286,-11,o),
(346,27,o),
(404,65,o),
(442,93,o),
(445,98,o),
(447,140,o),
(448,200,o),
(448,358,o),
(447,436,o),
(445,463,o),
(444,464,q),
(441,471,o),
(396,502,o),
(335,540,o),
(234,597,o),
(232,597,o),
(139,541,o),
(80,503,o),
(24,461,q),
(24,280,ls),
(24,154,o),
(28,94,q),
(71,63,o),
(229,-34,o),
(241,-35,o)
);
},
{
closed = 1;
nodes = (
(224,24,o),
(192,43,o),
(155,66,qs),
(119,87,o),
(77,115,o),
(73,122,o),
(71,154,o),
(71,199,o),
(70,244,o),
(70,392,o),
(72,431,o),
(78,444,o),
(90,453,o),
(132,481,o),
(185,515,o),
(229,539,o),
(240,539,o),
(321,493,o),
(398,443,o),
(404,437,o),
(406,412,o),
(407,124,q),
(391,110,o),
(338,74,o),
(239,20,o),
(232,20,o)
);
},
{
closed = 1;
nodes = (
(209,130,o),
(209,145,q),
(210,152,o),
(207,220,o),
(204,273,q),
(222,273,ls),
(260,273,o),
(265,252,qs),
(267,243,o),
(267,189,o),
(267,126,o),
(290,113,o),
(299,111,o),
(327,123,o),
(350,141,o),
(350,156,o),
(324,219,o),
(315,271,o),
(289,288,o),
(291,298,o),
(322,317,o),
(340,354,o),
(345,389,o),
(342,401,o),
(312,430,o),
(272,460,o),
(235,481,q),
(123,414,l),
(137,391,o),
(153,356,o),
(155,320,o),
(153,204,o),
(142,181,o),
(131,169,o),
(127,152,o),
(152,126,o),
(182,105,o),
(195,105,o)
);
},
{
closed = 1;
nodes = (
(246,300,o),
(227,302,o),
(207,305,q),
(208,353,ls),
(210,402,o),
(213,406,o),
(257,404,o),
(269,381,o),
(270,304,q),
(259,301,o)
);
}
);
width = 472;
}
);
note = uni00AE;
unicode = 174;
},
{
glyphname = uni00B0;
layers = (
{
layerId = m01;
shapes = (
{
closed = 1;
nodes = (
(117,489,qs),
(125,504,o),
(120,539,o),
(97,563,o),
(50,563,o),
(25,536,o),
(24,499,o),
(47,468,o),
(68,464,qs),
(101,459,o)
);
},
{
closed = 1;
nodes = (
(75,536,o),
(89,524,o),
(89,513,qs),
(89,503,o),
(75,491,o),
(60,497,o),
(60,529,o)
);
}
);
width = 146;
}
);
note = uni00B0;
unicode = 176;
},
{
glyphname = uni00B6;
layers = (
{
layerId = m01;
shapes = (
{
closed = 1;
nodes = (
(249,248,o),
(250,529,q),
(271,531,o),
(272,529,o),
(278,-30,q),
(308,-30,l),
(308,532,l),
(339,537,l),
(344,581,l),
(229,583,o),
(181,588,o),
(131,603,o),
(62,568,o),
(30,516,o),
(24,469,o),
(24,405,o),
(36,348,o),
(55,320,o),
(96,277,o),
(140,266,o),
(210,266,q),
(210,-34,l),
(247,-30,l)
);
}
);
width = 369;
}
);
note = uni00B6;
unicode = 182;
},
{
glyphname = uni00D7;
layers = (
{
layerId = m01;
shapes = (
{
closed = 1;
nodes = (
(150,91,o),
(189,138,o),
(204,157,o),
(207,157,q),
(208,158,o),
(226,139,o),
(250,113,o),
(268,93,o),
(300,56,o),
(332,22,o),
(346,16,o),
(367,35,o),
(397,69,o),
(397,71,o),
(359,112,o),
(297,177,o),
(261,215,q),
(309,263,ls),
(361,312,o),
(401,352,o),
(401,356,q),
(385,375,o),
(367,394,o),
(347,417,q),
(327,396,ls),
(310,377,o),
(270,335,o),
(208,274,q),
(87,414,o),
(81,418,o),
(31,370,o),
(26,361,o),
(30,351,o),
(120,253,o),
(153,213,q),
(129,184,o),
(34,84,o),
(25,68,q),
(79,15,l),
(110,48,ls)
);
}
);
width = 424;
}
);
note = uni00D7;
unicode = 215;
},
{
glyphname = uni00F7;
layers = (
{
layerId = m01;
shapes = (
{
closed = 1;
nodes = (
(109,322,o),
(127,342,o),
(130,377,o),
(116,403,o),
(99,417,o),
(95,417,o),
(77,403,o),
(62,378,o),
(64,344,o),
(91,313,o),
(101,313,o)
);
},
{
closed = 1;
nodes = (
(109,24,o),
(127,44,o),
(130,79,o),
(115,105,o),
(98,119,o),
(95,119,o),
(77,105,o),
(62,80,o),
(64,46,o),
(91,15,o),
(101,15,o)
);
},
{
closed = 1;
nodes = (
(166,234,o),
(26,236,q),
(25,194,l),
(162,194,l),
(168,232,o)
);
}
);
width = 192;
}
);
note = uni00F7;
unicode = 247;
},
{
glyphname = Euro;
layers = (
{
layerId = m01;
shapes = (
{
closed = 1;
nodes = (
(333,3,o),
(368,38,o),
(382,53,qs),
(392,65,o),
(401,85,o),
(392,124,o),
(362,193,o),
(350,203,o),
(330,203,o),
(295,185,o),
(280,167,o),
(282,125,o),
(288,86,o),
(285,72,o),
(262,59,o),
(234,62,o),
(220,85,o),
(215,109,o),
(212,207,q),
(257,210,o),
(279,216,o),
(274,260,q),
(210,255,l),
(210,318,l),
(261,315,o),
(279,318,o),
(284,341,o),
(285,368,q),
(209,372,l),
(215,481,o),
(222,499,o),
(247,515,o),
(270,502,o),
(283,490,q),
(272,442,o),
(272,413,o),
(283,394,o),
(309,369,o),
(336,351,o),
(345,356,q),
(392,440,o),
(406,478,o),
(389,510,o),
(319,580,o),
(253,603,o),
(197,582,o),
(139,536,o),
(114,505,o),
(109,483,o),
(111,374,q),
(41,374,l),
(30,372,l),
(26,319,l),
(107,315,l),
(109,260,l),
(26,258,l),
(24,205,l),
(112,205,l),
(110,158,o),
(111,79,o),
(115,68,o),
(140,36,o),
(175,2,o),
(219,-28,o),
(270,-39,o),
(295,-27,qs),
(302,-24,o)
);
}
);
width = 428;
}
);
note = Euro;
unicode = 8364;
},
{
glyphname = uni2122;
layers = (
{
layerId = m01;
shapes = (
{
closed = 1;
nodes = (
(213,371,o),
(213,383,q),
(213,383,o),
(206,456,o),
(204,498,o),
(207,525,o),
(219,509,o),
(229,465,o),
(229,410,o),
(219,384,qs),
(218,380,o),
(228,361,o),
(241,345,o),
(252,345,o),
(264,365,o),
(271,379,q),
(266,401,o),
(262,423,o),
(261,488,o),
(279,521,o),
(286,518,o),
(286,475,o),
(281,422,o),
(276,382,o),
(286,356,o),
(303,338,o),
(319,348,o),
(334,379,q),
(318,418,o),
(315,443,o),
(316,507,o),
(325,518,o),
(323,527,o),
(293,561,o),
(283,565,o),
(262,545,o),
(248,521,o),
(252,513,o),
(250,477,o),
(245,468,o),
(240,484,o),
(238,508,o),
(243,530,o),
(210,565,o),
(196,559,o),
(169,528,o),
(165,519,o),
(175,501,o),
(177,488,o),
(176,435,o),
(164,401,o),
(155,382,q),
(159,369,o),
(172,344,o),
(194,344,o)
);
},
{
closed = 1;
nodes = (
(62,356,o),
(79,342,o),
(99,354,o),
(110,384,q),
(104,399,o),
(97,424,o),
(94,461,o),
(95,519,o),
(99,534,o),
(100,520,o),
(106,501,o),
(119,501,o),
(132,522,o),
(135,539,o),
(121,554,o),
(105,563,o),
(103,563,o),
(77,549,o),
(64,559,o),
(49,564,o),
(24,542,o),
(24,525,o),
(38,501,o),
(49,501,o),
(57,528,o),
(63,527,o),
(68,453,o),
(51,385,o),
(52,378,o)
);
}
);
width = 359;
}
);
note = uni2122;
unicode = 8482;
},
{
glyphname = uni2212;
layers = (
{
layerId = m01;
shapes = (
{
closed = 1;
nodes = (
(228,228,o),
(229,237,o),
(229,246,q),
(228,247,o),
(199,248,o),
(26,247,q),
(24,201,l),
(224,203,l)
);
}
);
width = 254;
}
);
note = uni2212;
unicode = 8722;
},
{
glyphname = uni25CC;
layers = (
{
anchors = (
{
name = top;
pos = (270,707);
},
{
name = top_;
pos = (270,615);
},
{
name = top__;
pos = (270,615);
},
{
name = top___;
pos = (270,615);
},
{
name = top____;
pos = (270,615);
},
{
name = top_____;
pos = (270,615);
},
{
name = top______;
pos = (270,615);
},
{
name = top_______;
pos = (270,615);
},
{
name = top________;
pos = (270,615);
},
{
name = top_________;
pos = (270,615);
},
{
name = top__________;
pos = (270,615);
},
{
name = top___________;
pos = (270,615);
}
);
layerId = m01;
shapes = (
{
closed = 1;
nodes = (
(287,523,qs),
(297,532,o),
(303,542,qs),
(307,550,o),
(307,555,o),
(300,569,o),
(277,595,o),
(274,595,q),
(260,585,l),
(233,560,o),
(260,518,o),
(278,514,o)
);
},
{
closed = 1;
nodes = (
(427,468,qs),
(437,477,o),
(443,487,qs),
(447,495,o),
(447,500,o),
(440,514,o),
(417,540,o),
(414,540,q),
(400,530,l),
(373,505,o),
(400,463,o),
(418,459,o)
);
},
{
closed = 1;
nodes = (
(482,303,qs),
(492,312,o),
(498,322,qs),
(502,330,o),
(502,335,o),
(495,349,o),
(472,375,o),
(469,375,q),
(455,365,l),
(428,340,o),
(455,298,o),
(473,294,o)
);
},
{
closed = 1;
nodes = (
(422,138,qs),
(432,147,o),
(438,157,qs),
(442,165,o),
(442,170,o),
(435,184,o),
(412,210,o),
(409,210,q),
(395,200,l),
(368,175,o),
(395,133,o),
(413,129,o)
);
},
{
closed = 1;
nodes = (
(287,83,qs),
(297,92,o),
(303,102,qs),
(307,110,o),
(307,115,o),
(300,129,o),
(277,155,o),
(274,155,q),
(260,145,l),
(233,120,o),
(260,78,o),
(278,74,o)
);
},
{
closed = 1;
nodes = (
(152,138,qs),
(162,147,o),
(168,157,qs),
(172,165,o),
(172,170,o),
(165,184,o),
(142,210,o),
(139,210,q),
(125,200,l),
(98,175,o),
(125,133,o),
(143,129,o)
);
},
{
closed = 1;
nodes = (
(92,303,qs),
(102,312,o),
(108,322,qs),
(112,330,o),
(112,335,o),
(105,349,o),
(82,375,o),
(79,375,q),
(65,365,l),
(38,340,o),
(65,298,o),
(83,294,o)
);
},
{
closed = 1;
nodes = (
(147,468,qs),
(157,477,o),
(163,487,qs),
(167,495,o),
(167,500,o),
(160,514,o),
(137,540,o),
(134,540,q),
(120,530,l),
(93,505,o),
(120,463,o),
(138,459,o)
);
}
);
width = 540;
}
);
note = uni25CC;
unicode = 9676;
},
{
glyphname = uni0021;
layers = (
{
layerId = m01;
shapes = (
{
closed = 1;
nodes = (
(105,239,o),
(125,422,o),
(160,553,o),
(160,578,o),
(141,624,o),
(116,669,o),
(92,690,o),
(59,656,o),
(31,596,o),
(24,567,q),
(39,506,o),
(65,378,o),
(79,240,o),
(84,223,o),
(98,223,o)
);
},
{
closed = 1;
nodes = (
(138,120,o),
(117,161,o),
(93,184,q),
(86,184,o),
(64,155,o),
(46,113,o),
(42,80,o),
(57,34,o),
(83,0,o),
(114,1,o),
(143,64,o)
);
}
);
width = 185;
}
);
note = uni0021;
unicode = 33;
},
{
glyphname = uni0022;
layers = (
{
layerId = m01;
shapes = (
{
closed = 1;
nodes = (
(199,553,o),
(205,589,o),
(225,624,o),
(225,654,o),
(223,662,o),
(205,687,o),
(170,690,o),
(144,666,o),
(144,632,o),
(147,619,o),
(164,582,o),
(169,546,o),
(175,526,o),
(195,526,o)
);
},
{
closed = 1;
nodes = (
(85,589,o),
(105,624,o),
(105,654,o),
(100,673,o),
(75,689,o),
(45,687,o),
(24,665,o),
(24,643,qs),
(24,631,o),
(45,578,o),
(50,543,o),
(55,526,o),
(75,526,o)
);
}
);
width = 250;
}
);
note = uni0022;
unicode = 34;
},
{
glyphname = uni0023;
layers = (
{
layerId = m01;
shapes = (
{
closed = 1;
nodes = (
(161,-33,o),
(185,51,o),
(196,103,o),
(203,143,q),
(260,142,o),
(299,140,o),
(301,138,o),
(273,9,o),
(266,-27,o),
(266,-31,q),
(288,-33,o),
(336,-34,q),
(348,11,o),
(375,139,o),
(379,143,o),
(482,146,q),
(494,206,o),
(494,211,o),
(401,214,o),
(397,217,o),
(402,251,o),
(419,333,q),
(444,335,o),
(535,335,q),
(545,401,o),
(543,403,q),
(542,406,o),
(440,405,o),
(436,410,o),
(443,447,qs),
(445,459,o),
(455,506,o),
(465,556,o),
(473,591,o),
(473,593,o),
(457,594,o),
(401,595,q),
(381,519,o),
(362,414,o),
(357,409,o),
(294,405,o),
(264,405,o),
(259,409,o),
(300,596,q),
(236,597,o),
(225,595,o),
(224,590,qs),
(186,408,l),
(74,405,l),
(71,375,o),
(70,361,o),
(70,339,q),
(71,337,o),
(101,335,o),
(151,335,o),
(171,333,q),
(154,254,o),
(145,219,o),
(141,217,o),
(30,214,q),
(25,170,o),
(24,148,o),
(30,148,qs),
(126,143,l),
(90,-25,l),
(94,-31,l),
(147,-34,l),
(159,-33,ls)
);
},
{
closed = 1;
nodes = (
(222,217,q),
(246,335,l),
(344,332,l),
(322,224,o),
(321,218,o),
(307,216,o),
(256,216,o)
);
}
);
width = 568;
}
);
note = uni0023;
unicode = 35;
},
{
glyphname = uni0027;
layers = (
{
layerId = m01;
shapes = (
{
closed = 1;
nodes = (
(85,590,o),
(105,625,o),
(105,655,o),
(100,674,o),
(75,690,o),
(45,688,o),
(24,666,o),
(24,644,qs),
(24,632,o),
(45,579,o),
(50,544,o),
(55,527,o),
(75,527,o)
);
}
);
width = 130;
}
);
note = uni0027;
unicode = 39;
},
{
glyphname = uni0028;
layers = (
{
layerId = m01;
shapes = (
{
closed = 1;
nodes = (
(179,-11,o),
(179,-4,o),
(160,12,o),
(137,55,o),
(120,99,o),
(86,217,o),
(88,374,o),
(132,504,o),
(161,547,o),
(179,567,q),
(146,597,o),
(141,597,q),
(126,587,l),
(45,522,o),
(28,338,qs),
(23,289,o),
(32,191,o),
(49,94,o),
(91,8,o),
(133,-34,o),
(143,-34,qs),
(148,-34,o)
);
}
);
width = 202;
}
);
note = uni0028;
unicode = 40;
},
{
glyphname = uni0029;
layers = (
{
layerId = m01;
shapes = (
{
closed = 1;
nodes = (
(108,-3,o),
(151,88,o),
(175,206,o),
(178,335,o),
(158,458,o),
(113,558,o),
(77,587,q),
(61,597,l),
(28,574,o),
(27,564,o),
(61,524,o),
(102,421,o),
(120,284,o),
(101,130,o),
(64,53,qs),
(51,25,o),
(24,-4,o),
(24,-11,o),
(55,-34,o),
(65,-34,o)
);
}
);
width = 202;
}
);
note = uni0029;
unicode = 41;
},
{
glyphname = uni002A;
layers = (
{
layerId = m01;
shapes = (
{
closed = 1;
nodes = (
(226,233,o),
(226,263,qs),
(225,309,o),
(215,359,o),
(208,379,o),
(210,380,q),
(217,375,o),
(232,348,o),
(254,324,qs),
(292,282,o),
(330,272,o),
(348,300,qs),
(355,312,o),
(355,327,o),
(343,343,o),
(304,366,o),
(256,388,o),
(224,398,o),
(227,402,q),
(227,403,o),
(254,413,o),
(294,430,o),
(333,449,o),
(360,470,o),
(360,479,qs),
(360,484,o),
(348,504,o),
(333,522,o),
(329,523,q),
(323,526,o),
(288,504,o),
(248,472,o),
(218,447,o),
(212,447,o),
(217,458,q),
(219,467,o),
(221,503,o),
(223,534,qs),
(225,576,o),
(223,597,o),
(216,600,o),
(167,607,o),
(160,597,o),
(158,568,o),
(161,490,o),
(171,454,o),
(178,448,o),
(174,444,o),
(97,512,o),
(70,531,o),
(46,524,o),
(32,501,o),
(27,475,o),
(32,461,o),
(62,442,o),
(149,405,o),
(159,398,o),
(150,398,q),
(65,358,o),
(27,334,o),
(24,321,o),
(40,295,o),
(67,276,o),
(90,284,o),
(148,347,o),
(175,373,q),
(169,337,o),
(153,238,o),
(159,216,o),
(184,204,o),
(197,205,qs),
(219,205,o)
);
}
);
width = 384;
}
);
note = uni002A;
unicode = 42;
},
{
glyphname = uni002C;
layers = (
{
layerId = m01;
shapes = (
{
closed = 1;
nodes = (
(76,-89,o),
(96,-44,o),
(115,7,o),
(126,48,o),
(130,76,o),
(106,115,o),
(78,140,o),
(71,140,o),
(46,116,o),
(24,80,o),
(24,42,o),
(62,-13,o),
(62,-28,qs),
(62,-37,o),
(36,-96,o),
(38,-105,o),
(60,-105,o)
);
}
);
width = 154;
}
);
note = uni002C;
unicode = 44;
},
{
glyphname = uni002D;
layers = (
{
layerId = m01;
shapes = (
{
closed = 1;
nodes = (
(155,209,o),
(157,230,o),
(157,236,o),
(155,238,q),
(124,240,o),
(93,240,o),
(26,238,q),
(24,192,l),
(152,192,l)
);
}
);
width = 182;
}
);
note = uni002D;
unicode = 45;
},
{
glyphname = uni002E;
layers = (
{
layerId = m01;
shapes = (
{
closed = 1;
nodes = (
(94,6,o),
(105,12,o),
(122,42,o),
(133,71,o),
(136,100,o),
(115,140,o),
(87,165,o),
(75,165,o),
(51,142,o),
(32,113,o),
(24,80,o),
(43,32,o),
(74,0,o),
(87,0,o)
);
}
);
width = 160;
}
);
note = uni002E;
unicode = 46;
},
{
glyphname = uni002F;
layers = (
{
layerId = m01;
shapes = (
{
closed = 1;
nodes = (
(70,-19,o),
(98,122,qs),
(195,597,l),
(153,597,l),
(25,-22,o),
(24,-30,o),
(28,-32,o),
(65,-34,o),
(66,-33,o)
);
}
);
width = 219;
}
);
note = uni002F;
unicode = 47;
},
{
glyphname = uni003A;
layers = (
{
layerId = m01;
shapes = (
{
closed = 1;
nodes = (
(115,316,o),
(125,341,o),
(133,360,o),
(121,394,o),
(99,423,o),
(78,440,o),
(71,440,o),
(49,416,o),
(28,383,o),
(24,360,o),
(43,317,o),
(69,282,o),
(86,282,o)
);
},
{
closed = 1;
nodes = (
(111,29,o),
(128,66,o),
(129,80,qs),
(130,94,o),
(112,131,o),
(91,159,o),
(78,166,o),
(50,147,o),
(28,107,o),
(28,55,o),
(49,18,o),
(73,0,o),
(89,0,o)
);
}
);
width = 157;
}
);
note = uni003A;
unicode = 58;
},
{
glyphname = uni003B;
layers = (
{
layerId = m01;
shapes = (
{
closed = 1;
nodes = (
(96,-58,o),
(118,4,o),
(133,56,o),
(130,74,o),
(109,109,o),
(84,135,o),
(78,132,q),
(59,116,o),
(37,89,o),
(26,56,o),
(37,24,o),
(61,-11,o),
(69,-31,o),
(58,-64,o),
(43,-92,o),
(43,-105,o),
(67,-105,o)
);
},
{
closed = 1;
nodes = (
(116,290,o),
(135,329,o),
(132,349,o),
(110,382,o),
(86,410,o),
(74,410,o),
(46,380,o),
(24,341,o),
(28,325,q),
(60,268,o),
(78,250,o),
(91,256,o)
);
}
);
width = 159;
}
);
note = uni003B;
unicode = 59;
},
{
glyphname = uni003F;
layers = (
{
layerId = m01;
shapes = (
{
closed = 1;
nodes = (
(170,279,o),
(176,306,qs),
(182,335,o),
(230,380,o),
(254,413,qs),
(271,438,o),
(288,507,o),
(292,569,o),
(288,582,qs),
(283,601,o),
(253,644,o),
(218,678,o),
(207,684,qs),
(193,690,o),
(174,671,o),
(161,648,o),
(154,648,qs),
(151,648,o),
(116,682,o),
(101,686,o),
(90,677,o),
(44,615,o),
(24,570,o),
(24,524,o),
(47,508,qs),
(105,465,o),
(123,461,o),
(147,480,o),
(144,528,o),
(140,552,q),
(160,578,o),
(192,560,o),
(189,476,o),
(179,444,o),
(138,339,q),
(139,301,ls),
(141,252,o),
(152,223,o),
(165,223,q),
(172,225,o)
);
},
{
closed = 1;
nodes = (
(193,151,o),
(168,185,o),
(168,185,q),
(160,193,o),
(138,169,o),
(118,130,o),
(111,103,o),
(113,81,qs),
(115,44,o),
(149,0,o),
(191,13,o),
(212,94,o)
);
}
);
width = 315;
}
);
note = uni003F;
unicode = 63;
},
{
glyphname = uni005B;
layers = (
{
layerId = m01;
shapes = (
{
closed = 1;
nodes = (
(65,12,l),
(65,554,l),
(167,557,l),
(173,594,o),
(171,596,o),
(25,596,q),
(25,-30,l),
(166,-34,l),
(172,9,l)
);
}
);
width = 197;
}
);
note = uni005B;
unicode = 91;
},
{
glyphname = uni005C;
layers = (
{
layerId = m01;
shapes = (
{
closed = 1;
nodes = (
(195,-30,o),
(194,-25,qs),
(66,597,l),
(24,597,l),
(24,593,o),
(154,-34,q),
(190,-32,o)
);
}
);
width = 219;
}
);
note = uni005C;
unicode = 92;
},
{
glyphname = uni005D;
layers = (
{
layerId = m01;
shapes = (
{
closed = 1;
nodes = (
(173,597,l),
(24,595,l),
(30,558,l),
(132,555,l),
(132,12,l),
(25,9,l),
(27,-16,o),
(32,-34,q),
(173,-30,l)
);
}
);
width = 198;
}
);
note = uni005D;
unicode = 93;
},
{
glyphname = uni005F;
layers = (
{
layerId = m01;
shapes = (
{
closed = 1;
nodes = (
(173,-83,o),
(217,-82,o),
(217,-81,q),
(219,-79,o),
(222,-59,o),
(222,-38,q),
(126,-36,o),
(26,-37,q),
(24,-83,l),
(120,-83,ls)
);
}
);
width = 247;
}
);
note = uni005F;
unicode = 95;
},
{
glyphname = uni007B;
layers = (
{
layerId = m01;
shapes = (
{
closed = 1;
nodes = (
(194,-28,o),
(194,-7,qs),
(194,14,l),
(166,17,o),
(155,19,o),
(142,25,o),
(135,39,o),
(133,86,o),
(133,179,o),
(132,228,o),
(131,236,q),
(126,255,o),
(110,275,o),
(97,284,o),
(97,289,q),
(106,298,o),
(126,325,o),
(132,349,o),
(133,396,o),
(133,534,o),
(139,541,o),
(194,551,q),
(198,597,l),
(143,597,o),
(100,578,o),
(79,557,o),
(74,550,o),
(71,531,o),
(67,329,q),
(43,313,o),
(25,307,q),
(24,273,o),
(25,267,o),
(40,261,q),
(61,247,o),
(66,238,o),
(69,79,o),
(70,34,o),
(76,16,q),
(98,-27,o),
(159,-33,qs),
(184,-35,o)
);
}
);
width = 222;
}
);
note = uni007B;
unicode = 123;
},
{
glyphname = uni007D;
layers = (
{
layerId = m01;
shapes = (
{
closed = 1;
nodes = (
(96,-28,o),
(134,-7,o),
(146,16,qs),
(149,21,o),
(152,36,o),
(153,81,o),
(153,132,qs),
(154,181,o),
(156,239,o),
(161,247,o),
(178,261,o),
(196,267,o),
(198,274,o),
(197,307,q),
(179,313,o),
(169,319,o),
(155,329,q),
(153,435,ls),
(152,526,o),
(146,558,o),
(110,584,o),
(63,597,o),
(24,597,q),
(28,551,l),
(84,539,o),
(88,535,o),
(89,477,o),
(91,343,o),
(98,317,o),
(124,293,o),
(124,289,q),
(101,263,o),
(91,242,o),
(89,193,o),
(88,48,o),
(82,24,o),
(56,17,o),
(27,14,q),
(27,-29,o),
(32,-32,q),
(58,-34,o)
);
}
);
width = 222;
}
);
note = uni007D;
unicode = 125;
},
{
glyphname = uni00A1;
layers = (
{
layerId = m01;
shapes = (
{
closed = 1;
nodes = (
(141,-95,o),
(160,-48,o),
(160,-38,q),
(131,85,o),
(112,212,o),
(104,293,o),
(99,306,o),
(83,304,o),
(81,299,q),
(69,185,o),
(53,88,o),
(24,-37,q),
(31,-65,o),
(58,-125,o),
(92,-160,o),
(107,-147,qs),
(116,-139,o)
);
},
{
closed = 1;
nodes = (
(109,357,o),
(132,390,o),
(143,440,o),
(136,475,o),
(120,516,o),
(94,530,o),
(69,511,o),
(50,476,o),
(40,431,o),
(60,377,o),
(88,343,o),
(99,343,o)
);
}
);
width = 185;
}
);
note = uni00A1;
unicode = 161;
},
{
glyphname = guillemotleft;
layers = (
{
layerId = m01;
shapes = (
{
closed = 1;
nodes = (
(184,58,o),
(170,90,o),
(149,135,o),
(126,179,o),
(111,211,o),
(111,220,o),
(127,253,o),
(151,294,o),
(191,358,q),
(180,373,o),
(145,416,o),
(139,416,o),
(93,341,o),
(24,213,q),
(71,131,o),
(121,43,o),
(143,15,q),
(180,52,o)
);
},
{
closed = 1;
nodes = (
(310,39,o),
(329,63,o),
(324,69,q),
(319,79,o),
(268,174,o),
(249,212,o),
(249,220,o),
(272,262,o),
(303,313,o),
(326,353,o),
(326,361,o),
(285,416,o),
(283,416,qs),
(279,416,o),
(254,376,o),
(221,317,o),
(190,256,o),
(169,212,o),
(169,204,o),
(223,104,o),
(274,23,o),
(284,18,o),
(287,20,o)
);
}
);
width = 351;
}
);
note = guillemotleft;
unicode = 171;
},
{
glyphname = uni00B7;
layers = (
{
layerId = m01;
shapes = (
{
closed = 1;
nodes = (
(94,177,o),
(111,209,o),
(110,249,o),
(96,265,qs),
(78,285,o),
(44,276,o),
(25,238,o),
(29,192,o),
(65,166,o)
);
}
);
width = 132;
}
);
note = uni00B7;
unicode = 183;
},
{
glyphname = guillemotright;
layers = (
{
layerId = m01;
shapes = (
{
closed = 1;
nodes = (
(231,46,o),
(292,150,o),
(327,213,q),
(327,214,o),
(252,352,o),
(224,398,o),
(212,416,o),
(204,414,o),
(160,358,q),
(198,300,o),
(232,239,o),
(240,215,o),
(240,212,o),
(167,59,o),
(169,56,q),
(209,15,l),
(218,27,o)
);
},
{
closed = 1;
nodes = (
(108,69,o),
(138,121,o),
(165,171,o),
(182,206,o),
(182,213,o),
(162,256,o),
(130,317,o),
(98,376,o),
(72,415,o),
(66,415,o),
(45,388,o),
(25,359,o),
(25,357,q),
(102,220,o),
(102,212,o),
(28,70,o),
(23,63,o),
(43,37,o),
(68,17,o),
(72,20,qs),
(81,28,o)
);
}
);
width = 351;
}
);
note = guillemotright;
unicode = 187;
},
{
glyphname = uni00BF;
layers = (
{
layerId = m01;
shapes = (
{
closed = 1;
nodes = (
(150,-121,o),
(159,-121,o),
(183,-157,o),
(206,-160,o),
(261,-111,o),
(287,-63,o),
(291,-28,o),
(288,32,o),
(268,94,o),
(238,134,o),
(199,177,o),
(179,206,o),
(172,240,o),
(170,294,o),
(165,309,o),
(145,291,o),
(139,260,o),
(138,188,q),
(164,124,o),
(183,72,o),
(195,17,o),
(186,-39,o),
(160,-52,o),
(140,-26,q),
(145,3,o),
(146,48,o),
(122,67,o),
(104,62,o),
(29,1,o),
(24,-10,o),
(24,-49,o),
(39,-79,q),
(64,-121,o),
(93,-154,o),
(106,-159,o),
(114,-156,o)
);
},
{
closed = 1;
nodes = (
(209,458,o),
(194,496,o),
(175,517,q),
(153,530,o),
(121,493,o),
(109,432,o),
(120,391,o),
(153,337,o),
(171,342,o),
(205,400,o)
);
}
);
width = 315;
}
);
note = uni00BF;
unicode = 191;
},
{
glyphname = uni2013;
layers = (
{
layerId = m01;
shapes = (
{
closed = 1;
nodes = (
(228,228,o),
(229,237,o),
(229,246,q),
(228,247,o),
(199,248,o),
(26,247,q),
(24,201,l),
(224,203,l)
);
}
);
width = 254;
}
);
note = uni2013;
unicode = 8211;
},
{
glyphname = uni2014;
layers = (
{
layerId = m01;
shapes = (
{
closed = 1;
nodes = (
(321,234,o),
(321,245,o),
(314,247,q),
(272,248,o),
(26,248,o),
(26,244,qs),
(24,202,l),
(313,202,l)
);
}
);
width = 346;
}
);
note = uni2014;
unicode = 8212;
},
{
glyphname = uni2018;
layers = (
{
layerId = m01;
shapes = (
{
closed = 1;
nodes = (
(85,590,o),
(105,625,o),
(105,655,o),
(100,674,o),
(75,690,o),
(45,688,o),
(24,666,o),
(24,644,qs),
(24,632,o),
(45,579,o),
(50,544,o),
(55,527,o),
(75,527,o)
);
}
);
width = 130;
}
);
note = uni2018;
unicode = 8216;
},
{
glyphname = uni2019;
layers = (
{
layerId = m01;
shapes = (
{
closed = 1;
nodes = (
(85,590,o),
(105,625,o),
(105,655,o),
(100,674,o),
(75,690,o),
(45,688,o),
(24,666,o),
(24,644,qs),
(24,632,o),
(45,579,o),
(50,544,o),
(55,527,o),
(75,527,o)
);
}
);
width = 130;
}
);
note = uni2019;
unicode = 8217;
},
{
glyphname = uni201A;
layers = (
{
layerId = m01;
shapes = (
{
closed = 1;
nodes = (
(69,135,o),
(87,173,o),
(103,216,o),
(113,251,o),
(116,275,o),
(94,309,o),
(70,329,o),
(65,329,o),
(43,309,o),
(24,278,o),
(24,246,o),
(57,200,o),
(57,186,q),
(53,166,o),
(34,129,o),
(36,121,o),
(55,121,o)
);
}
);
width = 139;
}
);
note = uni201A;
unicode = 8218;
},
{
glyphname = uni201C;
layers = (
{
layerId = m01;
shapes = (
{
closed = 1;
nodes = (
(199,552,o),
(205,589,o),
(225,624,o),
(225,654,o),
(223,662,o),
(205,687,o),
(170,690,o),
(144,666,o),
(144,632,o),
(147,619,o),
(164,581,o),
(169,546,o),
(174,526,o),
(195,526,o)
);
},
{
closed = 1;
nodes = (
(85,589,o),
(105,624,o),
(105,654,o),
(100,673,o),
(75,689,o),
(45,687,o),
(24,665,o),
(24,643,qs),
(24,631,o),
(45,578,o),
(50,543,o),
(55,526,o),
(75,526,o)
);
}
);
width = 250;
}
);
note = uni201C;
unicode = 8220;
},
{
glyphname = uni201D;
layers = (
{
layerId = m01;
shapes = (
{
closed = 1;
nodes = (
(199,552,o),
(205,589,o),
(225,624,o),
(225,654,o),
(223,662,o),
(205,687,o),
(170,690,o),
(144,666,o),
(144,632,o),
(147,619,o),
(164,581,o),
(169,546,o),
(174,526,o),
(195,526,o)
);
},
{
closed = 1;
nodes = (
(85,589,o),
(105,624,o),
(105,654,o),
(100,673,o),
(75,689,o),
(45,687,o),
(24,665,o),
(24,643,qs),
(24,631,o),
(45,578,o),
(50,543,o),
(55,526,o),
(75,526,o)
);
}
);
width = 250;
}
);
note = uni201D;
unicode = 8221;
},
{
glyphname = uni201E;
layers = (
{
layerId = m01;
shapes = (
{
closed = 1;
nodes = (
(69,135,o),
(87,173,o),
(103,216,o),
(113,251,o),
(116,275,o),
(94,309,o),
(70,329,o),
(65,329,o),
(43,309,o),
(24,278,o),
(24,246,o),
(57,200,o),
(57,186,q),
(53,166,o),
(34,129,o),
(36,121,o),
(55,121,o)
);
},
{
closed = 1;
nodes = (
(197,134,o),
(215,170,o),
(231,213,o),
(242,249,o),
(243,266,o),
(242,279,o),
(223,307,o),
(202,329,o),
(194,329,o),
(172,308,o),
(153,278,o),
(153,246,o),
(186,200,o),
(186,186,q),
(182,166,o),
(163,129,o),
(165,121,o),
(184,121,o)
);
}
);
width = 268;
}
);
note = uni201E;
unicode = 8222;
},
{
glyphname = uni2022;
layers = (
{
layerId = m01;
shapes = (
{
closed = 1;
nodes = (
(130,162,o),
(152,209,o),
(146,266,o),
(122,290,qs),
(102,309,o),
(61,302,o),
(32,265,o),
(24,213,o),
(48,161,o),
(91,139,o)
);
}
);
width = 172;
}
);
note = uni2022;
unicode = 8226;
},
{
glyphname = uni2026;
layers = (
{
layerId = m01;
shapes = (
{
closed = 1;
nodes = (
(464,31,o),
(479,73,o),
(482,102,o),
(463,140,o),
(439,165,o),
(435,165,q),
(415,149,o),
(394,119,o),
(387,76,o),
(411,16,o),
(429,7,qs),
(442,0,o)
);
},
{
closed = 1;
nodes = (
(81,2,o),
(103,31,o),
(116,70,o),
(120,100,o),
(102,140,o),
(79,165,o),
(69,165,o),
(50,143,o),
(32,114,o),
(24,78,o),
(36,50,qs),
(52,10,o)
);
},
{
closed = 1;
nodes = (
(256,1,o),
(276,20,o),
(291,52,o),
(298,80,o),
(301,100,o),
(283,140,o),
(259,165,o),
(255,165,q),
(235,149,o),
(213,120,o),
(206,76,o),
(217,50,qs),
(231,15,o)
);
}
);
width = 501;
}
);
note = uni2026;
unicode = 8230;
},
{
glyphname = uni2039;
layers = (
{
layerId = m01;
shapes = (
{
closed = 1;
nodes = (
(170,35,o),
(190,57,o),
(190,60,o),
(170,98,o),
(141,151,o),
(115,202,o),
(108,216,q),
(126,248,ls),
(131,258,o),
(152,295,o),
(174,333,o),
(190,361,o),
(190,363,o),
(172,389,o),
(152,415,o),
(149,416,q),
(145,419,o),
(133,403,o),
(116,376,qs),
(60,284,o),
(27,225,o),
(24,217,o),
(50,162,o),
(115,51,o),
(141,15,o),
(148,15,o)
);
}
);
width = 214;
}
);
note = uni2039;
unicode = 8249;
},
{
glyphname = uni203A;
layers = (
{
layerId = m01;
shapes = (
{
closed = 1;
nodes = (
(101,54,o),
(137,113,o),
(170,174,o),
(191,218,o),
(188,222,q),
(129,327,l),
(95,381,o),
(69,419,o),
(59,412,o),
(40,388,o),
(24,360,q),
(106,216,l),
(24,60,o),
(24,56,o),
(66,15,o),
(73,15,o)
);
}
);
width = 213;
}
);
note = uni203A;
unicode = 8250;
},
{
glyphname = uni0030;
layers = (
{
layerId = m01;
shapes = (
{
closed = 1;
nodes = (
(285,94,o),
(313,134,o),
(316,144,o),
(319,294,o),
(320,552,q),
(276,618,o),
(211,677,o),
(174,700,o),
(131,678,o),
(77,620,o),
(24,552,q),
(24,138,l),
(40,112,o),
(81,61,o),
(134,3,o),
(173,-6,o),
(204,6,o),
(225,24,q),
(246,46,o)
);
},
{
closed = 1;
nodes = (
(134,190,o),
(133,257,qs),
(133,546,l),
(139,557,o),
(158,583,o),
(172,583,o),
(197,562,o),
(201,547,o),
(203,441,o),
(202,149,o),
(197,123,o),
(178,102,o),
(170,105,q),
(143,111,o)
);
}
);
width = 344;
}
);
note = uni0030;
unicode = 48;
},
{
glyphname = uni0031;
layers = (
{
layerId = m01;
shapes = (
{
closed = 1;
nodes = (
(177,43,o),
(198,80,o),
(212,107,o),
(212,107,q),
(212,113,o),
(204,131,qs),
(197,146,o),
(189,172,o),
(184,214,o),
(183,290,o),
(183,420,o),
(184,522,q),
(194,555,o),
(201,582,o),
(203,589,o),
(203,593,o),
(192,624,o),
(177,663,o),
(165,692,o),
(164,692,q),
(101,649,o),
(57,632,o),
(35,629,o),
(30,624,qs),
(26,620,o),
(59,561,o),
(73,531,o),
(80,462,o),
(81,378,o),
(77,206,o),
(68,158,o),
(52,114,o),
(52,105,q),
(63,77,o),
(104,9,o),
(129,-4,o),
(145,6,qs),
(154,11,o)
);
}
);
width = 231;
}
);
note = uni0031;
unicode = 49;
},
{
glyphname = uni0032;
layers = (
{
layerId = m01;
shapes = (
{
closed = 1;
nodes = (
(292,22,o),
(322,61,o),
(343,97,o),
(343,107,o),
(301,197,o),
(273,215,o),
(239,198,o),
(230,178,o),
(230,126,o),
(225,110,o),
(191,98,o),
(167,119,qs),
(158,126,o),
(127,132,q),
(127,133,o),
(162,222,o),
(253,343,o),
(294,403,o),
(314,447,o),
(320,491,o),
(320,556,qs),
(320,576,o),
(287,625,o),
(239,668,o),
(191,694,o),
(164,690,o),
(116,661,o),
(65,620,o),
(29,577,o),
(29,562,q),
(35,524,o),
(48,476,o),
(71,434,o),
(106,418,o),
(130,433,qs),
(170,457,o),
(142,556,o),
(145,571,o),
(158,584,o),
(189,583,o),
(204,550,o),
(204,465,o),
(191,397,o),
(156,318,o),
(113,243,o),
(45,143,o),
(24,110,o),
(24,98,o),
(38,62,o),
(58,23,o),
(78,-4,o),
(88,-1,o),
(122,42,q),
(147,36,ls),
(166,31,o),
(248,-6,q),
(259,-6,o)
);
}
);
width = 367;
}
);
note = uni0032;
unicode = 50;
},
{
glyphname = uni0033;
layers = (
{
layerId = m01;
shapes = (
{
closed = 1;
nodes = (
(241,34,o),
(264,62,o),
(268,66,q),
(293,98,o),
(315,134,o),
(319,156,o),
(319,168,qs),
(319,215,o),
(311,289,o),
(274,347,o),
(206,380,o),
(203,388,o),
(238,409,o),
(274,450,o),
(292,487,o),
(304,539,o),
(308,587,o),
(298,608,o),
(258,647,o),
(213,682,o),
(177,699,o),
(119,678,o),
(65,635,o),
(27,589,o),
(24,568,o),
(26,527,o),
(59,474,o),
(95,462,o),
(132,474,o),
(151,512,o),
(134,562,o),
(134,582,o),
(154,590,o),
(178,586,o),
(193,571,o),
(199,529,o),
(196,478,o),
(185,433,o),
(171,414,o),
(160,408,o),
(102,395,q),
(96,364,o),
(107,355,o),
(147,355,o),
(180,344,o),
(197,292,o),
(203,165,o),
(202,136,o),
(190,107,o),
(184,102,o),
(161,101,o),
(145,118,o),
(136,154,o),
(145,190,o),
(145,243,o),
(138,263,o),
(95,281,o),
(63,265,o),
(42,229,o),
(31,187,o),
(26,151,o),
(28,118,o),
(45,92,o),
(117,15,o),
(178,-9,o),
(203,3,qs),
(213,7,o)
);
}
);
width = 344;
}
);
note = uni0033;
unicode = 51;
},
{
glyphname = uni0034;
layers = (
{
layerId = m01;
shapes = (
{
closed = 1;
nodes = (
(271,8,o),
(293,38,o),
(310,74,o),
(310,98,o),
(304,124,o),
(307,133,o),
(328,137,o),
(352,143,o),
(365,158,o),
(352,188,o),
(328,196,o),
(306,196,o),
(302,200,q),
(299,233,o),
(297,325,o),
(298,475,o),
(303,515,o),
(323,582,q),
(270,666,l),
(249,692,l),
(121,617,o),
(94,598,o),
(84,582,o),
(101,538,o),
(101,415,o),
(78,296,o),
(47,223,o),
(24,182,o),
(24,164,o),
(49,142,o),
(57,140,q),
(179,135,l),
(181,105,o),
(190,56,o),
(220,15,o),
(252,-3,q),
(263,3,ls)
);
},
{
closed = 1;
nodes = (
(109,213,o),
(122,257,o),
(139,311,o),
(152,351,o),
(163,389,o),
(176,432,o),
(188,464,o),
(194,463,o),
(187,203,o),
(183,198,o),
(106,198,q),
(108,209,ls)
);
}
);
width = 387;
}
);
note = uni0034;
unicode = 52;
},
{
glyphname = uni0035;
layers = (
{
layerId = m01;
shapes = (
{
closed = 1;
nodes = (
(217,12,o),
(242,37,o),
(288,92,o),
(310,121,o),
(314,142,o),
(314,181,o),
(313,229,qs),
(313,327,l),
(277,396,o),
(252,418,qs),
(225,443,o),
(174,445,o),
(131,424,o),
(100,402,o),
(94,402,qs),
(93,402,o),
(93,480,o),
(97,571,o),
(98,575,o),
(116,577,o),
(191,575,o),
(194,566,o),
(199,506,o),
(227,479,o),
(283,479,o),
(299,496,o),
(326,588,q),
(301,665,o),
(286,695,o),
(279,695,o),
(180,668,o),
(77,698,o),
(58,685,o),
(49,662,o),
(45,614,o),
(41,339,o),
(42,333,o),
(65,319,o),
(81,319,o),
(114,365,o),
(132,385,o),
(153,385,o),
(177,370,o),
(188,358,o),
(194,329,o),
(196,171,o),
(193,113,o),
(186,92,o),
(163,93,o),
(143,112,o),
(138,138,o),
(146,168,o),
(146,222,o),
(133,249,o),
(92,264,o),
(48,241,o),
(25,163,o),
(26,119,o),
(50,85,o),
(102,28,o),
(143,0,o),
(173,-4,o),
(187,-1,qs),
(198,1,o)
);
}
);
width = 348;
}
);
note = uni0035;
unicode = 53;
},
{
glyphname = uni0036;
layers = (
{
layerId = m01;
shapes = (
{
closed = 1;
nodes = (
(198,2,o),
(223,22,o),
(226,25,qs),
(233,33,o),
(260,63,o),
(289,96,o),
(310,122,o),
(312,127,qs),
(314,130,o),
(316,147,o),
(317,192,o),
(317,275,o),
(316,330,o),
(315,339,q),
(311,355,o),
(283,399,o),
(247,435,o),
(232,442,qs),
(211,452,o),
(179,445,o),
(139,411,o),
(135,411,q),
(132,446,o),
(139,547,o),
(151,589,o),
(186,601,o),
(213,578,o),
(207,528,o),
(224,502,o),
(249,491,o),
(270,490,o),
(281,493,o),
(306,531,o),
(323,575,o),
(318,596,o),
(289,628,o),
(247,663,o),
(202,688,o),
(168,690,o),
(126,662,o),
(85,618,o),
(51,573,o),
(30,543,o),
(27,497,o),
(24,135,q),
(64,80,o),
(130,10,o),
(139,6,q),
(160,-7,o)
);
},
{
closed = 1;
nodes = (
(164,101,o),
(148,114,o),
(143,124,o),
(140,136,o),
(139,183,o),
(138,238,qs),
(139,338,o),
(148,374,o),
(173,372,qs),
(186,372,o),
(197,355,o),
(199,298,o),
(199,126,q),
(183,101,o)
);
}
);
width = 346;
}
);
note = uni0036;
unicode = 54;
},
{
glyphname = uni0037;
layers = (
{
layerId = m01;
shapes = (
{
closed = 1;
nodes = (
(186,5,qs),
(192,9,o),
(215,41,o),
(238,78,o),
(254,107,q),
(243,137,o),
(232,168,o),
(225,213,o),
(237,311,o),
(261,416,o),
(288,503,o),
(317,566,o),
(354,603,o),
(354,616,o),
(337,641,o),
(309,695,o),
(296,695,q),
(191,686,l),
(103,694,l),
(92,696,o),
(65,672,o),
(40,635,o),
(24,600,o),
(24,583,o),
(40,539,o),
(62,495,o),
(87,471,o),
(122,485,o),
(131,505,o),
(133,543,o),
(139,574,o),
(164,574,o),
(240,559,q),
(238,546,l),
(159,280,o),
(121,156,o),
(99,103,q),
(138,23,o),
(150,8,o),
(157,5,qs),
(174,-3,o)
);
}
);
width = 379;
}
);
note = uni0037;
unicode = 55;
},
{
glyphname = uni0038;
layers = (
{
layerId = m01;
shapes = (
{
closed = 1;
nodes = (
(295,104,o),
(308,132,o),
(311,171,o),
(310,244,o),
(308,275,o),
(294,304,o),
(263,340,o),
(236,369,q),
(289,426,o),
(302,447,o),
(305,470,o),
(306,531,o),
(299,583,o),
(275,622,o),
(223,669,o),
(184,693,o),
(146,690,o),
(96,651,o),
(50,601,o),
(38,581,o),
(31,541,o),
(31,479,o),
(34,446,o),
(66,400,o),
(96,366,o),
(96,360,o),
(49,314,o),
(33,286,o),
(32,279,qs),
(26,185,o),
(29,135,o),
(41,107,o),
(119,18,o),
(166,-9,o),
(212,11,o),
(244,45,qs),
(268,71,o)
);
},
{
closed = 1;
nodes = (
(146,124,o),
(139,163,o),
(140,283,o),
(160,326,o),
(179,305,qs),
(187,297,o),
(195,277,o),
(197,239,o),
(197,154,o),
(192,118,o),
(171,104,o),
(163,104,o)
);
},
{
closed = 1;
nodes = (
(147,452,o),
(143,553,o),
(157,594,o),
(182,581,qs),
(188,578,o),
(193,565,o),
(194,528,o),
(193,445,o),
(189,418,o),
(175,409,o),
(162,410,q),
(154,418,o)
);
}
);
width = 332;
}
);
note = uni0038;
unicode = 56;
},
{
glyphname = uni0039;
layers = (
{
layerId = m01;
shapes = (
{
closed = 1;
nodes = (
(238,47,o),
(276,99,o),
(307,151,o),
(314,178,o),
(317,210,o),
(322,546,q),
(311,571,o),
(282,608,o),
(244,648,o),
(208,680,o),
(174,695,o),
(129,676,o),
(86,636,o),
(52,593,o),
(31,561,q),
(31,338,l),
(76,280,o),
(118,246,o),
(156,246,o),
(184,262,o),
(204,278,o),
(207,278,o),
(203,173,o),
(189,109,o),
(170,87,o),
(153,90,o),
(142,101,o),
(138,110,o),
(134,175,o),
(126,195,o),
(104,201,o),
(57,195,o),
(35,155,o),
(24,114,q),
(35,90,o),
(69,52,o),
(109,14,o),
(133,0,o),
(173,-5,o),
(188,3,qs),
(200,9,o)
);
},
{
closed = 1;
nodes = (
(150,323,o),
(143,380,o),
(142,444,o),
(142,503,o),
(146,564,o),
(166,593,o),
(196,573,o),
(203,557,o),
(208,416,o),
(205,350,o),
(196,317,o),
(185,305,o),
(178,301,qs),
(165,292,o)
);
}
);
width = 347;
}
);
note = uni0039;
unicode = 57;
},
{
glyphname = uni0060;
layers = (
{
layerId = m01;
shapes = (
{
closed = 1;
nodes = (
(150,466,o),
(107,547,l),
(94,564,o),
(63,564,o),
(34,542,o),
(24,521,o),
(34,506,o),
(80,477,o),
(133,450,o),
(164,442,o)
);
}
);
width = 180;
}
);
note = uni0060;
unicode = 96;
},
{
glyphname = uni00A8;
layers = (
{
layerId = m01;
shapes = (
{
closed = 1;
nodes = (
(214,182,o),
(233,206,o),
(240,228,o),
(222,261,o),
(196,287,o),
(188,287,q),
(152,259,o),
(138,225,o),
(155,195,o),
(184,166,o),
(194,166,o)
);
},
{
closed = 1;
nodes = (
(101,194,o),
(122,224,o),
(120,229,q),
(119,236,o),
(99,264,o),
(77,287,o),
(67,287,o),
(43,265,o),
(24,237,o),
(24,219,o),
(45,190,o),
(68,167,o),
(75,167,o)
);
}
);
width = 262;
}
);
note = uni00A8;
unicode = 168;
},
{
glyphname = uni00AF;
layers = (
{
layerId = m01;
shapes = (
{
closed = 1;
nodes = (
(218,205,o),
(220,228,qs),
(220,242,o),
(217,251,q),
(178,253,o),
(26,254,q),
(24,195,l),
(216,195,l)
);
}
);
width = 244;
}
);
note = uni00AF;
unicode = 175;
},
{
glyphname = uni00B4;
layers = (
{
layerId = m01;
shapes = (
{
closed = 1;
nodes = (
(90,192,o),
(137,218,o),
(159,235,o),
(158,249,o),
(140,279,o),
(110,289,o),
(82,281,o),
(65,262,o),
(50,222,o),
(24,172,o),
(29,163,o),
(43,165,q),
(57,170,o)
);
}
);
width = 181;
}
);
note = uni00B4;
unicode = 180;
},
{
glyphname = uni00B8;
layers = (
{
layerId = m01;
shapes = (
{
closed = 1;
nodes = (
(72,122,q),
(96,170,o),
(113,215,o),
(125,254,o),
(126,280,o),
(104,316,o),
(79,341,o),
(70,341,o),
(45,318,o),
(24,284,o),
(24,250,o),
(62,194,o),
(62,168,o),
(44,135,o),
(32,112,o),
(40,110,qs),
(59,105,o)
);
}
);
width = 150;
}
);
note = uni00B8;
unicode = 184;
},
{
glyphname = uni02C6;
layers = (
{
anchors = (
{
name = top;
pos = (106,583);
},
{
name = top_;
pos = (106,583);
},
{
name = top__;
pos = (106,583);
},
{
name = top___;
pos = (106,583);
},
{
name = top____;
pos = (106,583);
},
{
name = top_____;
pos = (106,583);
},
{
name = top______;
pos = (106,583);
},
{
name = top_______;
pos = (106,583);
},
{
name = top________;
pos = (106,583);
},
{
name = top_________;
pos = (106,583);
},
{
name = top__________;
pos = (106,583);
}
);
layerId = m01;
shapes = (
{
closed = 1;
nodes = (
(175,469,o),
(189,496,q),
(168,513,ls),
(156,521,o),
(140,537,q),
(133,547,o),
(110,563,o),
(102,563,o),
(91,557,o),
(24,495,o),
(25,493,qs),
(41,459,o),
(55,445,q),
(76,460,o),
(88,479,o),
(103,493,o),
(120,480,o),
(154,443,o),
(160,443,o)
);
}
);
width = 213;
}
);
note = uni02C6;
unicode = 710;
},
{
glyphname = uni02C7;
layers = (
{
anchors = (
{
name = top;
pos = (110,586);
},
{
name = top_;
pos = (110,586);
},
{
name = top__;
pos = (110,586);
},
{
name = top___;
pos = (110,586);
},
{
name = top____;
pos = (110,586);
},
{
name = top_____;
pos = (110,586);
},
{
name = top______;
pos = (110,586);
},
{
name = top_______;
pos = (110,586);
},
{
name = top________;
pos = (110,586);
},
{
name = top_________;
pos = (110,586);
},
{
name = top__________;
pos = (110,586);
}
);
layerId = m01;
shapes = (
{
closed = 1;
nodes = (
(129,448,o),
(154,485,qs),
(183,529,o),
(194,555,o),
(186,559,qs),
(173,566,o),
(148,546,o),
(127,513,o),
(113,487,o),
(106,487,o),
(98,513,o),
(59,562,o),
(26,562,o),
(26,553,q),
(33,533,l),
(104,426,l),
(108,423,o)
);
}
);
width = 219;
}
);
note = uni02C7;
unicode = 711;
},
{
glyphname = uni02D9;
layers = (
{
layerId = m01;
shapes = (
{
closed = 1;
nodes = (
(69,193,qs),
(79,202,o),
(85,212,qs),
(89,220,o),
(89,225,o),
(82,239,o),
(59,265,o),
(56,265,q),
(42,255,l),
(15,230,o),
(42,188,o),
(60,184,o)
);
}
);
width = 113;
}
);
note = uni02D9;
unicode = 729;
},
{
glyphname = uni02DA;
layers = (
{
layerId = m01;
shapes = (
{
closed = 1;
nodes = (
(135,205,o),
(129,259,o),
(108,274,qs),
(103,278,o),
(66,282,o),
(50,276,o),
(29,255,o),
(27,247,qs),
(18,216,o),
(52,169,o),
(83,169,qs),
(103,168,o)
);
},
{
closed = 1;
nodes = (
(64,210,o),
(64,226,qs),
(64,254,o),
(84,247,qs),
(88,245,o),
(94,231,o),
(94,215,o),
(79,199,o)
);
}
);
width = 157;
}
);
note = uni02DA;
unicode = 730;
},
{
glyphname = uni02DB;
layers = (
{
layerId = m01;
shapes = (
{
closed = 1;
nodes = (
(75,113,o),
(97,154,o),
(123,225,o),
(133,258,o),
(132,288,o),
(109,324,o),
(83,349,o),
(79,349,q),
(55,332,o),
(32,302,o),
(21,265,o),
(37,230,o),
(61,198,o),
(69,180,o),
(55,144,o),
(38,112,o),
(38,102,o),
(58,100,o)
);
}
);
width = 156;
}
);
note = uni02DB;
unicode = 731;
},
{
glyphname = uni02DC;
layers = (
{
layerId = m01;
shapes = (
{
closed = 1;
nodes = (
(78,181,o),
(81,201,o),
(92,211,o),
(154,169,o),
(184,169,o),
(216,197,o),
(237,238,o),
(238,276,o),
(212,289,o),
(197,278,o),
(178,243,o),
(172,243,q),
(127,264,o),
(92,277,o),
(70,268,o),
(31,229,o),
(26,188,o),
(47,164,o),
(71,164,o)
);
}
);
width = 257;
}
);
note = uni02DC;
unicode = 732;
},
{
glyphname = uni02DD;
layers = (
{
layerId = m01;
shapes = (
{
closed = 1;
nodes = (
(47,181,qs),
(92,214,o),
(116,233,o),
(121,242,o),
(117,262,o),
(101,278,o),
(68,278,o),
(56,271,o),
(43,241,o),
(24,177,q),
(24,164,o)
);
},
{
closed = 1;
nodes = (
(159,194,o),
(185,212,qs),
(203,225,o),
(216,239,o),
(216,245,qs),
(216,261,o),
(189,283,o),
(166,278,o),
(147,260,o),
(143,251,q),
(121,177,o),
(121,168,o),
(134,172,o)
);
}
);
width = 241;
}
);
note = uni02DD;
unicode = 733;
},
{
glyphname = uni0300;
layers = (
{
anchors = (
{
name = _top;
pos = (91,165);
}
);
layerId = m01;
shapes = (
{
closed = 1;
nodes = (
(159,165,o),
(155,179,o),
(111,261,o),
(94,285,o),
(63,285,o),
(34,263,o),
(26,247,qs),
(24,242,o),
(34,227,o),
(72,203,o),
(138,168,o)
);
}
);
width = 0;
}
);
note = uni0300;
unicode = 768;
},
{
glyphname = uni0301;
layers = (
{
anchors = (
{
name = _top;
pos = (91,163);
}
);
layerId = m01;
shapes = (
{
closed = 1;
nodes = (
(90,192,o),
(137,218,o),
(159,235,o),
(158,249,o),
(140,279,o),
(110,289,o),
(82,281,o),
(65,262,o),
(50,222,o),
(24,172,o),
(29,163,o),
(43,165,q),
(57,170,o)
);
}
);
width = 0;
}
);
note = uni0301;
unicode = 769;
},
{
glyphname = uni0302;
layers = (
{
anchors = (
{
name = _top;
pos = (106,166);
}
);
layerId = m01;
shapes = (
{
closed = 1;
nodes = (
(175,192,o),
(189,219,q),
(168,236,ls),
(156,244,o),
(140,260,q),
(133,270,o),
(110,286,o),
(102,286,o),
(91,280,o),
(24,218,o),
(25,216,qs),
(41,182,o),
(55,168,q),
(76,183,o),
(88,202,o),
(103,216,o),
(120,203,o),
(154,166,o),
(160,166,o)
);
}
);
width = 0;
}
);
note = uni0302;
unicode = 770;
},
{
glyphname = uni0303;
layers = (
{
anchors = (
{
name = _top;
pos = (132,164);
}
);
layerId = m01;
shapes = (
{
closed = 1;
nodes = (
(78,181,o),
(81,201,o),
(92,211,o),
(154,169,o),
(184,169,o),
(216,197,o),
(237,238,o),
(238,276,o),
(212,289,o),
(197,278,o),
(178,243,o),
(172,243,q),
(127,264,o),
(92,277,o),
(70,268,o),
(31,229,o),
(26,188,o),
(47,164,o),
(71,164,o)
);
}
);
width = 0;
}
);
note = uni0303;
unicode = 771;
},
{
glyphname = uni0304;
layers = (
{
anchors = (
{
name = _top;
pos = (122,195);
}
);
layerId = m01;
shapes = (
{
closed = 1;
nodes = (
(218,205,o),
(220,228,qs),
(220,242,o),
(217,251,q),
(178,253,o),
(26,254,q),
(24,195,l),
(216,195,l)
);
}
);
width = 0;
}
);
note = uni0304;
unicode = 772;
},
{
glyphname = uni0307;
layers = (
{
anchors = (
{
name = _top;
pos = (52,184);
}
);
layerId = m01;
shapes = (
{
closed = 1;
nodes = (
(69,193,qs),
(79,202,o),
(85,212,qs),
(89,220,o),
(89,225,o),
(82,239,o),
(59,265,o),
(56,265,q),
(42,255,l),
(15,230,o),
(42,188,o),
(60,184,o)
);
}
);
width = 0;
}
);
note = uni0307;
unicode = 775;
},
{
glyphname = uni0308;
layers = (
{
anchors = (
{
name = _top;
pos = (132,166);
}
);
layerId = m01;
shapes = (
{
closed = 1;
nodes = (
(214,182,o),
(233,206,o),
(240,228,o),
(222,261,o),
(196,287,o),
(188,287,q),
(152,259,o),
(138,225,o),
(155,195,o),
(184,166,o),
(194,166,o)
);
},
{
closed = 1;
nodes = (
(101,194,o),
(122,224,o),
(120,229,q),
(119,236,o),
(99,264,o),
(77,287,o),
(67,287,o),
(43,265,o),
(24,237,o),
(24,219,o),
(45,190,o),
(68,167,o),
(75,167,o)
);
}
);
width = 0;
}
);
note = uni0308;
unicode = 776;
},
{
glyphname = uni030A;
layers = (
{
anchors = (
{
name = _top;
pos = (76,168);
}
);
layerId = m01;
shapes = (
{
closed = 1;
nodes = (
(135,205,o),
(129,259,o),
(108,274,qs),
(103,278,o),
(66,282,o),
(50,276,o),
(29,255,o),
(27,247,qs),
(18,216,o),
(52,169,o),
(83,169,qs),
(103,168,o)
);
},
{
closed = 1;
nodes = (
(64,210,o),
(64,226,qs),
(64,254,o),
(84,247,qs),
(88,245,o),
(94,231,o),
(94,215,o),
(79,199,o)
);
}
);
width = 0;
}
);
note = uni030A;
unicode = 778;
},
{
glyphname = uni030B;
layers = (
{
anchors = (
{
name = _top;
pos = (120,164);
}
);
layerId = m01;
shapes = (
{
closed = 1;
nodes = (
(47,181,qs),
(92,214,o),
(116,233,o),
(121,242,o),
(117,262,o),
(101,278,o),
(68,278,o),
(56,271,o),
(43,241,o),
(24,177,q),
(24,164,o)
);
},
{
closed = 1;
nodes = (
(159,194,o),
(185,212,qs),
(203,225,o),
(216,239,o),
(216,245,qs),
(216,261,o),
(189,283,o),
(166,278,o),
(147,260,o),
(143,251,q),
(121,177,o),
(121,168,o),
(134,172,o)
);
}
);
width = 0;
}
);
note = uni030B;
unicode = 779;
},
{
glyphname = uni030C;
layers = (
{
anchors = (
{
name = _top;
pos = (110,155);
}
);
layerId = m01;
shapes = (
{
closed = 1;
nodes = (
(135,188,o),
(183,262,o),
(194,288,o),
(173,298,o),
(148,279,o),
(113,220,o),
(108,220,o),
(93,249,o),
(70,283,o),
(37,297,o),
(26,291,o),
(26,278,o),
(49,238,o),
(104,159,q),
(109,155,o)
);
}
);
width = 0;
}
);
note = uni030C;
unicode = 780;
},
{
glyphname = uni0326;
layers = (
{
layerId = m01;
shapes = (
{
closed = 1;
nodes = (
(72,170,o),
(88,212,o),
(98,249,q),
(99,267,o),
(82,295,o),
(62,311,o),
(58,311,o),
(39,294,o),
(24,269,o),
(24,244,o),
(51,200,o),
(51,181,o),
(33,149,o),
(33,139,o),
(53,139,o)
);
}
);
width = 0;
}
);
note = uni0326;
unicode = 806;
},
{
glyphname = uni0327;
layers = (
{
layerId = m01;
shapes = (
{
closed = 1;
nodes = (
(72,122,q),
(96,170,o),
(113,215,o),
(125,254,o),
(126,280,o),
(104,316,o),
(79,341,o),
(70,341,o),
(45,318,o),
(24,284,o),
(24,250,o),
(62,194,o),
(62,168,o),
(44,135,o),
(32,112,o),
(40,110,qs),
(59,105,o)
);
}
);
width = 0;
}
);
note = uni0327;
unicode = 807;
},
{
glyphname = uni0328;
layers = (
{
layerId = m01;
shapes = (
{
closed = 1;
nodes = (
(75,113,o),
(97,154,o),
(123,225,o),
(133,258,o),
(132,288,o),
(109,324,o),
(83,349,o),
(79,349,q),
(55,332,o),
(32,302,o),
(21,265,o),
(37,230,o),
(61,198,o),
(69,180,o),
(55,144,o),
(38,112,o),
(38,102,o),
(58,100,o)
);
}
);
width = 0;
}
);
note = uni0328;
unicode = 808;
},
{
glyphname = uni0041;
layers = (
{
anchors = (
{
name = top;
pos = (221,709);
},
{
name = top_;
pos = (221,709);
},
{
name = top__;
pos = (221,709);
},
{
name = top___;
pos = (221,709);
},
{
name = top____;
pos = (221,709);
},
{
name = top_____;
pos = (221,709);
},
{
name = top______;
pos = (221,709);
},
{
name = top_______;
pos = (221,709);
},
{
name = top________;
pos = (221,709);
},
{
name = top_________;
pos = (221,709);
},
{
name = top__________;
pos = (221,709);
}
);
layerId = m01;
shapes = (
{
closed = 1;
nodes = (
(383,35,o),
(405,74,o),
(419,109,o),
(418,119,qs),
(418,122,o),
(415,129,o),
(391,177,qs),
(369,219,o),
(348,318,o),
(341,407,o),
(342,464,o),
(342,466,qs),
(346,499,o),
(369,553,o),
(369,568,o),
(362,576,o),
(295,636,o),
(283,648,qs),
(268,664,o),
(239,689,o),
(212,689,o),
(186,664,o),
(148,627,o),
(89,588,o),
(73,569,o),
(76,540,o),
(100,478,o),
(104,417,o),
(90,293,o),
(67,209,o),
(26,137,o),
(24,120,o),
(36,81,o),
(59,36,o),
(90,3,o),
(130,2,o),
(152,27,q),
(199,97,o),
(205,112,o),
(206,125,o),
(190,197,q),
(179,266,o),
(176,306,o),
(182,310,o),
(265,311,q),
(265,265,o),
(258,208,o),
(242,118,o),
(244,113,qs),
(265,66,o),
(295,21,o),
(331,-5,o),
(349,3,q),
(359,6,o)
);
},
{
closed = 1;
nodes = (
(185,371,o),
(183,378,o),
(192,460,o),
(202,533,o),
(208,565,o),
(214,571,o),
(226,571,o),
(234,562,o),
(242,521,o),
(249,466,o),
(255,373,q),
(219,370,ls),
(198,370,o)
);
}
);
width = 442;
}
);
note = uni0041;
unicode = 65;
},
{
glyphname = uni0042;
layers = (
{
anchors = (
{
name = top;
pos = (200,706);
},
{
name = top_;
pos = (200,706);
},
{
name = top__;
pos = (200,706);
},
{
name = top___;
pos = (200,706);
},
{
name = top____;
pos = (200,706);
},
{
name = top_____;
pos = (200,706);
},
{
name = top______;
pos = (200,706);
},
{
name = top_______;
pos = (200,706);
},
{
name = top________;
pos = (200,706);
},
{
name = top_________;
pos = (200,706);
},
{
name = top__________;
pos = (200,706);
}
);
layerId = m01;
shapes = (
{
closed = 1;
nodes = (
(272,2,o),
(292,30,qs),
(302,44,o),
(339,83,o),
(372,116,o),
(373,122,q),
(376,127,o),
(375,177,o),
(371,239,o),
(367,287,o),
(366,291,qs),
(359,315,o),
(326,344,o),
(288,360,o),
(261,367,o),
(261,370,qs),
(261,371,o),
(294,389,qs),
(319,401,o),
(345,422,o),
(354,455,o),
(359,513,o),
(358,566,o),
(354,576,q),
(332,609,o),
(284,671,o),
(266,686,o),
(235,676,o),
(208,650,o),
(188,623,o),
(170,592,o),
(163,584,o),
(155,615,o),
(142,659,o),
(116,684,o),
(88,668,o),
(62,631,o),
(41,588,o),
(29,557,q),
(60,493,o),
(68,461,o),
(69,351,o),
(63,228,o),
(50,180,o),
(24,136,o),
(24,126,q),
(41,83,o),
(67,39,o),
(93,6,o),
(116,2,o),
(151,37,o),
(159,76,o),
(168,83,o),
(174,75,o),
(216,11,o),
(241,1,qs),
(251,-3,o)
);
},
{
closed = 1;
nodes = (
(209,117,o),
(186,142,o),
(183,157,qs),
(177,177,o),
(172,235,o),
(171,281,o),
(171,283,qs),
(171,309,o),
(173,332,o),
(185,337,o),
(199,337,qs),
(210,337,o),
(218,335,o),
(239,317,o),
(244,308,qs),
(248,298,o),
(255,205,o),
(256,132,o),
(235,109,o)
);
},
{
closed = 1;
nodes = (
(169,402,o),
(170,450,o),
(174,533,o),
(183,553,o),
(207,579,o),
(227,561,o),
(240,515,o),
(243,459,o),
(236,409,o),
(218,385,o),
(180,376,o),
(171,378,o)
);
}
);
width = 400;
}
);
note = uni0042;
unicode = 66;
},
{
glyphname = uni0043;
layers = (
{
anchors = (
{
name = top;
pos = (187,712);
},
{
name = top_;
pos = (187,712);
},
{
name = top__;
pos = (187,712);
},
{
name = top___;
pos = (187,712);
},
{
name = top____;
pos = (187,712);
},
{
name = top_____;
pos = (187,712);
},
{
name = top______;
pos = (187,712);
},
{
name = top_______;
pos = (187,712);
},
{
name = top________;
pos = (187,712);
},
{
name = top_________;
pos = (187,712);
},
{
name = top__________;
pos = (187,712);
}
);
layerId = m01;
shapes = (
{
closed = 1;
nodes = (
(262,56,o),
(323,107,o),
(349,137,o),
(350,141,q),
(343,191,o),
(316,295,o),
(291,328,o),
(272,339,o),
(259,342,o),
(222,317,o),
(208,282,o),
(215,231,o),
(226,176,o),
(225,154,q),
(219,128,o),
(202,112,o),
(174,121,o),
(150,149,q),
(150,532,o),
(153,563,o),
(186,586,o),
(213,556,o),
(218,545,o),
(213,451,o),
(220,417,o),
(256,390,o),
(283,390,o),
(308,417,o),
(326,455,o),
(347,523,o),
(349,549,o),
(332,576,o),
(226,674,o),
(194,692,o),
(153,678,o),
(122,647,q),
(54,590,o),
(24,561,o),
(24,546,q),
(43,466,l),
(43,288,l),
(40,221,o),
(28,159,o),
(28,134,o),
(43,114,o),
(91,73,o),
(156,9,o),
(187,-7,o),
(206,4,qs),
(218,10,o)
);
}
);
width = 374;
}
);
note = uni0043;
unicode = 67;
},
{
glyphname = uni0044;
layers = (
{
anchors = (
{
name = top;
pos = (199,709);
},
{
name = top_;
pos = (199,709);
},
{
name = top__;
pos = (199,709);
},
{
name = top___;
pos = (199,709);
},
{
name = top____;
pos = (199,709);
},
{
name = top_____;
pos = (199,709);
},
{
name = top______;
pos = (199,709);
},
{
name = top_______;
pos = (199,709);
},
{
name = top________;
pos = (199,709);
},
{
name = top_________;
pos = (199,709);
},
{
name = top__________;
pos = (199,709);
}
);
layerId = m01;
shapes = (
{
closed = 1;
nodes = (
(274,17,o),
(280,25,q),
(355,105,o),
(373,128,o),
(375,147,o),
(372,165,qs),
(356,247,o),
(352,438,o),
(369,541,o),
(369,560,o),
(349,592,o),
(293,664,o),
(267,689,o),
(256,689,o),
(218,665,o),
(174,591,o),
(165,591,o),
(161,620,o),
(147,653,o),
(125,681,o),
(94,681,o),
(78,663,o),
(42,605,o),
(30,573,o),
(33,559,o),
(61,491,o),
(67,438,o),
(69,375,o),
(64,227,o),
(43,166,o),
(24,133,o),
(24,110,o),
(49,56,o),
(83,9,o),
(107,1,o),
(137,19,o),
(152,52,o),
(160,77,o),
(164,76,q),
(205,23,o),
(233,1,o),
(246,1,qs),
(255,1,o)
);
},
{
closed = 1;
nodes = (
(205,110,o),
(192,128,qs),
(185,137,o),
(177,158,o),
(174,201,o),
(173,282,o),
(173,528,q),
(191,563,o),
(210,577,o),
(212,577,q),
(230,568,o),
(240,547,o),
(245,493,o),
(246,388,o),
(242,124,q),
(239,109,o)
);
}
);
width = 399;
}
);
note = uni0044;
unicode = 68;
},
{
glyphname = uni0045;
layers = (
{
anchors = (
{
name = top;
pos = (184,711);
},
{
name = top_;
pos = (184,711);
},
{
name = top__;
pos = (184,711);
},
{
name = top___;
pos = (184,711);
},
{
name = top____;
pos = (184,711);
},
{
name = top_____;
pos = (184,711);
},
{
name = top______;
pos = (184,711);
},
{
name = top_______;
pos = (184,711);
},
{
name = top________;
pos = (184,711);
},
{
name = top_________;
pos = (184,711);
},
{
name = top__________;
pos = (184,711);
}
);
layerId = m01;
shapes = (
{
closed = 1;
nodes = (
(264,57,o),
(312,90,o),
(347,121,o),
(345,144,q),
(335,187,o),
(319,229,o),
(295,259,o),
(270,259,o),
(235,241,o),
(213,202,o),
(232,144,o),
(220,121,o),
(202,115,o),
(193,115,o),
(163,131,o),
(161,138,q),
(159,180,o),
(163,280,o),
(166,328,o),
(179,331,o),
(228,315,o),
(247,318,o),
(276,351,o),
(256,386,o),
(238,406,q),
(216,395,o),
(183,373,o),
(164,374,q),
(159,520,o),
(158,562,o),
(182,591,o),
(203,577,o),
(209,567,o),
(221,473,o),
(250,457,o),
(281,459,o),
(293,468,o),
(315,498,o),
(335,537,o),
(343,575,o),
(328,596,o),
(279,627,o),
(222,680,o),
(189,691,o),
(157,671,o),
(104,621,o),
(36,577,o),
(22,547,o),
(33,517,o),
(52,479,o),
(66,370,o),
(56,257,o),
(36,180,o),
(25,132,o),
(34,119,q),
(101,63,o),
(154,10,o),
(188,-3,o),
(202,4,qs),
(220,12,o)
);
}
);
width = 369;
}
);
note = uni0045;
unicode = 69;
},
{
glyphname = uni0046;
layers = (
{
anchors = (
{
name = top;
pos = (176,709);
},
{
name = top_;
pos = (176,709);
},
{
name = top__;
pos = (176,709);
},
{
name = top___;
pos = (176,709);
},
{
name = top____;
pos = (176,709);
},
{
name = top_____;
pos = (176,709);
},
{
name = top______;
pos = (176,709);
},
{
name = top_______;
pos = (176,709);
},
{
name = top________;
pos = (176,709);
},
{
name = top_________;
pos = (176,709);
},
{
name = top__________;
pos = (176,709);
}
);
layerId = m01;
shapes = (
{
closed = 1;
nodes = (
(186,61,o),
(208,106,o),
(207,121,qs),
(206,128,o),
(184,190,o),
(165,277,o),
(169,323,qs),
(170,332,o),
(198,323,o),
(241,304,q),
(255,319,o),
(271,347,o),
(263,381,o),
(240,404,q),
(203,384,o),
(168,368,o),
(164,378,q),
(163,413,o),
(161,463,o),
(160,515,o),
(160,543,o),
(164,578,o),
(177,585,q),
(196,581,o),
(213,556,o),
(213,501,o),
(223,484,o),
(254,467,o),
(271,468,o),
(294,497,o),
(315,537,o),
(329,572,o),
(329,586,o),
(316,603,o),
(232,680,o),
(206,689,o),
(163,661,o),
(152,630,q),
(133,664,o),
(105,680,o),
(87,668,o),
(40,594,o),
(24,558,q),
(58,481,o),
(65,454,o),
(69,313,o),
(61,227,o),
(47,180,o),
(26,136,o),
(24,114,o),
(53,42,o),
(93,2,o),
(127,0,o),
(151,14,o),
(154,17,qs),
(159,23,o)
);
}
);
width = 353;
}
);
note = uni0046;
unicode = 70;
},
{
glyphname = uni0047;
layers = (
{
anchors = (
{
name = top;
pos = (197,712);
},
{
name = top_;
pos = (197,712);
},
{
name = top__;
pos = (197,712);
},
{
name = top___;
pos = (197,712);
},
{
name = top____;
pos = (197,712);
},
{
name = top_____;
pos = (197,712);
},
{
name = top______;
pos = (197,712);
},
{
name = top_______;
pos = (197,712);
},
{
name = top________;
pos = (197,712);
},
{
name = top_________;
pos = (197,712);
},
{
name = top__________;
pos = (197,712);
}
);
layerId = m01;
shapes = (
{
closed = 1;
nodes = (
(327,33,o),
(350,74,o),
(365,106,q),
(365,109,o),
(359,126,o),
(333,193,o),
(337,270,o),
(346,303,o),
(370,341,o),
(370,359,o),
(350,383,o),
(327,409,o),
(299,432,o),
(264,428,o),
(238,408,q),
(191,380,o),
(166,358,o),
(190,329,o),
(210,324,o),
(226,318,o),
(233,295,o),
(238,240,o),
(237,178,o),
(225,126,o),
(193,116,o),
(163,143,o),
(157,168,o),
(156,208,o),
(155,267,o),
(155,325,o),
(155,472,qs),
(156,546,o),
(163,569,o),
(174,585,o),
(191,589,o),
(214,568,o),
(221,547,o),
(222,491,o),
(231,469,o),
(272,449,o),
(318,474,o),
(348,522,o),
(358,572,o),
(341,595,o),
(301,617,o),
(231,679,o),
(192,692,o),
(158,671,o),
(106,622,o),
(80,608,o),
(53,590,o),
(26,565,o),
(24,541,o),
(32,518,o),
(43,483,o),
(52,418,o),
(52,293,o),
(44,218,o),
(34,180,o),
(26,158,o),
(26,143,q),
(30,122,l),
(78,69,o),
(121,13,o),
(146,0,o),
(163,7,q),
(170,11,o),
(227,69,o),
(241,96,o),
(246,94,o),
(256,35,o),
(291,4,o),
(304,3,o)
);
}
);
width = 393;
}
);
note = uni0047;
unicode = 71;
},
{
glyphname = uni0048;
layers = (
{
anchors = (
{
name = top;
pos = (213,710);
},
{
name = top_;
pos = (213,710);
},
{
name = top__;
pos = (213,710);
},
{
name = top___;
pos = (213,710);
},
{
name = top____;
pos = (213,710);
},
{
name = top_____;
pos = (213,710);
},
{
name = top______;
pos = (213,710);
},
{
name = top_______;
pos = (213,710);
},
{
name = top________;
pos = (213,710);
},
{
name = top_________;
pos = (213,710);
},
{
name = top__________;
pos = (213,710);
}
);
layerId = m01;
shapes = (
{
closed = 1;
nodes = (
(203,110,o),
(200,135,o),
(196,145,qs),
(189,167,o),
(181,195,o),
(175,235,o),
(170,276,qs),
(167,296,o),
(165,320,o),
(169,323,qs),
(173,325,o),
(209,325,o),
(242,323,o),
(242,323,q),
(255,322,o),
(259,317,o),
(254,240,o),
(246,196,o),
(227,122,o),
(234,90,o),
(268,26,o),
(306,-1,o),
(338,8,o),
(364,36,o),
(396,99,o),
(402,120,o),
(396,140,o),
(366,197,o),
(350,297,o),
(351,377,qs),
(356,463,o),
(367,503,o),
(389,545,o),
(394,573,o),
(353,658,o),
(314,690,o),
(281,672,o),
(240,613,o),
(223,574,o),
(227,549,o),
(247,500,o),
(257,431,o),
(258,384,o),
(257,380,o),
(182,379,o),
(169,381,o),
(168,384,q),
(167,429,o),
(177,495,o),
(206,564,q),
(195,596,o),
(175,634,o),
(149,669,o),
(119,686,o),
(94,675,o),
(70,646,o),
(47,609,o),
(31,574,o),
(30,561,o),
(65,480,o),
(70,451,o),
(71,304,o),
(65,221,o),
(46,170,o),
(28,142,o),
(24,120,o),
(37,78,o),
(63,31,o),
(97,0,o),
(139,3,o),
(161,34,qs),
(187,68,o)
);
}
);
width = 424;
}
);
note = uni0048;
unicode = 72;
},
{
glyphname = uni0049;
layers = (
{
anchors = (
{
name = top;
pos = (116,706);
},
{
name = top_;
pos = (116,706);
},
{
name = top__;
pos = (116,706);
},
{
name = top___;
pos = (116,706);
},
{
name = top____;
pos = (116,706);
},
{
name = top_____;
pos = (116,706);
},
{
name = top______;
pos = (116,706);
},
{
name = top_______;
pos = (116,706);
},
{
name = top________;
pos = (116,706);
},
{
name = top_________;
pos = (116,706);
},
{
name = top__________;
pos = (116,706);
}
);
layerId = m01;
shapes = (
{
closed = 1;
nodes = (
(169,32,o),
(193,79,qs),
(202,97,o),
(208,118,o),
(203,143,o),
(195,165,qs),
(180,205,o),
(167,285,o),
(164,349,o),
(164,388,o),
(166,418,qs),
(169,466,o),
(179,514,o),
(195,550,o),
(196,573,o),
(177,612,o),
(150,655,o),
(124,686,o),
(110,686,o),
(76,649,o),
(41,593,o),
(32,565,q),
(60,477,o),
(65,438,o),
(66,389,o),
(60,249,o),
(52,207,o),
(24,129,q),
(29,113,o),
(60,50,o),
(87,12,o),
(111,0,o),
(141,0,o)
);
}
);
width = 231;
}
);
note = uni0049;
unicode = 73;
},
{
glyphname = uni004A;
layers = (
{
anchors = (
{
name = top;
pos = (190,707);
},
{
name = top_;
pos = (180,706);
},
{
name = top__;
pos = (180,706);
},
{
name = top___;
pos = (180,706);
},
{
name = top____;
pos = (180,706);
},
{
name = top_____;
pos = (180,706);
},
{
name = top______;
pos = (180,706);
},
{
name = top_______;
pos = (180,706);
},
{
name = top________;
pos = (180,706);
},
{
name = top_________;
pos = (180,706);
},
{
name = top__________;
pos = (180,706);
},
{
name = top___________;
pos = (180,706);
}
);
layerId = m01;
shapes = (
{
closed = 1;
nodes = (
(275,82,o),
(325,140,o),
(327,144,o),
(325,168,o),
(320,204,qs),
(304,313,o),
(307,455,o),
(322,527,o),
(324,531,qs),
(336,559,o),
(328,578,q),
(290,646,o),
(260,686,o),
(243,686,o),
(219,658,o),
(193,618,o),
(176,578,o),
(176,566,q),
(196,481,o),
(201,426,o),
(206,125,q),
(196,115,ls),
(182,101,o),
(153,122,o),
(145,167,o),
(153,211,o),
(149,252,o),
(117,284,o),
(103,286,o),
(72,269,o),
(45,227,o),
(30,183,o),
(24,152,o),
(24,132,o),
(49,96,o),
(115,32,o),
(158,-2,o),
(195,-1,o),
(217,18,q),
(244,47,o)
);
}
);
width = 356;
}
);
note = uni004A;
unicode = 74;
},
{
glyphname = uni004B;
layers = (
{
anchors = (
{
name = top;
pos = (212,709);
},
{
name = top_;
pos = (212,709);
},
{
name = top__;
pos = (212,709);
},
{
name = top___;
pos = (212,709);
},
{
name = top____;
pos = (212,709);
},
{
name = top_____;
pos = (212,709);
},
{
name = top______;
pos = (212,709);
},
{
name = top_______;
pos = (212,709);
},
{
name = top________;
pos = (212,709);
},
{
name = top_________;
pos = (212,709);
},
{
name = top__________;
pos = (212,709);
}
);
layerId = m01;
shapes = (
{
closed = 1;
nodes = (
(351,12,o),
(361,30,qs),
(385,73,o),
(400,116,o),
(397,134,o),
(393,141,qs),
(381,158,o),
(363,180,o),
(351,197,qs),
(345,206,o),
(321,245,o),
(301,280,o),
(301,280,q),
(279,315,o),
(235,361,o),
(235,362,q),
(271,398,o),
(305,437,o),
(384,531,o),
(395,549,o),
(392,566,q),
(362,632,o),
(349,662,o),
(333,687,o),
(308,681,o),
(261,632,o),
(241,598,o),
(236,557,o),
(235,522,qs),
(233,457,o),
(214,393,o),
(192,378,qs),
(177,368,o),
(170,378,o),
(170,415,qs),
(170,471,o),
(185,529,o),
(200,558,o),
(200,570,qs),
(200,574,o),
(184,603,o),
(148,661,o),
(125,689,o),
(100,683,o),
(73,651,o),
(50,611,o),
(30,567,o),
(39,542,o),
(56,507,o),
(69,457,o),
(76,366,o),
(65,224,o),
(55,190,o),
(24,127,q),
(30,109,o),
(64,33,o),
(97,1,o),
(124,3,o),
(136,14,q),
(181,73,o),
(201,120,q),
(192,147,o),
(175,210,o),
(167,308,o),
(172,328,o),
(199,328,o),
(224,273,o),
(234,228,o),
(240,105,q),
(276,39,o),
(308,3,o),
(327,1,qs),
(339,-1,o)
);
}
);
width = 424;
}
);
note = uni004B;
unicode = 75;
},
{
glyphname = uni004C;
layers = (
{
anchors = (
{
name = top;
pos = (191,713);
},
{
name = top_;
pos = (191,713);
},
{
name = top__;
pos = (191,713);
},
{
name = top___;
pos = (191,713);
},
{
name = top____;
pos = (191,713);
},
{
name = top_____;
pos = (191,713);
},
{
name = top______;
pos = (191,713);
},
{
name = top_______;
pos = (191,713);
},
{
name = top________;
pos = (191,713);
},
{
name = top_________;
pos = (191,713);
},
{
name = top__________;
pos = (191,713);
}
);
layerId = m01;
shapes = (
{
closed = 1;
nodes = (
(301,35,o),
(334,74,o),
(359,108,o),
(359,115,qs),
(359,116,o),
(349,156,o),
(331,208,o),
(308,248,o),
(294,248,qs),
(285,248,o),
(256,233,o),
(244,220,o),
(242,195,o),
(242,125,q),
(230,113,o),
(220,106,o),
(198,106,o),
(188,117,o),
(183,127,o),
(180,173,o),
(178,235,o),
(177,295,o),
(177,394,o),
(182,463,o),
(196,513,o),
(218,559,o),
(223,579,o),
(214,600,o),
(177,662,o),
(136,693,o),
(112,680,qs),
(103,675,o),
(78,647,o),
(54,613,o),
(39,582,o),
(39,564,o),
(61,525,o),
(76,464,o),
(78,403,o),
(78,338,o),
(74,243,o),
(61,190,o),
(46,161,o),
(31,140,o),
(24,115,o),
(37,81,o),
(56,45,o),
(87,0,o),
(115,2,o),
(136,19,o),
(148,34,o),
(162,42,o),
(186,32,o),
(236,5,o),
(261,-1,o),
(273,6,o)
);
}
);
width = 381;
}
);
note = uni004C;
unicode = 76;
},
{
glyphname = uni004D;
layers = (
{
anchors = (
{
name = top;
pos = (300,706);
},
{
name = top_;
pos = (300,706);
},
{
name = top__;
pos = (300,706);
},
{
name = top___;
pos = (300,706);
},
{
name = top____;
pos = (300,706);
},
{
name = top_____;
pos = (300,706);
},
{
name = top______;
pos = (300,706);
},
{
name = top_______;
pos = (300,706);
},
{
name = top________;
pos = (300,706);
},
{
name = top_________;
pos = (300,706);
},
{
name = top__________;
pos = (300,706);
}
);
layerId = m01;
shapes = (
{
closed = 1;
nodes = (
(530,14,o),
(541,32,qs),
(564,68,o),
(576,113,o),
(568,140,o),
(562,151,qs),
(542,183,o),
(522,265,o),
(514,344,o),
(513,405,o),
(514,446,o),
(518,480,o),
(527,507,o),
(546,545,o),
(548,564,o),
(542,575,q),
(517,609,o),
(480,653,o),
(442,686,o),
(417,686,o),
(377,652,o),
(342,608,o),
(317,567,o),
(311,556,q),
(319,535,o),
(323,522,o),
(320,474,o),
(314,428,o),
(305,392,o),
(300,392,qs),
(298,392,o),
(277,504,o),
(283,536,o),
(290,556,o),
(286,570,q),
(264,610,o),
(233,654,o),
(196,686,o),
(179,686,q),
(157,678,l),
(117,640,o),
(69,585,o),
(50,556,q),
(66,527,o),
(83,487,o),
(90,440,o),
(88,321,o),
(69,223,o),
(44,166,o),
(26,134,o),
(24,113,o),
(37,70,o),
(61,24,o),
(95,-4,o),
(139,3,o),
(188,66,o),
(204,109,o),
(201,150,o),
(189,201,o),
(183,276,o),
(180,356,o),
(181,548,o),
(184,551,qs),
(192,559,o),
(229,485,o),
(245,430,o),
(251,362,o),
(247,221,o),
(237,180,o),
(228,153,q),
(220,115,o),
(233,83,o),
(269,22,o),
(300,-3,o),
(337,26,o),
(378,101,o),
(382,128,o),
(362,191,o),
(351,262,o),
(352,372,q),
(362,447,o),
(378,501,o),
(397,543,o),
(414,559,o),
(424,541,o),
(425,340,o),
(419,233,o),
(410,176,o),
(401,148,o),
(399,114,q),
(410,78,o),
(433,34,o),
(469,0,o),
(494,0,qs),
(510,0,o)
);
}
);
width = 598;
}
);
note = uni004D;
unicode = 77;
},
{
glyphname = uni004E;
layers = (
{
anchors = (
{
name = top;
pos = (220,703);
},
{
name = top_;
pos = (220,703);
},
{
name = top__;
pos = (220,703);
},
{
name = top___;
pos = (220,703);
},
{
name = top____;
pos = (220,703);
},
{
name = top_____;
pos = (220,703);
},
{
name = top______;
pos = (220,703);
},
{
name = top_______;
pos = (220,703);
},
{
name = top________;
pos = (220,703);
},
{
name = top_________;
pos = (220,703);
},
{
name = top__________;
pos = (220,703);
}
);
layerId = m01;
shapes = (
{
closed = 1;
nodes = (
(377,28,o),
(401,67,o),
(416,104,o),
(416,114,qs),
(416,128,o),
(403,149,qs),
(390,172,o),
(375,213,o),
(369,276,o),
(367,389,o),
(371,457,o),
(384,505,o),
(396,530,qs),
(406,549,o),
(411,576,o),
(400,605,o),
(366,660,o),
(340,683,o),
(312,683,o),
(285,655,o),
(261,616,o),
(245,581,o),
(245,574,q),
(243,560,o),
(261,526,o),
(277,465,o),
(283,389,o),
(285,312,o),
(285,259,qs),
(284,223,o),
(270,248,o),
(210,470,o),
(202,514,o),
(203,534,o),
(213,555,o),
(214,570,o),
(201,594,o),
(160,657,o),
(136,680,o),
(103,680,o),
(70,646,o),
(46,600,o),
(33,565,q),
(69,473,l),
(74,403,o),
(74,296,o),
(60,215,o),
(27,136,o),
(24,110,o),
(40,62,o),
(70,17,o),
(109,-7,o),
(139,9,o),
(166,38,o),
(191,77,o),
(204,115,o),
(198,139,o),
(170,202,o),
(162,274,o),
(158,360,o),
(159,491,q),
(169,470,l),
(235,220,l),
(238,137,o),
(242,103,o),
(259,64,o),
(287,26,o),
(321,0,o),
(339,0,qs),
(351,0,o)
);
}
);
width = 440;
}
);
note = uni004E;
unicode = 78;
},
{
glyphname = uni004F;
layers = (
{
anchors = (
{
name = top;
pos = (184,710);
},
{
name = top_;
pos = (184,710);
},
{
name = top__;
pos = (184,710);
},
{
name = top___;
pos = (184,710);
},
{
name = top____;
pos = (184,710);
},
{
name = top_____;
pos = (184,710);
},
{
name = top______;
pos = (184,710);
},
{
name = top_______;
pos = (184,710);
},
{
name = top________;
pos = (184,710);
},
{
name = top_________;
pos = (184,710);
},
{
name = top__________;
pos = (184,710);
}
);
layerId = m01;
shapes = (
{
closed = 1;
nodes = (
(221,15,o),
(244,38,qs),
(253,47,o),
(283,74,o),
(295,84,qs),
(322,107,o),
(346,134,o),
(349,148,o),
(345,185,o),
(341,209,qs),
(326,296,o),
(327,437,o),
(342,503,qs),
(350,536,o),
(348,557,o),
(338,568,q),
(334,574,o),
(313,592,o),
(217,678,o),
(183,690,o),
(157,676,o),
(116,638,qs),
(28,561,l),
(18,546,o),
(33,485,qs),
(44,428,o),
(47,386,o),
(45,304,o),
(36,220,o),
(23,160,o),
(25,138,o),
(43,117,o),
(160,4,o),
(172,0,o),
(199,0,o)
);
},
{
closed = 1;
nodes = (
(169,131,qs),
(162,138,o),
(153,150,o),
(150,181,o),
(150,358,o),
(148,495,o),
(145,527,o),
(146,539,o),
(152,551,qs),
(166,580,o),
(190,580,o),
(211,560,o),
(220,548,o),
(224,524,o),
(221,329,o),
(225,152,o),
(220,134,o),
(214,126,qs),
(196,106,o)
);
}
);
width = 374;
}
);
note = uni004F;
unicode = 79;
},
{
glyphname = uni0050;
layers = (
{
anchors = (
{
name = top;
pos = (189,706);
},
{
name = top_;
pos = (189,706);
},
{
name = top__;
pos = (189,706);
},
{
name = top___;
pos = (189,706);
},
{
name = top____;
pos = (189,706);
},
{
name = top_____;
pos = (189,706);
},
{
name = top______;
pos = (189,706);
},
{
name = top_______;
pos = (189,706);
},
{
name = top________;
pos = (189,706);
},
{
name = top_________;
pos = (189,706);
},
{
name = top__________;
pos = (189,706);
}
);
layerId = m01;
shapes = (
{
closed = 1;
nodes = (
(170,36,o),
(187,67,o),
(198,90,o),
(198,91,q),
(207,111,o),
(206,136,o),
(195,158,qs),
(181,190,o),
(168,251,o),
(166,292,o),
(166,292,q),
(181,287,o),
(221,267,o),
(242,263,o),
(259,275,o),
(291,304,o),
(325,338,o),
(350,365,o),
(352,371,o),
(355,473,qs),
(355,555,o),
(350,578,o),
(332,604,o),
(291,657,o),
(264,686,o),
(250,686,q),
(220,671,o),
(189,634,o),
(164,602,q),
(144,656,o),
(125,679,o),
(103,679,o),
(90,671,o),
(64,634,o),
(33,574,o),
(33,561,o),
(61,488,q),
(65,469,o),
(68,418,o),
(65,274,o),
(54,204,o),
(42,166,o),
(24,133,o),
(25,121,q),
(39,80,o),
(60,42,o),
(82,12,o),
(102,2,o),
(129,0,o),
(149,9,o)
);
},
{
closed = 1;
nodes = (
(166,353,o),
(166,372,qs),
(168,443,o),
(174,559,o),
(192,583,o),
(211,580,o),
(215,577,qs),
(232,565,o),
(237,513,o),
(237,380,o),
(227,321,o),
(174,326,o)
);
}
);
width = 379;
}
);
note = uni0050;
unicode = 80;
},
{
glyphname = uni0051;
layers = (
{
anchors = (
{
name = top;
pos = (201,711);
},
{
name = top_;
pos = (201,711);
},
{
name = top__;
pos = (201,711);
},
{
name = top___;
pos = (201,711);
},
{
name = top____;
pos = (201,711);
},
{
name = top_____;
pos = (201,711);
},
{
name = top______;
pos = (201,711);
},
{
name = top_______;
pos = (201,711);
},
{
name = top________;
pos = (201,711);
},
{
name = top_________;
pos = (201,711);
},
{
name = top__________;
pos = (201,711);
}
);
layerId = m01;
shapes = (
{
closed = 1;
nodes = (
(380,54,o),
(373,82,o),
(349,73,o),
(317,74,o),
(292,81,o),
(292,87,q),
(311,110,o),
(347,152,o),
(347,170,o),
(327,282,o),
(324,402,o),
(335,486,o),
(348,537,o),
(348,558,o),
(332,578,o),
(305,600,qs),
(219,677,o),
(184,691,o),
(150,669,o),
(113,631,o),
(40,575,o),
(24,556,o),
(24,529,o),
(44,429,o),
(44,298,o),
(33,206,o),
(23,162,o),
(37,136,o),
(69,102,o),
(104,28,o),
(152,0,o),
(197,8,o),
(234,33,o),
(244,41,q),
(278,10,o),
(310,-10,o),
(331,-12,o),
(343,-3,qs),
(363,12,o)
);
},
{
closed = 1;
nodes = (
(131,127,o),
(153,127,o),
(172,126,o),
(194,103,o),
(203,81,o),
(203,73,o),
(182,55,o),
(152,45,o),
(123,53,o),
(103,95,o)
);
},
{
closed = 1;
nodes = (
(149,428,o),
(149,472,o),
(151,557,o),
(168,575,o),
(185,580,o),
(194,579,o),
(221,547,o),
(222,530,q),
(218,366,o),
(224,200,o),
(220,165,q),
(152,182,l)
);
}
);
width = 402;
}
);
note = uni0051;
unicode = 81;
},
{
glyphname = uni0052;
layers = (
{
anchors = (
{
name = top;
pos = (213,705);
},
{
name = top_;
pos = (213,705);
},
{
name = top__;
pos = (213,705);
},
{
name = top___;
pos = (213,705);
},
{
name = top____;
pos = (213,705);
},
{
name = top_____;
pos = (213,705);
},
{
name = top______;
pos = (213,705);
},
{
name = top_______;
pos = (213,705);
},
{
name = top________;
pos = (213,705);
},
{
name = top_________;
pos = (213,705);
},
{
name = top__________;
pos = (213,705);
}
);
layerId = m01;
shapes = (
{
closed = 1;
nodes = (
(335,-2,o),
(362,25,o),
(394,89,o),
(402,121,o),
(394,132,qs),
(377,155,o),
(355,191,o),
(344,268,o),
(322,328,o),
(285,347,o),
(254,353,o),
(254,360,qs),
(254,363,o),
(318,393,o),
(347,422,o),
(354,465,o),
(357,537,o),
(353,575,o),
(336,607,o),
(293,664,o),
(264,685,o),
(246,681,o),
(217,663,o),
(188,621,o),
(173,589,o),
(167,589,o),
(153,634,o),
(121,678,o),
(98,677,o),
(72,647,o),
(49,607,o),
(27,560,o),
(36,539,o),
(54,515,o),
(70,476,o),
(70,317,o),
(67,248,o),
(52,190,o),
(24,132,o),
(27,103,o),
(43,69,qs),
(114,-74,o),
(191,76,qs),
(203,101,o),
(203,132,o),
(181,181,q),
(168,286,o),
(169,327,o),
(174,331,o),
(208,331,o),
(231,315,o),
(245,282,o),
(249,228,o),
(247,127,o),
(258,49,o),
(297,17,qs),
(311,4,o)
);
},
{
closed = 1;
nodes = (
(168,374,o),
(166,419,o),
(168,479,o),
(173,532,o),
(181,556,o),
(201,576,o),
(205,576,q),
(229,559,o),
(238,531,o),
(241,485,o),
(240,439,o),
(233,398,o),
(205,375,o),
(173,370,o)
);
}
);
width = 423;
}
);
note = uni0052;
unicode = 82;
},
{
glyphname = uni0053;
layers = (
{
anchors = (
{
name = top;
pos = (178,711);
},
{
name = top_;
pos = (178,711);
},
{
name = top__;
pos = (178,711);
},
{
name = top___;
pos = (178,711);
},
{
name = top____;
pos = (178,711);
},
{
name = top_____;
pos = (178,711);
},
{
name = top______;
pos = (178,711);
},
{
name = top_______;
pos = (178,711);
},
{
name = top________;
pos = (178,711);
},
{
name = top_________;
pos = (178,711);
},
{
name = top__________;
pos = (178,711);
}
);
layerId = m01;
shapes = (
{
closed = 1;
nodes = (
(217,8,o),
(252,44,o),
(283,72,o),
(315,96,o),
(332,116,o),
(337,131,qs),
(344,155,o),
(336,233,o),
(317,274,o),
(300,299,o),
(268,334,o),
(215,389,o),
(187,419,o),
(172,443,o),
(152,482,o),
(144,539,o),
(158,578,o),
(189,581,o),
(204,559,qs),
(212,547,l),
(208,518,ls),
(204,487,o),
(216,452,o),
(235,438,qs),
(270,412,o),
(290,440,qs),
(295,447,o),
(316,487,o),
(335,528,o),
(337,535,qs),
(344,560,o),
(329,587,o),
(294,610,qs),
(279,619,o),
(245,645,o),
(236,655,q),
(203,682,l),
(184,691,o),
(163,680,qs),
(159,678,o),
(137,660,o),
(41,575,o),
(31,561,o),
(29,547,o),
(29,497,o),
(32,475,o),
(47,430,o),
(98,359,o),
(193,260,o),
(236,147,o),
(205,94,o),
(192,101,qs),
(168,114,o),
(156,137,q),
(150,158,o),
(154,175,q),
(157,217,l),
(153,240,o),
(133,260,o),
(88,260,o),
(63,240,o),
(49,213,qs),
(12,144,o),
(30,114,qs),
(33,110,o),
(137,14,o),
(158,1,o),
(193,-4,o)
);
}
);
width = 366;
}
);
note = uni0053;
unicode = 83;
},
{
glyphname = uni0054;
layers = (
{
anchors = (
{
name = top;
pos = (195,702);
},
{
name = top_;
pos = (195,702);
},
{
name = top__;
pos = (195,702);
},
{
name = top___;
pos = (195,702);
},
{
name = top____;
pos = (195,702);
},
{
name = top_____;
pos = (195,702);
},
{
name = top______;
pos = (195,702);
},
{
name = top_______;
pos = (195,702);
},
{
name = top________;
pos = (195,702);
},
{
name = top_________;
pos = (195,702);
},
{
name = top__________;
pos = (195,702);
}
);
layerId = m01;
shapes = (
{
closed = 1;
nodes = (
(214,-2,o),
(249,27,o),
(281,90,o),
(289,113,o),
(284,134,o),
(267,172,o),
(254,220,o),
(246,304,o),
(242,452,o),
(242,532,o),
(245,567,o),
(250,574,o),
(261,574,o),
(265,555,o),
(265,514,o),
(294,490,o),
(313,482,q),
(333,503,o),
(351,535,o),
(364,569,o),
(364,605,q),
(342,635,o),
(310,664,o),
(276,682,o),
(246,672,o),
(199,641,q),
(190,638,o),
(128,682,o),
(107,680,o),
(69,655,o),
(35,621,o),
(24,591,o),
(33,542,o),
(56,499,o),
(88,482,o),
(113,505,o),
(120,524,o),
(120,560,o),
(125,571,o),
(141,571,o),
(148,561,o),
(149,367,o),
(142,244,o),
(134,208,q),
(105,121,l),
(128,60,o),
(156,15,o),
(174,6,qs),
(185,1,o)
);
}
);
width = 387;
}
);
note = uni0054;
unicode = 84;
},
{
glyphname = uni0055;
layers = (
{
anchors = (
{
name = top;
pos = (204,711);
},
{
name = top_;
pos = (204,711);
},
{
name = top__;
pos = (204,711);
},
{
name = top___;
pos = (204,711);
},
{
name = top____;
pos = (204,711);
},
{
name = top_____;
pos = (204,711);
},
{
name = top______;
pos = (204,711);
},
{
name = top_______;
pos = (204,711);
},
{
name = top________;
pos = (204,711);
},
{
name = top_________;
pos = (204,711);
},
{
name = top__________;
pos = (204,711);
}
);
layerId = m01;
shapes = (
{
closed = 1;
nodes = (
(231,0,o),
(252,17,o),
(283,52,o),
(322,90,o),
(353,118,o),
(361,126,o),
(367,137,o),
(364,158,o),
(359,182,qs),
(345,252,o),
(341,376,o),
(346,426,qs),
(349,466,o),
(364,509,o),
(379,536,o),
(383,553,qs),
(385,563,o),
(370,607,o),
(345,653,o),
(316,686,o),
(304,686,qs),
(287,686,o),
(260,660,o),
(233,617,qs),
(221,598,o),
(213,576,o),
(217,552,o),
(224,530,qs),
(230,512,o),
(236,486,o),
(238,458,o),
(239,414,o),
(239,262,o),
(238,215,o),
(238,166,o),
(235,129,q),
(224,106,o),
(182,117,o),
(170,141,o),
(168,165,o),
(166,352,o),
(168,450,o),
(175,511,o),
(198,560,o),
(193,577,o),
(149,665,o),
(119,686,o),
(98,691,o),
(70,662,o),
(44,619,o),
(26,579,o),
(24,560,o),
(41,527,o),
(58,478,o),
(66,420,o),
(68,366,o),
(66,267,o),
(41,140,o),
(45,129,qs),
(46,125,o),
(154,16,o),
(174,1,o),
(189,-2,o),
(214,-4,o)
);
}
);
width = 407;
}
);
note = uni0055;
unicode = 85;
},
{
glyphname = uni0056;
layers = (
{
anchors = (
{
name = top;
pos = (202,718);
},
{
name = top_;
pos = (202,718);
},
{
name = top__;
pos = (202,718);
},
{
name = top___;
pos = (202,718);
},
{
name = top____;
pos = (202,718);
},
{
name = top_____;
pos = (202,718);
},
{
name = top______;
pos = (202,718);
},
{
name = top_______;
pos = (202,718);
},
{
name = top________;
pos = (202,718);
},
{
name = top_________;
pos = (202,718);
},
{
name = top__________;
pos = (202,718);
}
);
layerId = m01;
shapes = (
{
closed = 1;
nodes = (
(228,10,o),
(252,46,o),
(279,115,o),
(289,215,o),
(299,287,o),
(338,454,o),
(358,509,o),
(372,535,o),
(381,562,q),
(372,595,o),
(339,665,o),
(305,698,o),
(266,668,o),
(225,598,o),
(217,574,o),
(229,538,o),
(245,498,q),
(246,381,o),
(240,308,o),
(225,208,o),
(217,180,o),
(206,180,o),
(197,209,o),
(184,293,o),
(177,393,o),
(177,474,o),
(183,517,o),
(196,556,o),
(196,580,o),
(177,615,o),
(138,675,o),
(106,695,o),
(71,664,o),
(34,592,o),
(24,565,o),
(30,542,o),
(39,522,qs),
(99,387,o),
(125,138,qs),
(129,103,o),
(156,35,o),
(174,15,qs),
(182,6,o),
(203,2,q),
(219,2,o)
);
}
);
width = 403;
}
);
note = uni0056;
unicode = 86;
},
{
glyphname = uni0057;
layers = (
{
anchors = (
{
name = top;
pos = (286,709);
},
{
name = top_;
pos = (286,709);
},
{
name = top__;
pos = (286,709);
},
{
name = top___;
pos = (286,709);
},
{
name = top____;
pos = (286,709);
},
{
name = top_____;
pos = (286,709);
},
{
name = top______;
pos = (286,709);
},
{
name = top_______;
pos = (286,709);
},
{
name = top________;
pos = (286,709);
},
{
name = top_________;
pos = (286,709);
},
{
name = top__________;
pos = (286,709);
}
);
layerId = m01;
shapes = (
{
closed = 1;
nodes = (
(226,65,o),
(245,127,o),
(261,186,o),
(271,227,o),
(271,229,qs),
(277,261,o),
(286,275,o),
(302,217,o),
(320,142,qs),
(330,103,o),
(353,36,o),
(362,22,qs),
(377,-3,o),
(423,1,o),
(437,32,qs),
(448,60,o),
(452,94,o),
(456,162,o),
(460,223,qs),
(462,266,o),
(484,364,o),
(511,449,o),
(531,503,o),
(531,504,q),
(541,527,o),
(548,557,o),
(541,584,o),
(532,604,qs),
(512,645,o),
(487,680,o),
(472,687,o),
(466,687,qs),
(448,687,o),
(418,657,o),
(394,615,o),
(378,578,o),
(376,571,q),
(384,535,o),
(393,490,o),
(397,452,o),
(398,404,o),
(398,364,qs),
(398,286,o),
(391,206,o),
(381,177,o),
(373,176,o),
(357,225,o),
(344,296,o),
(334,380,o),
(333,422,qs),
(333,478,l),
(358,563,o),
(358,578,o),
(317,656,o),
(292,686,o),
(276,686,o),
(251,658,o),
(227,617,o),
(210,581,o),
(210,573,q),
(224,522,o),
(241,453,o),
(241,399,o),
(213,193,o),
(204,169,o),
(191,177,o),
(183,221,o),
(178,280,o),
(175,375,o),
(177,484,o),
(196,556,o),
(196,569,q),
(181,610,o),
(156,656,o),
(126,689,o),
(99,689,o),
(79,677,o),
(56,643,o),
(36,603,o),
(24,569,o),
(24,561,q),
(31,534,o),
(59,467,o),
(86,369,o),
(101,285,o),
(112,185,o),
(117,61,o),
(142,10,o),
(176,-7,o),
(194,6,qs),
(204,15,o)
);
}
);
width = 571;
}
);
note = uni0057;
unicode = 87;
},
{
glyphname = uni0058;
layers = (
{
anchors = (
{
name = top;
pos = (194,715);
},
{
name = top_;
pos = (194,715);
},
{
name = top__;
pos = (194,715);
},
{
name = top___;
pos = (194,715);
},
{
name = top____;
pos = (194,715);
},
{
name = top_____;
pos = (194,715);
},
{
name = top______;
pos = (194,715);
},
{
name = top_______;
pos = (194,715);
},
{
name = top________;
pos = (194,715);
},
{
name = top_________;
pos = (194,715);
},
{
name = top__________;
pos = (194,715);
}
);
layerId = m01;
shapes = (
{
closed = 1;
nodes = (
(330,30,o),
(353,79,o),
(365,121,o),
(363,132,o),
(343,158,o),
(338,163,qs),
(306,202,o),
(261,280,o),
(237,333,o),
(237,335,o),
(251,365,o),
(270,404,o),
(285,434,qs),
(322,504,o),
(332,518,o),
(340,528,q),
(358,559,o),
(355,575,o),
(316,657,o),
(291,690,o),
(273,688,o),
(242,655,o),
(212,612,o),
(201,578,o),
(219,538,o),
(222,495,o),
(212,417,o),
(203,389,o),
(192,389,o),
(181,410,o),
(163,485,o),
(166,534,o),
(176,563,o),
(179,588,o),
(135,670,o),
(92,695,o),
(53,633,o),
(26,565,q),
(66,503,o),
(119,399,o),
(146,335,q),
(96,235,o),
(62,180,o),
(29,138,o),
(24,119,o),
(38,73,o),
(61,24,o),
(72,11,q),
(92,-4,o),
(123,-1,o),
(166,58,o),
(177,108,o),
(156,177,o),
(164,252,o),
(182,298,o),
(188,309,o),
(197,294,o),
(217,216,o),
(220,160,o),
(209,101,o),
(214,75,o),
(242,30,o),
(278,-5,o),
(293,-5,qs),
(304,-5,o)
);
}
);
width = 386;
}
);
note = uni0058;
unicode = 88;
},
{
glyphname = uni0059;
layers = (
{
anchors = (
{
name = top;
pos = (192,712);
},
{
name = top_;
pos = (192,712);
},
{
name = top__;
pos = (192,712);
},
{
name = top___;
pos = (192,712);
},
{
name = top____;
pos = (192,712);
},
{
name = top_____;
pos = (192,712);
},
{
name = top______;
pos = (192,712);
},
{
name = top_______;
pos = (192,712);
},
{
name = top________;
pos = (192,712);
},
{
name = top_________;
pos = (192,712);
},
{
name = top__________;
pos = (192,712);
}
);
layerId = m01;
shapes = (
{
closed = 1;
nodes = (
(245,23,o),
(265,64,qs),
(277,89,o),
(286,113,o),
(281,131,o),
(260,172,o),
(248,206,o),
(244,246,o),
(244,315,o),
(246,342,o),
(265,389,o),
(291,440,o),
(317,485,o),
(351,537,o),
(361,563,o),
(352,593,o),
(323,653,o),
(305,682,o),
(293,689,o),
(289,689,qs),
(279,689,o),
(244,656,o),
(214,611,o),
(206,576,o),
(221,527,o),
(225,489,o),
(218,435,o),
(205,383,q),
(199,370,o),
(185,393,o),
(165,486,o),
(165,526,o),
(178,567,o),
(178,595,o),
(129,669,o),
(107,692,o),
(84,685,o),
(62,656,o),
(27,585,o),
(23,563,o),
(37,536,o),
(55,507,qs),
(92,442,o),
(131,359,o),
(139,334,o),
(140,247,o),
(134,202,o),
(113,156,o),
(92,119,q),
(96,102,o),
(121,45,o),
(142,13,o),
(166,0,o),
(183,-2,qs),
(211,-5,o)
);
}
);
width = 384;
}
);
note = uni0059;
unicode = 89;
},
{
glyphname = uni005A;
layers = (
{
anchors = (
{
name = top;
pos = (192,711);
},
{
name = top_;
pos = (192,711);
},
{
name = top__;
pos = (192,711);
},
{
name = top___;
pos = (192,711);
},
{
name = top____;
pos = (192,711);
},
{
name = top_____;
pos = (192,711);
},
{
name = top______;
pos = (192,711);
},
{
name = top_______;
pos = (192,711);
},
{
name = top________;
pos = (192,711);
},
{
name = top_________;
pos = (192,711);
},
{
name = top__________;
pos = (192,711);
}
);
layerId = m01;
shapes = (
{
closed = 1;
nodes = (
(108,1,o),
(130,28,o),
(148,40,o),
(185,33,o),
(221,14,qs),
(244,3,o),
(282,-7,o),
(302,11,q),
(320,32,o),
(343,63,o),
(361,93,o),
(361,110,o),
(350,138,o),
(338,163,qs),
(323,191,o),
(308,214,o),
(296,216,o),
(286,213,qs),
(264,206,o),
(246,184,o),
(246,149,qs),
(246,136,o),
(241,121,o),
(234,106,q),
(212,107,o),
(178,114,o),
(178,128,qs),
(178,137,o),
(195,193,o),
(221,269,o),
(251,350,o),
(278,421,o),
(295,467,o),
(317,519,o),
(343,567,o),
(356,586,o),
(356,593,q),
(344,624,o),
(327,659,o),
(310,686,o),
(297,691,o),
(273,677,o),
(230,640,o),
(221,641,o),
(203,652,o),
(175,673,o),
(129,689,o),
(96,689,o),
(64,665,o),
(39,632,o),
(24,602,o),
(24,591,o),
(50,528,o),
(71,499,o),
(82,494,q),
(111,492,o),
(133,513,o),
(133,561,o),
(146,579,o),
(200,581,o),
(209,571,o),
(208,556,o),
(192,505,o),
(106,271,o),
(57,152,o),
(30,115,o),
(30,93,o),
(46,51,o),
(69,8,q),
(84,-2,o)
);
}
);
width = 386;
}
);
note = uni005A;
unicode = 90;
},
{
glyphname = uni0061;
layers = (
{
anchors = (
{
name = top;
pos = (182,556);
},
{
name = top_;
pos = (182,556);
},
{
name = top__;
pos = (182,556);
},
{
name = top___;
pos = (182,556);
},
{
name = top____;
pos = (182,556);
},
{
name = top_____;
pos = (182,556);
},
{
name = top______;
pos = (182,556);
},
{
name = top_______;
pos = (182,556);
},
{
name = top________;
pos = (182,556);
},
{
name = top_________;
pos = (182,556);
},
{
name = top__________;
pos = (182,556);
}
);
layerId = m01;
shapes = (
{
closed = 1;
nodes = (
(297,20,o),
(321,48,o),
(338,71,o),
(338,74,q),
(325,95,ls),
(310,115,o),
(295,153,o),
(290,208,o),
(290,280,o),
(291,311,o),
(294,339,o),
(308,409,q),
(296,429,o),
(278,450,o),
(226,502,o),
(186,534,o),
(151,536,o),
(107,506,o),
(56,459,o),
(30,430,o),
(27,417,o),
(40,381,o),
(61,345,o),
(89,323,o),
(131,328,o),
(144,355,o),
(139,406,o),
(142,430,o),
(162,437,o),
(183,428,o),
(187,409,o),
(186,324,o),
(181,307,o),
(83,274,o),
(48,242,o),
(39,203,o),
(35,158,o),
(26,126,o),
(26,107,o),
(44,77,o),
(89,19,o),
(114,0,o),
(137,8,o),
(172,49,o),
(185,82,o),
(193,87,o),
(203,51,o),
(228,17,o),
(257,-4,o),
(273,-1,o)
);
},
{
closed = 1;
nodes = (
(138,136,o),
(136,168,o),
(136,179,qs),
(136,189,o),
(138,225,o),
(154,254,o),
(185,254,o),
(190,246,o),
(190,238,o),
(181,131,o),
(171,109,o),
(150,110,o)
);
}
);
width = 362;
}
);
note = uni0061;
unicode = 97;
},
{
glyphname = uni0062;
layers = (
{
anchors = (
{
name = top;
pos = (175,712);
},
{
name = top_;
pos = (175,712);
},
{
name = top__;
pos = (175,712);
},
{
name = top___;
pos = (175,712);
},
{
name = top____;
pos = (175,712);
},
{
name = top_____;
pos = (175,712);
},
{
name = top______;
pos = (175,712);
},
{
name = top_______;
pos = (175,712);
},
{
name = top________;
pos = (175,712);
},
{
name = top_________;
pos = (175,712);
},
{
name = top__________;
pos = (175,712);
}
);
layerId = m01;
shapes = (
{
closed = 1;
nodes = (
(152,49,o),
(157,72,o),
(165,73,o),
(173,55,o),
(221,0,o),
(253,8,o),
(280,46,qs),
(327,112,l),
(327,422,l),
(317,437,o),
(252,524,o),
(236,529,o),
(209,509,o),
(185,479,o),
(169,450,q),
(154,434,l),
(154,505,o),
(162,554,o),
(171,583,o),
(174,600,o),
(158,631,o),
(133,667,o),
(108,692,o),
(94,692,o),
(47,648,o),
(24,595,q),
(44,545,o),
(50,520,o),
(62,361,o),
(61,238,o),
(50,167,o),
(37,133,o),
(27,116,o),
(27,102,o),
(72,20,o),
(104,-4,o),
(124,10,qs),
(139,20,o)
);
},
{
closed = 1;
nodes = (
(164,162,o),
(160,234,o),
(161,297,qs),
(162,349,ls),
(163,389,o),
(189,420,o),
(190,420,q),
(207,413,o),
(214,404,o),
(217,376,o),
(218,313,o),
(217,135,o),
(212,102,o),
(201,91,o),
(178,120,o)
);
}
);
width = 353;
}
);
note = uni0062;
unicode = 98;
},
{
glyphname = uni0063;
layers = (
{
anchors = (
{
name = top;
pos = (168,555);
},
{
name = top_;
pos = (168,555);
},
{
name = top__;
pos = (168,555);
},
{
name = top___;
pos = (168,555);
},
{
name = top____;
pos = (168,555);
},
{
name = top_____;
pos = (168,555);
},
{
name = top______;
pos = (168,555);
},
{
name = top_______;
pos = (168,555);
},
{
name = top________;
pos = (168,555);
},
{
name = top_________;
pos = (168,555);
},
{
name = top__________;
pos = (168,555);
}
);
layerId = m01;
shapes = (
{
closed = 1;
nodes = (
(189,4,qs),
(191,5,o),
(215,27,o),
(250,60,o),
(285,95,o),
(309,121,o),
(310,125,qs),
(313,135,o),
(299,173,o),
(275,214,o),
(247,244,o),
(237,246,qs),
(226,247,o),
(194,226,o),
(187,199,o),
(192,165,o),
(196,131,o),
(188,109,o),
(170,109,qs),
(147,109,o),
(143,133,qs),
(142,137,o),
(142,172,o),
(141,218,o),
(142,385,o),
(144,418,o),
(155,431,o),
(179,426,o),
(199,412,o),
(200,406,q),
(195,355,ls),
(194,332,o),
(216,311,o),
(239,306,o),
(256,306,o),
(284,341,o),
(309,384,o),
(313,415,o),
(300,432,q),
(222,504,o),
(180,535,o),
(162,535,o),
(119,506,o),
(70,466,o),
(24,419,q),
(30,395,o),
(40,341,o),
(41,249,o),
(40,218,o),
(26,129,o),
(35,113,o),
(93,50,o),
(140,8,o),
(162,0,o),
(170,0,qs),
(183,0,o)
);
}
);
width = 336;
}
);
note = uni0063;
unicode = 99;
},
{
glyphname = uni0064;
layers = (
{
anchors = (
{
name = top;
pos = (175,716);
},
{
name = top_;
pos = (175,716);
},
{
name = top__;
pos = (175,716);
},
{
name = top___;
pos = (175,716);
},
{
name = top____;
pos = (175,716);
},
{
name = top_____;
pos = (175,716);
},
{
name = top______;
pos = (175,716);
},
{
name = top_______;
pos = (175,716);
},
{
name = top________;
pos = (175,716);
},
{
name = top_________;
pos = (175,716);
},
{
name = top__________;
pos = (175,716);
}
);
layerId = m01;
shapes = (
{
closed = 1;
nodes = (
(275,14,o),
(295,45,o),
(314,77,o),
(327,101,q),
(313,130,o),
(290,192,o),
(285,277,o),
(286,372,o),
(290,457,o),
(295,512,o),
(301,541,o),
(316,579,o),
(319,595,o),
(302,627,o),
(276,664,o),
(252,696,o),
(221,681,o),
(193,645,o),
(174,610,o),
(172,598,o),
(189,551,q),
(196,441,o),
(194,434,o),
(162,493,o),
(136,524,o),
(110,527,o),
(81,501,o),
(26,428,q),
(24,124,o),
(27,103,o),
(44,75,o),
(80,27,o),
(108,1,o),
(137,9,o),
(176,64,o),
(182,91,o),
(187,87,o),
(212,26,o),
(234,0,o),
(249,0,qs),
(256,0,o)
);
},
{
closed = 1;
nodes = (
(144,108,o),
(140,127,o),
(137,138,o),
(134,191,o),
(132,258,o),
(131,400,o),
(134,410,o),
(146,426,o),
(154,426,o),
(178,399,o),
(189,383,o),
(192,360,o),
(193,253,o),
(185,156,o),
(178,128,o),
(156,101,o),
(155,101,o)
);
}
);
width = 352;
}
);
note = uni0064;
unicode = 100;
},
{
glyphname = uni0065;
layers = (
{
anchors = (
{
name = top;
pos = (168,558);
},
{
name = top_;
pos = (168,558);
},
{
name = top__;
pos = (168,558);
},
{
name = top___;
pos = (168,558);
},
{
name = top____;
pos = (168,558);
},
{
name = top_____;
pos = (168,558);
},
{
name = top______;
pos = (168,558);
},
{
name = top_______;
pos = (168,558);
},
{
name = top________;
pos = (168,558);
},
{
name = top_________;
pos = (168,558);
},
{
name = top__________;
pos = (168,558);
}
);
layerId = m01;
shapes = (
{
closed = 1;
nodes = (
(234,39,o),
(280,81,o),
(313,118,o),
(313,136,o),
(295,188,o),
(267,227,o),
(225,228,o),
(192,205,o),
(192,172,o),
(202,149,o),
(202,131,qs),
(200,110,o),
(167,105,o),
(156,117,qs),
(151,123,o),
(145,136,o),
(144,165,o),
(147,273,q),
(225,272,o),
(286,278,o),
(294,286,o),
(303,327,o),
(309,380,o),
(309,424,o),
(303,431,qs),
(267,468,o),
(185,538,o),
(169,538,o),
(133,515,o),
(91,480,o),
(28,414,o),
(28,410,q),
(40,368,o),
(43,350,o),
(44,206,q),
(31,171,o),
(23,139,o),
(33,120,o),
(87,60,o),
(136,15,o),
(164,-1,o),
(183,2,o),
(192,6,qs),
(197,8,o)
);
},
{
closed = 1;
nodes = (
(145,367,ls),
(147,417,o),
(149,432,o),
(170,436,o),
(192,428,o),
(199,404,o),
(199,365,qs),
(196,321,o),
(188,317,o),
(167,317,qs),
(144,318,l)
);
}
);
width = 337;
}
);
note = uni0065;
unicode = 101;
},
{
glyphname = uni0066;
layers = (
{
anchors = (
{
name = top;
pos = (162,754);
},
{
name = top_;
pos = (162,754);
},
{
name = top__;
pos = (162,754);
},
{
name = top___;
pos = (162,754);
},
{
name = top____;
pos = (162,754);
},
{
name = top_____;
pos = (162,754);
},
{
name = top______;
pos = (162,754);
},
{
name = top_______;
pos = (162,754);
},
{
name = top________;
pos = (162,754);
},
{
name = top_________;
pos = (162,754);
},
{
name = top__________;
pos = (162,754);
}
);
layerId = m01;
shapes = (
{
closed = 1;
nodes = (
(161,10,o),
(188,59,o),
(215,111,q),
(202,144,o),
(186,189,o),
(178,232,o),
(175,293,o),
(175,342,qs),
(174,427,l),
(206,426,ls),
(231,426,o),
(241,428,o),
(245,433,qs),
(254,443,o),
(250,467,o),
(238,485,o),
(229,487,o),
(176,478,o),
(171,483,o),
(164,513,o),
(157,552,o),
(152,586,o),
(152,594,qs),
(154,611,l),
(158,624,o),
(181,629,o),
(201,612,o),
(200,593,qs),
(200,573,ls),
(199,558,o),
(216,542,o),
(237,535,o),
(251,537,o),
(271,563,o),
(288,597,o),
(299,627,o),
(299,632,qs),
(299,647,l),
(296,653,o),
(269,679,o),
(235,708,o),
(205,730,o),
(191,734,o),
(158,725,o),
(121,708,o),
(90,691,o),
(56,666,o),
(38,626,o),
(37,617,o),
(57,546,o),
(75,485,o),
(70,479,o),
(35,479,o),
(26,477,o),
(24,456,o),
(29,432,q),
(76,423,l),
(80,385,o),
(80,228,o),
(75,189,o),
(54,109,q),
(95,36,o),
(111,13,o),
(129,3,q),
(142,-1,o)
);
}
);
width = 323;
}
);
note = uni0066;
unicode = 102;
},
{
glyphname = uni0067;
layers = (
{
anchors = (
{
name = top;
pos = (186,556);
},
{
name = top_;
pos = (186,556);
},
{
name = top__;
pos = (186,556);
},
{
name = top___;
pos = (186,556);
},
{
name = top____;
pos = (186,556);
},
{
name = top_____;
pos = (186,556);
},
{
name = top______;
pos = (186,556);
},
{
name = top_______;
pos = (186,556);
},
{
name = top________;
pos = (186,556);
},
{
name = top_________;
pos = (186,556);
},
{
name = top__________;
pos = (186,556);
}
);
layerId = m01;
shapes = (
{
closed = 1;
nodes = (
(270,-68,o),
(297,-51,o),
(296,-47,q),
(296,280,ls),
(297,361,o),
(303,393,o),
(348,458,o),
(347,466,o),
(304,516,o),
(279,536,o),
(263,535,o),
(228,506,o),
(203,459,q),
(186,489,o),
(161,520,o),
(144,531,o),
(113,531,o),
(99,521,o),
(24,424,q),
(24,141,l),
(97,63,o),
(118,47,o),
(131,47,o),
(173,66,o),
(189,94,o),
(194,95,o),
(195,-11,o),
(187,-54,o),
(161,-59,o),
(152,-43,o),
(143,10,o),
(123,29,o),
(87,28,o),
(58,2,o),
(54,-58,o),
(65,-83,o),
(117,-140,o),
(164,-165,o),
(195,-148,o),
(210,-130,qs),
(230,-102,o)
);
},
{
closed = 1;
nodes = (
(133,224,o),
(134,312,qs),
(135,367,o),
(137,418,o),
(143,432,o),
(155,432,o),
(179,408,o),
(188,383,o),
(191,362,o),
(191,161,q),
(181,139,o),
(171,123,o),
(163,122,qs),
(141,118,o)
);
}
);
width = 372;
}
);
note = uni0067;
unicode = 103;
},
{
glyphname = uni0068;
layers = (
{
anchors = (
{
name = top;
pos = (180,716);
},
{
name = top_;
pos = (180,716);
},
{
name = top__;
pos = (180,716);
},
{
name = top___;
pos = (180,716);
},
{
name = top____;
pos = (180,716);
},
{
name = top_____;
pos = (180,716);
},
{
name = top______;
pos = (180,716);
},
{
name = top_______;
pos = (180,716);
},
{
name = top________;
pos = (180,716);
},
{
name = top_________;
pos = (180,716);
},
{
name = top__________;
pos = (180,716);
}
);
layerId = m01;
shapes = (
{
closed = 1;
nodes = (
(313,55,qs),
(327,80,o),
(337,103,o),
(333,119,o),
(326,134,qs),
(302,181,o),
(298,251,qs),
(295,300,o),
(310,364,o),
(327,403,o),
(327,417,o),
(301,459,qs),
(275,497,o),
(249,527,o),
(233,527,o),
(200,512,o),
(174,473,o),
(159,441,o),
(151,441,o),
(155,538,o),
(164,580,o),
(171,596,o),
(168,605,q),
(151,634,o),
(130,665,o),
(111,689,q),
(98,696,o),
(68,671,o),
(42,632,o),
(25,596,q),
(48,525,l),
(56,402,o),
(61,235,o),
(42,158,o),
(24,116,o),
(26,104,q),
(41,66,o),
(65,25,o),
(92,-1,o),
(114,10,o),
(141,48,o),
(163,95,o),
(163,112,q),
(152,193,o),
(147,249,o),
(148,360,q),
(170,407,o),
(185,412,o),
(207,376,o),
(210,323,o),
(208,257,o),
(197,139,o),
(197,99,o),
(222,40,o),
(255,0,o),
(266,0,qs),
(281,0,o)
);
}
);
width = 360;
}
);
note = uni0068;
unicode = 104;
},
{
glyphname = uni0069;
layers = (
{
anchors = (
{
name = top;
pos = (99,711);
},
{
name = top_;
pos = (99,711);
},
{
name = top__;
pos = (99,711);
},
{
name = top___;
pos = (99,711);
},
{
name = top____;
pos = (99,711);
},
{
name = top_____;
pos = (99,711);
},
{
name = top______;
pos = (99,711);
},
{
name = top_______;
pos = (99,711);
},
{
name = top________;
pos = (99,711);
},
{
name = top_________;
pos = (99,711);
},
{
name = top__________;
pos = (99,711);
}
);
layerId = m01;
shapes = (
{
closed = 1;
nodes = (
(173,94,o),
(173,104,o),
(164,129,qs),
(149,169,o),
(139,245,o),
(141,291,qs),
(143,333,o),
(153,379,o),
(164,402,o),
(172,415,o),
(172,431,o),
(137,484,qs),
(109,529,o),
(76,517,o),
(50,475,q),
(35,455,o),
(25,435,o),
(29,416,o),
(44,383,o),
(52,351,o),
(54,302,o),
(53,260,qs),
(49,178,o),
(42,148,o),
(27,113,o),
(29,91,o),
(76,7,o),
(118,-2,o),
(159,77,o)
);
},
{
closed = 1;
nodes = (
(148,589,o),
(164,618,o),
(164,629,o),
(143,658,o),
(115,685,o),
(91,691,o),
(59,666,o),
(36,631,o),
(36,617,o),
(61,567,o),
(98,544,q),
(123,557,o)
);
}
);
width = 196;
}
);
note = uni0069;
unicode = 105;
},
{
glyphname = uni006A;
layers = (
{
anchors = (
{
name = top;
pos = (154,712);
},
{
name = top_;
pos = (139,709);
},
{
name = top__;
pos = (139,709);
},
{
name = top___;
pos = (139,709);
},
{
name = top____;
pos = (139,709);
},
{
name = top_____;
pos = (139,709);
},
{
name = top______;
pos = (139,709);
},
{
name = top_______;
pos = (139,709);
},
{
name = top________;
pos = (139,709);
},
{
name = top_________;
pos = (139,709);
},
{
name = top__________;
pos = (139,709);
},
{
name = top___________;
pos = (139,709);
}
);
layerId = m01;
shapes = (
{
closed = 1;
nodes = (
(144,-138,o),
(165,-113,qs),
(173,-104,o),
(202,-78,o),
(215,-68,qs),
(234,-53,o),
(246,-41,o),
(247,-35,qs),
(247,-31,o),
(247,45,o),
(245,95,qs),
(245,128,o),
(244,201,o),
(243,266,o),
(244,285,qs),
(245,356,l),
(262,401,o),
(270,423,o),
(270,425,qs),
(270,431,o),
(252,453,o),
(231,486,qs),
(206,527,o),
(194,527,o),
(181,517,o),
(119,429,o),
(119,424,o),
(145,362,o),
(148,324,o),
(148,90,o),
(145,-44,o),
(140,-52,o),
(120,-51,o),
(117,-46,q),
(100,18,o),
(79,29,o),
(72,28,o),
(60,22,qs),
(8,-5,o),
(31,-74,qs),
(46,-119,o),
(92,-164,o),
(116,-157,qs),
(125,-154,o)
);
},
{
closed = 1;
nodes = (
(237,575,o),
(251,598,o),
(260,612,o),
(253,638,o),
(218,679,o),
(193,689,o),
(170,675,o),
(143,644,o),
(129,614,o),
(154,578,o),
(187,548,o),
(204,545,o)
);
}
);
width = 294;
}
);
note = uni006A;
unicode = 106;
},
{
glyphname = uni006B;
layers = (
{
anchors = (
{
name = top;
pos = (183,708);
},
{
name = top_;
pos = (183,708);
},
{
name = top__;
pos = (183,708);
},
{
name = top___;
pos = (183,708);
},
{
name = top____;
pos = (183,708);
},
{
name = top_____;
pos = (183,708);
},
{
name = top______;
pos = (183,708);
},
{
name = top_______;
pos = (183,708);
},
{
name = top________;
pos = (183,708);
},
{
name = top_________;
pos = (183,708);
},
{
name = top__________;
pos = (183,708);
}
);
layerId = m01;
shapes = (
{
closed = 1;
nodes = (
(145,43,o),
(164,75,o),
(166,79,qs),
(173,93,o),
(167,120,o),
(154,166,o),
(151,212,qs),
(149,247,o),
(152,262,o),
(159,259,qs),
(163,258,o),
(185,212,o),
(194,185,qs),
(201,165,o),
(201,143,o),
(197,120,o),
(200,84,o),
(220,44,o),
(250,10,o),
(280,-4,o),
(292,8,qs),
(297,13,o),
(314,41,o),
(331,73,o),
(343,100,o),
(343,103,qs),
(343,110,o),
(327,126,o),
(293,163,o),
(267,201,qs),
(252,222,o),
(222,265,o),
(201,294,o),
(201,296,o),
(211,306,o),
(279,365,qs),
(332,409,o),
(334,416,q),
(320,456,o),
(297,501,o),
(275,535,o),
(260,535,o),
(221,506,o),
(199,470,o),
(189,449,q),
(194,416,o),
(197,392,o),
(195,359,q),
(179,331,o),
(160,311,o),
(155,315,q),
(151,353,o),
(149,481,o),
(155,544,o),
(166,580,o),
(167,599,o),
(157,620,o),
(126,669,o),
(105,688,o),
(85,680,o),
(60,653,o),
(24,597,o),
(24,594,o),
(51,517,o),
(54,477,o),
(54,213,o),
(50,161,o),
(24,113,o),
(24,104,q),
(42,65,o),
(69,22,o),
(100,-4,o),
(114,5,qs),
(122,10,o)
);
}
);
width = 368;
}
);
note = uni006B;
unicode = 107;
},
{
glyphname = uni006C;
layers = (
{
anchors = (
{
name = top;
pos = (98,707);
},
{
name = top_;
pos = (98,707);
},
{
name = top__;
pos = (98,707);
},
{
name = top___;
pos = (98,707);
},
{
name = top____;
pos = (98,707);
},
{
name = top_____;
pos = (98,707);
},
{
name = top______;
pos = (98,707);
},
{
name = top_______;
pos = (98,707);
},
{
name = top________;
pos = (98,707);
},
{
name = top_________;
pos = (98,707);
},
{
name = top__________;
pos = (98,707);
}
);
layerId = m01;
shapes = (
{
closed = 1;
nodes = (
(173,96,o),
(169,118,o),
(153,152,o),
(144,199,o),
(141,284,o),
(141,362,qs),
(141,414,o),
(142,446,qs),
(142,495,o),
(149,543,o),
(158,562,o),
(166,574,o),
(167,587,qs),
(167,594,o),
(150,627,o),
(125,663,o),
(100,687,o),
(86,685,o),
(64,662,o),
(40,629,o),
(24,599,o),
(24,584,o),
(36,557,o),
(43,534,o),
(46,520,o),
(48,490,o),
(50,222,o),
(44,167,o),
(30,125,o),
(26,102,o),
(32,84,o),
(73,10,o),
(112,-7,o),
(155,61,o)
);
}
);
width = 197;
}
);
note = uni006C;
unicode = 108;
},
{
glyphname = uni006D;
layers = (
{
anchors = (
{
name = top;
pos = (260,551);
},
{
name = top_;
pos = (260,551);
},
{
name = top__;
pos = (260,551);
},
{
name = top___;
pos = (260,551);
},
{
name = top____;
pos = (260,551);
},
{
name = top_____;
pos = (260,551);
},
{
name = top______;
pos = (260,551);
},
{
name = top_______;
pos = (260,551);
},
{
name = top________;
pos = (260,551);
},
{
name = top_________;
pos = (260,551);
},
{
name = top__________;
pos = (260,551);
}
);
layerId = m01;
shapes = (
{
closed = 1;
nodes = (
(459,29,o),
(481,68,o),
(496,101,o),
(495,107,qs),
(494,115,o),
(471,147,o),
(450,214,o),
(450,275,qs),
(450,299,o),
(452,316,qs),
(455,340,o),
(474,381,o),
(491,412,o),
(491,425,o),
(468,460,o),
(437,500,o),
(409,530,o),
(397,530,o),
(369,503,o),
(339,468,o),
(317,441,o),
(316,441,q),
(278,504,o),
(259,527,o),
(244,531,o),
(215,503,o),
(163,438,o),
(162,440,qs),
(147,469,ls),
(137,489,o),
(105,530,o),
(94,530,o),
(69,500,o),
(43,461,o),
(24,430,q),
(41,397,o),
(55,368,o),
(60,357,o),
(62,350,qs),
(69,329,o),
(72,278,o),
(68,230,o),
(64,198,q),
(59,177,o),
(41,138,o),
(27,108,o),
(27,94,o),
(53,49,qs),
(68,24,o),
(96,-6,o),
(111,8,q),
(144,51,o),
(167,91,o),
(168,106,o),
(162,127,o),
(156,164,o),
(154,304,o),
(158,362,o),
(165,387,o),
(176,411,o),
(185,413,o),
(205,393,o),
(216,371,o),
(222,320,o),
(219,218,o),
(208,160,o),
(189,101,q),
(206,61,o),
(232,20,o),
(261,-5,o),
(279,5,o),
(315,57,o),
(334,94,o),
(330,114,o),
(311,174,o),
(304,246,o),
(306,338,o),
(315,369,o),
(334,404,o),
(354,418,o),
(368,395,o),
(371,324,o),
(362,164,o),
(356,91,o),
(380,38,o),
(414,-1,o),
(429,1,qs),
(436,1,o)
);
}
);
width = 520;
}
);
note = uni006D;
unicode = 109;
},
{
glyphname = uni006E;
layers = (
{
anchors = (
{
name = top;
pos = (178,556);
},
{
name = top_;
pos = (178,556);
},
{
name = top__;
pos = (178,556);
},
{
name = top___;
pos = (178,556);
},
{
name = top____;
pos = (178,556);
},
{
name = top_____;
pos = (178,556);
},
{
name = top______;
pos = (178,556);
},
{
name = top_______;
pos = (178,556);
},
{
name = top________;
pos = (178,556);
},
{
name = top_________;
pos = (178,556);
},
{
name = top__________;
pos = (178,556);
}
);
layerId = m01;
shapes = (
{
closed = 1;
nodes = (
(132,35,o),
(132,36,q),
(148,61,o),
(162,87,o),
(161,114,o),
(158,140,qs),
(151,186,o),
(145,274,o),
(148,342,o),
(154,360,qs),
(155,363,o),
(167,392,o),
(183,414,o),
(199,399,o),
(205,363,o),
(206,323,o),
(206,248,o),
(194,121,o),
(199,87,o),
(223,39,o),
(252,0,o),
(273,0,o),
(296,31,o),
(318,72,o),
(333,104,q),
(319,130,o),
(299,180,o),
(289,247,o),
(293,324,o),
(311,370,o),
(327,405,o),
(325,412,q),
(273,493,o),
(246,527,q),
(234,536,o),
(204,514,o),
(176,476,o),
(158,444,o),
(152,434,o),
(147,436,o),
(142,462,o),
(122,501,o),
(100,532,o),
(95,532,q),
(69,513,o),
(43,469,o),
(24,432,q),
(39,399,o),
(60,338,o),
(65,257,o),
(52,166,o),
(27,114,o),
(27,102,o),
(63,30,o),
(86,0,o),
(102,0,o)
);
}
);
width = 358;
}
);
note = uni006E;
unicode = 110;
},
{
glyphname = uni006F;
layers = (
{
anchors = (
{
name = top;
pos = (162,560);
},
{
name = top_;
pos = (162,560);
},
{
name = top__;
pos = (162,560);
},
{
name = top___;
pos = (162,560);
},
{
name = top____;
pos = (162,560);
},
{
name = top_____;
pos = (162,560);
},
{
name = top______;
pos = (162,560);
},
{
name = top_______;
pos = (162,560);
},
{
name = top________;
pos = (162,560);
},
{
name = top_________;
pos = (162,560);
},
{
name = top__________;
pos = (162,560);
}
);
layerId = m01;
shapes = (
{
closed = 1;
nodes = (
(213,30,qs),
(237,55,o),
(268,88,o),
(292,115,o),
(294,118,qs),
(297,123,o),
(299,157,o),
(298,201,o),
(295,261,o),
(296,316,o),
(299,374,o),
(300,415,o),
(297,422,o),
(266,454,o),
(225,494,o),
(191,526,o),
(185,530,q),
(164,540,o),
(127,519,o),
(87,479,qs),
(53,446,o),
(27,418,o),
(27,406,qs),
(28,374,o),
(31,226,o),
(24,153,o),
(26,123,o),
(41,103,o),
(139,5,o),
(153,0,o),
(164,0,qs),
(187,0,o)
);
},
{
closed = 1;
nodes = (
(155,100,o),
(133,133,q),
(133,270,ls),
(134,413,o),
(138,423,o),
(154,438,o),
(168,438,o),
(186,420,o),
(192,409,o),
(193,385,o),
(190,120,q),
(172,100,o)
);
}
);
width = 323;
}
);
note = uni006F;
unicode = 111;
},
{
glyphname = uni0070;
layers = (
{
anchors = (
{
name = top;
pos = (177,557);
},
{
name = top_;
pos = (177,557);
},
{
name = top__;
pos = (177,557);
},
{
name = top___;
pos = (177,557);
},
{
name = top____;
pos = (177,557);
},
{
name = top_____;
pos = (177,557);
},
{
name = top______;
pos = (177,557);
},
{
name = top_______;
pos = (177,557);
},
{
name = top________;
pos = (177,557);
},
{
name = top_________;
pos = (177,557);
},
{
name = top__________;
pos = (177,557);
}
);
layerId = m01;
shapes = (
{
closed = 1;
nodes = (
(157,-113,o),
(182,-70,o),
(182,-58,qs),
(182,-52,o),
(175,-28,o),
(168,-8,o),
(168,-8,q),
(148,60,o),
(144,113,o),
(144,114,q),
(147,121,o),
(170,74,o),
(209,39,qs),
(227,21,o),
(249,16,o),
(274,44,o),
(297,77,qs),
(312,98,o),
(324,119,o),
(326,142,o),
(326,166,qs),
(326,246,ls),
(326,298,o),
(327,340,qs),
(328,373,o),
(330,396,o),
(331,404,o),
(329,421,o),
(307,458,o),
(278,500,o),
(251,531,o),
(233,537,o),
(203,512,o),
(158,447,o),
(155,447,o),
(145,491,o),
(107,532,o),
(92,532,o),
(69,507,o),
(27,438,q),
(54,384,o),
(61,360,o),
(62,195,o),
(55,45,o),
(48,9,o),
(24,-26,o),
(24,-50,o),
(43,-91,o),
(72,-135,o),
(105,-162,o),
(119,-154,qs),
(126,-150,o)
);
},
{
closed = 1;
nodes = (
(198,106,o),
(179,126,o),
(167,153,o),
(162,207,o),
(162,386,q),
(173,408,o),
(187,432,o),
(193,435,o),
(216,411,q),
(216,105,l),
(207,104,o)
);
}
);
width = 356;
}
);
note = uni0070;
unicode = 112;
},
{
glyphname = uni0071;
layers = (
{
anchors = (
{
name = top;
pos = (182,564);
},
{
name = top_;
pos = (182,564);
},
{
name = top__;
pos = (182,564);
},
{
name = top___;
pos = (182,564);
},
{
name = top____;
pos = (182,564);
},
{
name = top_____;
pos = (182,564);
},
{
name = top______;
pos = (182,564);
},
{
name = top_______;
pos = (182,564);
},
{
name = top________;
pos = (182,564);
},
{
name = top_________;
pos = (182,564);
},
{
name = top__________;
pos = (182,564);
}
);
layerId = m01;
shapes = (
{
closed = 1;
nodes = (
(297,-137,o),
(311,-116,o),
(311,-114,o),
(326,-89,o),
(341,-59,o),
(341,-52,qs),
(341,-47,o),
(331,-25,o),
(326,-16,qs),
(314,6,o),
(306,30,o),
(305,47,q),
(303,57,o),
(301,119,o),
(299,273,o),
(299,362,o),
(303,402,o),
(323,437,o),
(341,463,o),
(341,470,qs),
(341,471,o),
(310,521,o),
(286,541,o),
(266,541,o),
(248,520,o),
(219,470,q),
(171,527,o),
(137,544,o),
(111,530,o),
(97,514,qs),
(26,432,l),
(26,127,l),
(77,62,o),
(108,32,o),
(122,23,o),
(160,50,o),
(178,76,o),
(196,117,o),
(202,116,o),
(200,49,o),
(192,3,o),
(179,-35,o),
(178,-55,o),
(201,-94,o),
(235,-136,o),
(269,-162,o),
(280,-158,qs),
(282,-157,o)
);
},
{
closed = 1;
nodes = (
(140,125,o),
(136,165,q),
(133,298,o),
(135,416,o),
(139,429,o),
(153,440,o),
(168,441,o),
(191,401,q),
(191,164,l),
(182,145,ls),
(166,113,o)
);
}
);
width = 366;
}
);
note = uni0071;
unicode = 113;
},
{
glyphname = uni0072;
layers = (
{
anchors = (
{
name = top;
pos = (166,557);
},
{
name = top_;
pos = (166,557);
},
{
name = top__;
pos = (166,557);
},
{
name = top___;
pos = (166,557);
},
{
name = top____;
pos = (166,557);
},
{
name = top_____;
pos = (166,557);
},
{
name = top______;
pos = (166,557);
},
{
name = top_______;
pos = (166,557);
},
{
name = top________;
pos = (166,557);
},
{
name = top_________;
pos = (166,557);
},
{
name = top__________;
pos = (166,557);
}
);
layerId = m01;
shapes = (
{
closed = 1;
nodes = (
(171,94,o),
(167,115,o),
(160,136,qs),
(140,193,o),
(136,291,o),
(146,351,o),
(152,370,o),
(177,399,o),
(181,394,q),
(187,369,l),
(191,331,o),
(214,304,o),
(235,302,o),
(246,304,o),
(271,329,o),
(293,359,o),
(308,384,q),
(278,416,o),
(257,474,o),
(243,524,o),
(228,537,o),
(206,522,o),
(182,494,o),
(148,440,q),
(126,498,o),
(108,525,o),
(87,533,o),
(66,510,o),
(24,442,o),
(24,432,o),
(43,391,o),
(52,361,o),
(55,317,o),
(54,208,o),
(49,174,o),
(27,102,q),
(58,35,o),
(97,-7,o),
(130,18,o),
(151,52,qs),
(163,72,o)
);
}
);
width = 332;
}
);
note = uni0072;
unicode = 114;
},
{
glyphname = uni0073;
layers = (
{
anchors = (
{
name = top;
pos = (160,556);
},
{
name = top_;
pos = (160,556);
},
{
name = top__;
pos = (160,556);
},
{
name = top___;
pos = (160,556);
},
{
name = top____;
pos = (160,556);
},
{
name = top_____;
pos = (160,556);
},
{
name = top______;
pos = (160,556);
},
{
name = top_______;
pos = (160,556);
},
{
name = top________;
pos = (160,556);
},
{
name = top_________;
pos = (160,556);
},
{
name = top__________;
pos = (160,556);
}
);
layerId = m01;
shapes = (
{
closed = 1;
nodes = (
(206,24,qs),
(219,39,o),
(246,62,o),
(246,62,q),
(266,80,o),
(284,101,o),
(290,117,o),
(292,129,qs),
(297,163,o),
(275,220,o),
(230,274,o),
(202,304,qs),
(172,334,o),
(145,367,o),
(137,392,o),
(139,431,o),
(152,442,o),
(171,434,o),
(180,427,q),
(181,397,o),
(186,349,o),
(215,331,o),
(245,331,o),
(272,369,o),
(289,419,o),
(292,438,q),
(263,466,o),
(220,503,o),
(178,532,o),
(154,536,o),
(117,516,o),
(78,485,o),
(48,456,o),
(39,443,o),
(31,418,o),
(31,387,o),
(46,345,o),
(62,319,o),
(170,201,o),
(188,152,o),
(185,116,o),
(175,97,o),
(163,93,o),
(142,110,o),
(137,125,o),
(138,192,q),
(127,206,o),
(111,220,o),
(78,221,o),
(54,192,o),
(28,148,o),
(23,109,o),
(49,77,o),
(129,7,o),
(146,0,o),
(157,0,qs),
(185,0,o)
);
}
);
width = 316;
}
);
note = uni0073;
unicode = 115;
},
{
glyphname = uni0074;
layers = (
{
anchors = (
{
name = top;
pos = (132,641);
},
{
name = top_;
pos = (132,641);
},
{
name = top__;
pos = (132,641);
},
{
name = top___;
pos = (132,641);
},
{
name = top____;
pos = (132,641);
},
{
name = top_____;
pos = (132,641);
},
{
name = top______;
pos = (132,641);
},
{
name = top_______;
pos = (132,641);
},
{
name = top________;
pos = (132,641);
},
{
name = top_________;
pos = (132,641);
},
{
name = top__________;
pos = (132,641);
}
);
layerId = m01;
shapes = (
{
closed = 1;
nodes = (
(170,26,o),
(191,60,o),
(206,88,o),
(208,101,o),
(194,135,o),
(184,179,o),
(180,250,o),
(177,334,o),
(177,410,o),
(179,461,o),
(184,467,o),
(229,467,o),
(240,477,o),
(242,508,o),
(237,519,o),
(212,519,o),
(184,517,q),
(177,588,o),
(162,621,o),
(155,621,qs),
(152,621,o),
(62,545,o),
(28,510,o),
(22,486,o),
(34,470,o),
(68,465,o),
(77,460,o),
(80,438,o),
(83,255,o),
(78,183,o),
(63,119,o),
(63,89,o),
(79,56,o),
(102,23,o),
(127,1,o),
(146,1,o)
);
}
);
width = 265;
}
);
note = uni0074;
unicode = 116;
},
{
glyphname = uni0075;
layers = (
{
anchors = (
{
name = top;
pos = (187,558);
},
{
name = top_;
pos = (187,558);
},
{
name = top__;
pos = (187,558);
},
{
name = top___;
pos = (187,558);
},
{
name = top____;
pos = (187,558);
},
{
name = top_____;
pos = (187,558);
},
{
name = top______;
pos = (187,558);
},
{
name = top_______;
pos = (187,558);
},
{
name = top________;
pos = (187,558);
},
{
name = top_________;
pos = (187,558);
},
{
name = top__________;
pos = (187,558);
}
);
layerId = m01;
shapes = (
{
closed = 1;
nodes = (
(314,31,o),
(335,65,o),
(350,91,o),
(350,93,q),
(322,150,o),
(312,183,o),
(308,240,o),
(309,295,o),
(314,365,o),
(336,404,o),
(340,422,qs),
(342,431,o),
(324,468,o),
(298,509,o),
(275,538,o),
(264,538,o),
(238,510,o),
(212,470,o),
(193,433,o),
(193,416,o),
(205,395,o),
(215,364,o),
(219,313,o),
(217,196,o),
(209,144,o),
(189,116,o),
(170,117,o),
(160,134,o),
(153,242,o),
(152,300,o),
(158,380,o),
(170,403,o),
(173,425,o),
(158,463,o),
(134,504,o),
(109,534,o),
(91,536,o),
(65,504,o),
(40,460,o),
(24,426,q),
(43,390,o),
(55,349,o),
(55,324,qs),
(55,164,l),
(36,102,l),
(48,77,o),
(83,23,o),
(119,-6,o),
(142,12,o),
(192,75,o),
(201,93,o),
(208,95,o),
(230,31,o),
(276,-11,o),
(293,3,qs),
(296,5,o)
);
}
);
width = 374;
}
);
note = uni0075;
unicode = 117;
},
{
glyphname = uni0076;
layers = (
{
anchors = (
{
name = top;
pos = (187,560);
},
{
name = top_;
pos = (187,560);
},
{
name = top__;
pos = (187,560);
},
{
name = top___;
pos = (187,560);
},
{
name = top____;
pos = (187,560);
},
{
name = top_____;
pos = (187,560);
},
{
name = top______;
pos = (187,560);
},
{
name = top_______;
pos = (187,560);
},
{
name = top________;
pos = (187,560);
},
{
name = top_________;
pos = (187,560);
},
{
name = top__________;
pos = (187,560);
}
);
layerId = m01;
shapes = (
{
closed = 1;
nodes = (
(236,50,o),
(264,171,o),
(274,209,qs),
(293,285,o),
(328,366,o),
(350,406,o),
(350,418,q),
(336,455,o),
(314,498,o),
(292,532,o),
(273,537,o),
(238,504,o),
(209,449,o),
(209,418,qs),
(211,362,ls),
(219,220,o),
(196,206,qs),
(184,199,o),
(171,250,o),
(170,314,o),
(178,420,q),
(178,440,o),
(124,525,o),
(95,540,o),
(66,506,o),
(45,465,qs),
(24,418,l),
(60,338,o),
(95,249,o),
(126,120,o),
(149,41,o),
(163,10,o),
(181,2,o),
(211,3,o)
);
}
);
width = 375;
}
);
note = uni0076;
unicode = 118;
},
{
glyphname = uni0077;
layers = (
{
anchors = (
{
name = top;
pos = (269,564);
},
{
name = top_;
pos = (269,564);
},
{
name = top__;
pos = (269,564);
},
{
name = top___;
pos = (269,564);
},
{
name = top____;
pos = (269,564);
},
{
name = top_____;
pos = (269,564);
},
{
name = top______;
pos = (269,564);
},
{
name = top_______;
pos = (269,564);
},
{
name = top________;
pos = (269,564);
},
{
name = top_________;
pos = (269,564);
},
{
name = top__________;
pos = (269,564);
}
);
layerId = m01;
shapes = (
{
closed = 1;
nodes = (
(421,136,qs),
(431,211,o),
(476,318,o),
(514,386,o),
(514,403,qs),
(514,410,o),
(503,438,o),
(492,463,qs),
(461,524,o),
(419,544,o),
(385,487,qs),
(363,448,o),
(360,394,o),
(367,361,qs),
(371,342,o),
(372,281,o),
(368,230,o),
(365,192,o),
(355,173,o),
(346,180,o),
(336,221,o),
(326,290,o),
(325,338,o),
(338,389,o),
(339,421,o),
(324,464,o),
(301,506,o),
(277,535,o),
(262,535,o),
(237,502,o),
(212,455,o),
(199,417,o),
(206,379,o),
(218,340,o),
(218,306,o),
(203,198,o),
(194,171,o),
(188,173,o),
(175,198,o),
(171,260,o),
(175,348,o),
(185,398,o),
(184,423,o),
(150,501,o),
(114,542,o),
(84,532,o),
(55,483,o),
(29,426,o),
(24,404,o),
(36,372,o),
(72,296,o),
(96,233,o),
(130,56,o),
(147,9,o),
(194,-11,o),
(227,70,o),
(262,236,o),
(269,237,qs),
(273,237,o),
(307,71,o),
(327,17,o),
(356,-9,o),
(376,2,qs),
(403,18,o)
);
}
);
width = 538;
}
);
note = uni0077;
unicode = 119;
},
{
glyphname = uni0078;
layers = (
{
anchors = (
{
name = top;
pos = (169,559);
},
{
name = top_;
pos = (169,559);
},
{
name = top__;
pos = (169,559);
},
{
name = top___;
pos = (169,559);
},
{
name = top____;
pos = (169,559);
},
{
name = top_____;
pos = (169,559);
},
{
name = top______;
pos = (169,559);
},
{
name = top_______;
pos = (169,559);
},
{
name = top________;
pos = (169,559);
},
{
name = top_________;
pos = (169,559);
},
{
name = top__________;
pos = (169,559);
}
);
layerId = m01;
shapes = (
{
closed = 1;
nodes = (
(113,14,o),
(129,40,o),
(140,61,qs),
(149,80,o),
(141,136,o),
(143,168,qs),
(144,177,o),
(151,209,o),
(161,233,o),
(171,233,o),
(179,180,o),
(183,118,o),
(189,72,o),
(216,23,o),
(245,-6,o),
(253,-6,qs),
(270,-6,o),
(307,73,qs),
(313,88,o),
(315,104,o),
(303,122,o),
(287,141,qs),
(252,187,o),
(225,230,o),
(206,265,o),
(206,271,q),
(225,316,o),
(262,375,o),
(302,424,o),
(302,436,o),
(271,498,o),
(249,533,o),
(239,539,o),
(214,523,o),
(187,491,o),
(176,458,o),
(176,446,o),
(192,381,q),
(180,330,o),
(173,324,o),
(164,333,o),
(154,381,o),
(152,435,o),
(147,470,o),
(124,507,o),
(98,535,o),
(86,535,o),
(66,508,o),
(31,439,o),
(31,428,o),
(41,410,o),
(65,377,q),
(105,314,o),
(128,272,o),
(124,259,o),
(86,183,o),
(45,133,o),
(23,113,o),
(25,103,q),
(41,57,o),
(60,20,o),
(81,-6,o),
(96,-6,o)
);
}
);
width = 339;
}
);
note = uni0078;
unicode = 120;
},
{
glyphname = uni0079;
layers = (
{
anchors = (
{
name = top;
pos = (201,557);
},
{
name = top_;
pos = (201,557);
},
{
name = top__;
pos = (201,557);
},
{
name = top___;
pos = (201,557);
},
{
name = top____;
pos = (201,557);
},
{
name = top_____;
pos = (201,557);
},
{
name = top______;
pos = (201,557);
},
{
name = top_______;
pos = (201,557);
},
{
name = top________;
pos = (201,557);
},
{
name = top_________;
pos = (201,557);
},
{
name = top__________;
pos = (201,557);
}
);
layerId = m01;
shapes = (
{
closed = 1;
nodes = (
(198,-89,o),
(219,-75,qs),
(239,-61,o),
(255,-45,o),
(258,-16,o),
(258,15,qs),
(261,87,o),
(274,156,o),
(294,229,o),
(320,294,o),
(375,405,q),
(364,439,o),
(335,495,o),
(310,529,o),
(298,535,o),
(274,514,o),
(250,480,o),
(232,448,o),
(224,425,o),
(229,377,o),
(236,318,o),
(235,257,o),
(217,207,o),
(203,212,o),
(192,262,o),
(190,294,o),
(190,355,o),
(192,425,o),
(174,466,o),
(149,505,o),
(125,532,q),
(118,537,o),
(92,508,o),
(65,462,o),
(47,420,o),
(50,396,o),
(101,293,o),
(130,197,o),
(163,44,o),
(160,-15,o),
(150,-44,q),
(138,-57,o),
(128,-39,o),
(120,-4,o),
(105,27,o),
(88,27,qs),
(59,27,o),
(27,-43,o),
(35,-71,o),
(86,-150,o),
(124,-168,o),
(146,-143,qs),
(165,-122,o)
);
}
);
width = 392;
}
);
note = uni0079;
unicode = 121;
},
{
glyphname = uni007A;
layers = (
{
anchors = (
{
name = top;
pos = (173,554);
},
{
name = top_;
pos = (173,554);
},
{
name = top__;
pos = (173,554);
},
{
name = top___;
pos = (173,554);
},
{
name = top____;
pos = (173,554);
},
{
name = top_____;
pos = (173,554);
},
{
name = top______;
pos = (173,554);
},
{
name = top_______;
pos = (173,554);
},
{
name = top________;
pos = (173,554);
},
{
name = top_________;
pos = (173,554);
},
{
name = top__________;
pos = (173,554);
}
);
layerId = m01;
shapes = (
{
closed = 1;
nodes = (
(277,25,o),
(304,59,o),
(322,88,o),
(322,94,q),
(317,114,l),
(299,162,o),
(275,200,o),
(259,205,o),
(252,203,qs),
(226,196,o),
(218,160,o),
(218,130,o),
(212,104,o),
(183,104,o),
(162,111,o),
(159,123,o),
(175,171,o),
(203,240,o),
(238,315,o),
(274,380,o),
(301,416,o),
(309,434,o),
(302,457,o),
(270,527,o),
(247,532,o),
(213,484,o),
(200,473,o),
(182,484,o),
(141,520,o),
(117,534,o),
(87,527,o),
(52,496,o),
(24,457,o),
(26,441,q),
(39,402,o),
(58,368,o),
(76,343,o),
(91,343,o),
(106,365,o),
(117,395,o),
(130,421,q),
(163,420,o),
(169,414,o),
(168,402,o),
(106,240,o),
(58,150,o),
(30,110,o),
(25,94,o),
(36,62,o),
(54,26,o),
(73,0,o),
(79,0,q),
(122,34,o),
(141,44,o),
(175,33,o),
(235,-6,o),
(250,-2,o)
);
}
);
width = 345;
}
);
note = uni007A;
unicode = 122;
},
{
glyphname = uni00AA;
layers = (
{
anchors = (
{
name = top;
pos = (94,585);
},
{
name = top_;
pos = (94,585);
},
{
name = top__;
pos = (94,585);
},
{
name = top___;
pos = (94,585);
},
{
name = top____;
pos = (94,585);
},
{
name = top_____;
pos = (94,585);
},
{
name = top______;
pos = (94,585);
},
{
name = top_______;
pos = (94,585);
},
{
name = top________;
pos = (94,585);
},
{
name = top_________;
pos = (94,585);
},
{
name = top__________;
pos = (94,585);
}
);
layerId = m01;
shapes = (
{
closed = 1;
nodes = (
(86,344,o),
(96,363,o),
(96,363,q),
(101,347,o),
(113,334,qs),
(126,322,o),
(140,329,o),
(164,357,q),
(155,370,o),
(145,389,o),
(141,414,o),
(141,470,o),
(148,495,o),
(148,507,qs),
(148,510,o),
(133,529,o),
(110,551,o),
(86,565,o),
(72,559,o),
(46,537,o),
(24,515,o),
(24,512,q),
(32,494,ls),
(48,464,o),
(75,471,o),
(75,514,o),
(82,521,o),
(97,509,o),
(97,486,o),
(93,465,q),
(90,460,o),
(38,440,o),
(30,422,o),
(24,370,o),
(41,345,o),
(64,327,q),
(71,326,o)
);
},
{
closed = 1;
nodes = (
(70,414,o),
(80,438,o),
(94,438,o),
(96,435,o),
(96,411,o),
(91,377,o),
(88,375,qs),
(77,367,o)
);
}
);
width = 188;
}
);
note = uni00AA;
unicode = 170;
},
{
glyphname = uni00BA;
layers = (
{
anchors = (
{
name = top;
pos = (86,584);
},
{
name = top_;
pos = (86,584);
},
{
name = top__;
pos = (86,584);
},
{
name = top___;
pos = (86,584);
},
{
name = top____;
pos = (86,584);
},
{
name = top_____;
pos = (86,584);
},
{
name = top______;
pos = (86,584);
},
{
name = top_______;
pos = (86,584);
},
{
name = top________;
pos = (86,584);
},
{
name = top_________;
pos = (86,584);
},
{
name = top__________;
pos = (86,584);
}
);
layerId = m01;
shapes = (
{
closed = 1;
nodes = (
(94,327,o),
(119,350,o),
(146,379,q),
(146,435,ls),
(146,459,o),
(147,483,o),
(149,510,q),
(128,531,o),
(105,554,o),
(90,564,o),
(78,562,o),
(54,539,o),
(28,512,q),
(28,433,o),
(24,382,q),
(45,359,o),
(73,332,o),
(83,325,o)
);
},
{
closed = 1;
nodes = (
(74,402,o),
(73,503,o),
(75,513,o),
(84,521,o),
(93,516,o),
(99,510,q),
(99,400,ls),
(99,372,o),
(85,371,o),
(76,381,o)
);
}
);
width = 174;
}
);
note = uni00BA;
unicode = 186;
},
{
glyphname = uni00C0;
layers = (
{
anchors = (
{
name = top;
pos = (219,882);
},
{
name = top_;
pos = (219,882);
},
{
name = top__;
pos = (219,882);
},
{
name = top___;
pos = (219,882);
},
{
name = top____;
pos = (219,882);
},
{
name = top_____;
pos = (219,882);
},
{
name = top______;
pos = (219,882);
},
{
name = top_______;
pos = (219,882);
},
{
name = top________;
pos = (219,882);
},
{
name = top_________;
pos = (219,882);
},
{
name = top__________;
pos = (219,882);
}
);
layerId = m01;
shapes = (
{
closed = 1;
nodes = (
(374,27,o),
(399,70,o),
(414,107,o),
(414,126,o),
(384,186,o),
(357,254,o),
(344,337,o),
(338,457,o),
(346,503,o),
(366,555,q),
(352,574,l),
(248,688,o),
(226,688,qs),
(215,688,o),
(180,658,o),
(138,618,o),
(90,583,o),
(73,565,o),
(73,560,q),
(92,497,o),
(97,473,o),
(97,413,qs),
(97,267,o),
(43,162,qs),
(31,140,o),
(24,114,o),
(33,85,o),
(60,30,o),
(87,3,o),
(122,3,o),
(146,20,o),
(186,70,o),
(202,104,o),
(199,138,o),
(189,188,o),
(174,291,o),
(176,308,q),
(262,310,l),
(257,220,o),
(237,133,o),
(238,100,o),
(258,62,o),
(288,26,o),
(318,1,o),
(344,-2,o)
);
},
{
closed = 1;
nodes = (
(178,372,qs),
(178,373,o),
(183,406,o),
(190,457,o),
(196,509,o),
(201,560,o),
(205,570,o),
(222,567,o),
(230,559,o),
(236,530,o),
(252,403,q),
(257,377,o),
(249,373,o),
(222,371,o),
(178,370,o)
);
},
{
closed = 1;
nodes = (
(226,808,o),
(198,857,o),
(180,857,q),
(155,862,o),
(124,839,o),
(100,809,o),
(101,792,o),
(136,765,o),
(181,737,o),
(245,703,o),
(268,697,o),
(271,702,o),
(271,706,q),
(268,717,o)
);
}
);
width = 437;
}
);
note = uni00C0;
unicode = 192;
},
{
glyphname = uni00C1;
layers = (
{
anchors = (
{
name = top;
pos = (220,877);
},
{
name = top_;
pos = (220,877);
},
{
name = top__;
pos = (220,877);
},
{
name = top___;
pos = (220,877);
},
{
name = top____;
pos = (220,877);
},
{
name = top_____;
pos = (220,877);
},
{
name = top______;
pos = (220,877);
},
{
name = top_______;
pos = (220,877);
},
{
name = top________;
pos = (220,877);
},
{
name = top_________;
pos = (220,877);
},
{
name = top__________;
pos = (220,877);
}
);
layerId = m01;
shapes = (
{
closed = 1;
nodes = (
(154,30,o),
(174,57,qs),
(195,86,o),
(204,116,o),
(197,140,qs),
(188,177,o),
(179,222,o),
(176,257,qs),
(173,286,o),
(173,304,o),
(177,306,q),
(179,308,o),
(204,309,o),
(220,309,qs),
(257,308,l),
(257,269,ls),
(256,229,o),
(246,181,qs),
(239,146,o),
(238,102,o),
(254,66,o),
(272,43,qs),
(320,-18,o),
(356,7,qs),
(368,15,o),
(401,69,o),
(410,93,qs),
(418,118,l),
(399,155,ls),
(383,186,o),
(362,240,o),
(349,298,o),
(344,336,qs),
(327,461,o),
(359,531,q),
(367,556,o),
(361,566,o),
(263,667,o),
(238,686,o),
(220,689,o),
(206,680,q),
(112,600,o),
(74,566,o),
(71,554,o),
(95,478,o),
(96,446,o),
(94,348,o),
(76,251,o),
(55,187,o),
(27,130,o),
(23,116,o),
(30,92,o),
(63,27,o),
(88,-1,o),
(115,4,qs),
(128,6,o)
);
},
{
closed = 1;
nodes = (
(201,564,o),
(204,570,o),
(222,567,o),
(232,555,o),
(236,532,o),
(242,479,o),
(250,374,q),
(226,371,o),
(177,371,o),
(177,374,o)
);
},
{
closed = 1;
nodes = (
(212,706,o),
(256,732,qs),
(329,777,o),
(342,790,o),
(346,804,o),
(330,834,o),
(308,853,o),
(296,857,o),
(266,857,o),
(255,853,o),
(238,838,o),
(222,807,o),
(206,768,qs),
(182,701,o),
(186,694,o)
);
}
);
width = 443;
}
);
note = uni00C1;
unicode = 193;
},
{
glyphname = uni00C2;
layers = (
{
anchors = (
{
name = top;
pos = (223,882);
},
{
name = top_;
pos = (223,882);
},
{
name = top__;
pos = (223,882);
},
{
name = top___;
pos = (223,882);
},
{
name = top____;
pos = (223,882);
},
{
name = top_____;
pos = (223,882);
},
{
name = top______;
pos = (223,882);
},
{
name = top_______;
pos = (223,882);
},
{
name = top________;
pos = (223,882);
},
{
name = top_________;
pos = (223,882);
},
{
name = top__________;
pos = (223,882);
}
);
layerId = m01;
shapes = (
{
closed = 1;
nodes = (
(388,39,o),
(411,90,o),
(422,119,q),
(403,158,o),
(382,202,o),
(370,234,o),
(355,284,o),
(345,360,o),
(342,431,o),
(346,485,o),
(362,528,o),
(374,554,o),
(370,566,o),
(311,627,o),
(261,673,o),
(234,689,o),
(219,685,o),
(210,680,q),
(97,587,o),
(75,563,o),
(78,545,o),
(102,475,o),
(104,388,o),
(93,315,o),
(76,237,o),
(54,178,o),
(24,135,o),
(24,125,q),
(35,88,o),
(57,40,o),
(88,5,o),
(126,8,o),
(165,42,o),
(195,86,o),
(204,122,o),
(179,261,o),
(179,309,q),
(220,314,o),
(260,312,q),
(259,218,o),
(240,137,o),
(240,110,o),
(260,71,o),
(291,29,o),
(326,0,o),
(341,0,qs),
(350,0,o)
);
},
{
closed = 1;
nodes = (
(183,377,qs),
(192,446,o),
(197,479,o),
(202,530,o),
(207,563,o),
(213,570,o),
(232,566,o),
(235,560,q),
(244,515,o),
(250,463,o),
(257,379,q),
(223,376,o),
(183,375,o)
);
},
{
closed = 1;
nodes = (
(321,705,o),
(338,735,o),
(349,758,o),
(349,761,o),
(344,766,o),
(309,794,o),
(275,825,qs),
(236,862,o),
(225,862,qs),
(219,862,o),
(198,847,o),
(140,794,o),
(100,763,o),
(100,756,o),
(127,705,o),
(143,684,o),
(151,684,o),
(220,758,q),
(296,683,o),
(305,683,o)
);
}
);
width = 447;
}
);
note = uni00C2;
unicode = 194;
},
{
glyphname = uni00C3;
layers = (
{
anchors = (
{
name = top;
pos = (217,877);
},
{
name = top_;
pos = (217,877);
},
{
name = top__;
pos = (217,877);
},
{
name = top___;
pos = (217,877);
},
{
name = top____;
pos = (217,877);
},
{
name = top_____;
pos = (217,877);
},
{
name = top______;
pos = (217,877);
},
{
name = top_______;
pos = (217,877);
},
{
name = top________;
pos = (217,877);
},
{
name = top_________;
pos = (217,877);
},
{
name = top__________;
pos = (217,877);
}
);
layerId = m01;
shapes = (
{
closed = 1;
nodes = (
(375,33,o),
(397,71,o),
(410,104,o),
(410,116,o),
(399,143,o),
(388,167,o),
(388,168,q),
(374,199,o),
(338,321,o),
(338,423,qs),
(338,461,o),
(347,505,o),
(358,529,o),
(367,544,o),
(367,553,q),
(343,583,o),
(265,662,o),
(232,688,o),
(219,687,o),
(126,611,o),
(95,590,o),
(68,565,o),
(68,561,q),
(96,466,o),
(101,432,o),
(101,394,o),
(93,306,o),
(69,221,o),
(24,130,o),
(24,111,o),
(36,74,o),
(58,34,o),
(84,4,o),
(114,-1,o),
(151,26,o),
(181,63,o),
(200,97,o),
(198,149,o),
(174,270,o),
(176,304,o),
(190,306,o),
(257,305,q),
(256,216,o),
(237,134,o),
(237,101,o),
(257,61,o),
(289,21,o),
(324,-3,o),
(339,1,qs),
(350,4,o)
);
},
{
closed = 1;
nodes = (
(181,379,o),
(204,562,o),
(209,569,o),
(221,567,o),
(230,558,o),
(238,522,o),
(248,443,o),
(255,372,qs),
(255,371,o),
(187,369,q),
(183,370,o)
);
},
{
closed = 1;
nodes = (
(160,742,o),
(172,758,o),
(203,740,o),
(241,713,o),
(259,707,q),
(284,705,o),
(314,718,o),
(343,756,o),
(364,827,o),
(342,857,o),
(317,850,qs),
(305,847,o),
(275,801,o),
(267,801,o),
(198,839,o),
(154,841,o),
(115,808,o),
(91,764,o),
(91,732,o),
(107,702,o),
(130,688,o),
(151,702,o)
);
}
);
width = 434;
}
);
note = uni00C3;
unicode = 195;
},
{
glyphname = uni00C4;
layers = (
{
anchors = (
{
name = top;
pos = (217,858);
},
{
name = top_;
pos = (217,858);
},
{
name = top__;
pos = (217,858);
},
{
name = top___;
pos = (217,858);
},
{
name = top____;
pos = (217,858);
},
{
name = top_____;
pos = (217,858);
},
{
name = top______;
pos = (217,858);
},
{
name = top_______;
pos = (217,858);
},
{
name = top________;
pos = (217,858);
},
{
name = top_________;
pos = (217,858);
},
{
name = top__________;
pos = (217,858);
}
);
layerId = m01;
shapes = (
{
closed = 1;
nodes = (
(177,55,o),
(189,75,qs),
(199,92,o),
(200,132,o),
(193,165,qs),
(184,200,o),
(173,273,o),
(174,287,qs),
(175,304,l),
(258,304,l),
(258,266,ls),
(258,245,o),
(252,203,o),
(245,170,qs),
(232,111,l),
(246,83,ls),
(251,72,o),
(280,33,q),
(332,-24,o),
(367,18,q),
(390,57,o),
(412,110,o),
(412,121,o),
(375,201,o),
(358,247,o),
(348,298,o),
(339,387,o),
(338,452,o),
(348,501,o),
(368,550,o),
(368,556,o),
(313,615,o),
(248,676,o),
(228,688,q),
(215,680,l),
(100,588,o),
(72,562,o),
(74,539,o),
(84,509,q),
(97,455,o),
(101,412,o),
(94,327,o),
(78,244,o),
(67,215,q),
(27,131,o),
(23,118,o),
(32,84,o),
(60,29,o),
(71,19,qs),
(95,-6,o),
(125,8,qs),
(139,14,o)
);
},
{
closed = 1;
nodes = (
(185,368,o),
(183,370,o),
(190,452,qs),
(194,485,o),
(200,541,o),
(200,564,o),
(211,571,o),
(229,559,o),
(236,539,o),
(243,494,o),
(257,371,q),
(222,368,ls),
(207,367,o)
);
},
{
closed = 1;
nodes = (
(209,776,o),
(182,818,o),
(155,837,o),
(145,838,o),
(116,819,o),
(84,774,o),
(84,751,o),
(105,712,o),
(136,682,o),
(154,681,o),
(170,698,qs),
(208,734,o)
);
},
{
closed = 1;
nodes = (
(344,720,o),
(361,752,o),
(361,778,o),
(337,816,o),
(308,837,o),
(294,837,o),
(261,812,o),
(236,767,o),
(241,753,qs),
(253,708,o),
(286,688,qs),
(294,683,o),
(302,683,o),
(320,692,o)
);
}
);
width = 437;
}
);
note = uni00C4;
unicode = 196;
},
{
glyphname = uni00C5;
layers = (
{
anchors = (
{
name = top;
pos = (220,945);
},
{
name = top_;
pos = (220,945);
},
{
name = top__;
pos = (220,945);
},
{
name = top___;
pos = (220,945);
},
{
name = top____;
pos = (220,945);
},
{
name = top_____;
pos = (220,945);
},
{
name = top______;
pos = (220,945);
},
{
name = top_______;
pos = (220,945);
},
{
name = top________;
pos = (220,945);
},
{
name = top_________;
pos = (220,945);
},
{
name = top__________;
pos = (220,945);
}
);
layerId = m01;
shapes = (
{
closed = 1;
nodes = (
(382,35,o),
(404,74,o),
(417,106,o),
(417,117,o),
(403,149,o),
(383,192,o),
(375,214,qs),
(363,243,o),
(349,315,o),
(342,386,o),
(341,442,o),
(342,456,qs),
(344,491,o),
(360,532,o),
(372,554,o),
(369,566,o),
(329,608,o),
(296,640,o),
(258,674,o),
(238,688,o),
(225,688,o),
(201,682,o),
(155,632,o),
(114,604,qs),
(78,577,o),
(75,567,q),
(76,553,o),
(98,481,q),
(98,409,ls),
(98,330,o),
(76,230,o),
(46,169,o),
(24,133,o),
(24,110,o),
(52,39,o),
(92,-1,o),
(130,4,o),
(164,37,o),
(194,81,o),
(203,109,o),
(202,124,q),
(179,267,o),
(176,303,o),
(179,307,o),
(243,309,o),
(260,307,o),
(265,297,o),
(262,254,o),
(240,116,o),
(240,103,o),
(261,63,o),
(293,22,o),
(329,-3,o),
(356,4,o)
);
},
{
closed = 1;
nodes = (
(186,416,o),
(195,475,o),
(202,529,o),
(202,562,o),
(211,572,o),
(211,572,o),
(233,562,o),
(243,518,o),
(255,391,o),
(260,375,q),
(185,371,o),
(181,374,o)
);
},
{
closed = 1;
nodes = (
(330,819,qs),
(328,853,o),
(301,892,o),
(267,911,o),
(213,925,o),
(147,897,o),
(110,838,o),
(115,766,o),
(145,731,qs),
(199,671,o),
(335,738,o)
);
},
{
closed = 1;
nodes = (
(191,802,o),
(195,838,o),
(217,853,o),
(239,839,qs),
(252,831,o),
(251,783,o),
(229,761,o),
(222,759,o),
(202,767,o)
);
}
);
width = 442;
}
);
note = uni00C5;
unicode = 197;
},
{
glyphname = uni00C6;
layers = (
{
anchors = (
{
name = top;
pos = (289,706);
},
{
name = top_;
pos = (289,706);
},
{
name = top__;
pos = (289,706);
},
{
name = top___;
pos = (289,706);
},
{
name = top____;
pos = (289,706);
},
{
name = top_____;
pos = (289,706);
},
{
name = top______;
pos = (289,706);
},
{
name = top_______;
pos = (289,706);
},
{
name = top________;
pos = (289,706);
},
{
name = top_________;
pos = (289,706);
},
{
name = top__________;
pos = (289,706);
}
);
layerId = m01;
shapes = (
{
closed = 1;
nodes = (
(476,56,o),
(512,81,qs),
(540,103,o),
(555,120,o),
(555,130,q),
(545,176,o),
(526,225,o),
(496,260,o),
(476,257,qs),
(463,255,o),
(432,236,o),
(417,197,o),
(427,164,qs),
(430,157,o),
(434,134,o),
(421,116,o),
(398,116,qs),
(388,116,o),
(380,123,o),
(363,142,q),
(363,223,o),
(366,286,o),
(371,334,q),
(431,309,l),
(443,307,o),
(469,333,o),
(472,376,o),
(449,399,q),
(438,406,o),
(411,387,o),
(383,366,o),
(367,373,o),
(363,413,o),
(362,461,o),
(361,561,q),
(383,583,l),
(395,577,o),
(415,555,q),
(421,537,o),
(422,487,o),
(427,471,o),
(447,454,o),
(479,445,o),
(514,470,o),
(535,514,qs),
(550,544,o),
(555,566,o),
(550,574,q),
(509,609,o),
(459,648,o),
(418,678,o),
(404,686,o),
(389,685,o),
(360,662,o),
(328,633,q),
(280,679,o),
(274,683,o),
(264,683,o),
(221,649,o),
(164,601,o),
(109,562,o),
(86,535,o),
(94,502,o),
(112,471,qs),
(118,460,o),
(119,422,o),
(98,319,o),
(72,236,o),
(24,131,q),
(46,66,o),
(82,26,o),
(117,17,o),
(141,22,o),
(180,58,o),
(204,98,o),
(205,154,o),
(182,274,o),
(182,301,q),
(188,307,l),
(263,301,o),
(270,295,o),
(264,252,o),
(238,148,o),
(238,126,o),
(261,101,o),
(299,71,qs),
(342,33,o),
(385,0,o),
(404,1,o),
(412,5,qs),
(431,14,o)
);
},
{
closed = 1;
nodes = (
(189,366,o),
(207,459,o),
(219,515,o),
(229,555,o),
(234,559,o),
(247,555,o),
(253,536,o),
(258,496,o),
(263,443,o),
(266,360,o),
(263,358,o),
(189,356,q),
(189,365,ls)
);
}
);
width = 579;
}
);
note = uni00C6;
unicode = 198;
},
{
glyphname = uni00C7;
layers = (
{
anchors = (
{
name = top;
pos = (188,708);
},
{
name = top_;
pos = (188,708);
},
{
name = top__;
pos = (188,708);
},
{
name = top___;
pos = (188,708);
},
{
name = top____;
pos = (188,708);
},
{
name = top_____;
pos = (188,708);
},
{
name = top______;
pos = (188,708);
},
{
name = top_______;
pos = (188,708);
},
{
name = top________;
pos = (188,708);
},
{
name = top_________;
pos = (188,708);
},
{
name = top__________;
pos = (188,708);
}
);
layerId = m01;
shapes = (
{
closed = 1;
nodes = (
(307,-120,o),
(304,-79,qs),
(302,-52,o),
(278,-21,o),
(249,-6,o),
(227,-2,q),
(214,-2,o),
(212,5,o),
(237,29,o),
(282,64,qs),
(290,70,o),
(322,97,o),
(349,123,o),
(350,130,qs),
(352,141,o),
(345,183,o),
(334,227,o),
(325,259,qs),
(314,295,o),
(287,336,o),
(256,323,qs),
(226,310,o),
(212,263,o),
(219,207,o),
(228,153,o),
(222,133,qs),
(218,118,o),
(191,114,o),
(163,133,o),
(158,152,qs),
(157,157,o),
(155,201,o),
(154,260,o),
(154,547,o),
(157,558,o),
(169,577,o),
(189,578,o),
(206,563,o),
(217,543,q),
(215,428,o),
(220,408,o),
(254,387,o),
(281,385,o),
(312,420,o),
(335,473,o),
(348,522,o),
(346,553,o),
(306,605,o),
(252,655,o),
(202,688,o),
(177,688,o),
(40,573,o),
(24,547,o),
(27,521,o),
(42,469,o),
(46,380,o),
(41,216,o),
(26,153,o),
(26,131,o),
(35,117,o),
(142,27,o),
(157,8,o),
(162,-18,o),
(165,-34,o),
(201,-56,o),
(213,-80,o),
(206,-106,o),
(193,-124,o),
(188,-124,q),
(135,-86,o),
(125,-88,o),
(108,-114,o),
(108,-129,o),
(126,-157,o),
(165,-181,o),
(195,-181,qs),
(245,-181,o)
);
}
);
width = 374;
}
);
note = uni00C7;
unicode = 199;
},
{
glyphname = uni00C8;
layers = (
{
anchors = (
{
name = top;
pos = (186,878);
},
{
name = top_;
pos = (186,878);
},
{
name = top__;
pos = (186,878);
},
{
name = top___;
pos = (186,878);
},
{
name = top____;
pos = (186,878);
},
{
name = top_____;
pos = (186,878);
},
{
name = top______;
pos = (186,878);
},
{
name = top_______;
pos = (186,878);
},
{
name = top________;
pos = (186,878);
},
{
name = top_________;
pos = (186,878);
},
{
name = top__________;
pos = (186,878);
}
);
layerId = m01;
shapes = (
{
closed = 1;
nodes = (
(275,60,o),
(306,82,qs),
(317,90,o),
(341,109,o),
(342,112,qs),
(346,120,o),
(342,165,o),
(325,217,o),
(297,254,o),
(277,254,qs),
(260,254,o),
(225,227,o),
(216,191,o),
(228,150,o),
(228,135,o),
(209,115,o),
(183,111,o),
(171,128,qs),
(163,140,o),
(163,167,qs),
(163,228,ls),
(163,282,o),
(166,321,o),
(169,326,o),
(189,322,o),
(215,312,qs),
(243,301,o),
(263,322,qs),
(286,345,o),
(271,374,qs),
(261,394,o),
(235,398,o),
(208,384,o),
(184,365,o),
(167,356,o),
(164,366,o),
(161,450,o),
(160,499,o),
(160,551,o),
(167,576,o),
(201,576,o),
(212,559,o),
(226,475,o),
(240,451,o),
(279,448,o),
(317,482,o),
(349,554,o),
(344,574,o),
(273,635,o),
(221,677,o),
(198,689,o),
(192,687,q),
(90,610,o),
(28,559,o),
(24,550,o),
(24,538,o),
(46,480,o),
(55,445,o),
(58,363,q),
(54,270,o),
(45,216,o),
(25,127,o),
(31,115,o),
(140,19,o),
(187,-8,o),
(212,9,qs),
(228,20,o)
);
},
{
closed = 1;
nodes = (
(230,729,o),
(208,774,o),
(192,810,o),
(192,812,qs),
(192,815,o),
(164,855,o),
(124,858,o),
(89,837,o),
(69,806,o),
(72,788,o),
(107,762,o),
(157,732,o),
(242,692,o),
(245,695,o)
);
}
);
width = 372;
}
);
note = uni00C8;
unicode = 200;
},
{
glyphname = uni00C9;
layers = (
{
anchors = (
{
name = top;
pos = (187,881);
},
{
name = top_;
pos = (187,881);
},
{
name = top__;
pos = (187,881);
},
{
name = top___;
pos = (187,881);
},
{
name = top____;
pos = (187,881);
},
{
name = top_____;
pos = (187,881);
},
{
name = top______;
pos = (187,881);
},
{
name = top_______;
pos = (187,881);
},
{
name = top________;
pos = (187,881);
},
{
name = top_________;
pos = (187,881);
},
{
name = top__________;
pos = (187,881);
}
);
layerId = m01;
shapes = (
{
closed = 1;
nodes = (
(210,5,o),
(247,33,o),
(287,65,qs),
(318,89,o),
(344,113,o),
(349,129,o),
(349,158,o),
(337,197,o),
(325,226,q),
(309,253,o),
(251,257,o),
(235,232,qs),
(228,220,o),
(224,199,o),
(229,164,o),
(235,132,q),
(212,113,o),
(190,112,o),
(166,136,q),
(166,275,o),
(167,316,o),
(171,327,o),
(187,326,o),
(222,313,o),
(253,312,o),
(279,333,o),
(284,369,o),
(261,403,o),
(243,406,o),
(202,377,o),
(178,361,o),
(170,362,o),
(168,368,q),
(165,508,o),
(166,564,o),
(190,583,o),
(206,577,o),
(218,547,o),
(229,485,o),
(238,460,o),
(251,455,o),
(289,455,o),
(321,485,o),
(348,549,o),
(350,572,o),
(337,589,o),
(233,674,o),
(206,688,o),
(192,686,o),
(186,683,q),
(49,580,o),
(24,555,o),
(24,546,q),
(52,468,o),
(61,411,o),
(61,363,qs),
(61,274,o),
(30,156,o),
(28,128,o),
(41,111,o),
(165,6,o),
(189,1,qs),
(195,-1,o)
);
},
{
closed = 1;
nodes = (
(249,742,qs),
(320,784,o),
(320,802,qs),
(320,812,o),
(288,851,o),
(251,861,o),
(220,849,o),
(208,832,o),
(151,704,q),
(151,682,o)
);
}
);
width = 374;
}
);
note = uni00C9;
unicode = 201;
},
{
glyphname = uni00CA;
layers = (
{
anchors = (
{
name = top;
pos = (187,880);
},
{
name = top_;
pos = (187,880);
},
{
name = top__;
pos = (187,880);
},
{
name = top___;
pos = (187,880);
},
{
name = top____;
pos = (187,880);
},
{
name = top_____;
pos = (187,880);
},
{
name = top______;
pos = (187,880);
},
{
name = top_______;
pos = (187,880);
},
{
name = top________;
pos = (187,880);
},
{
name = top_________;
pos = (187,880);
},
{
name = top__________;
pos = (187,880);
}
);
layerId = m01;
shapes = (
{
closed = 1;
nodes = (
(249,33,o),
(288,64,o),
(316,82,o),
(343,108,o),
(348,120,o),
(348,135,qs),
(348,169,o),
(321,235,o),
(286,256,o),
(248,245,o),
(221,215,o),
(221,178,o),
(227,157,q),
(230,132,o),
(220,116,o),
(204,115,qs),
(191,114,o),
(175,124,o),
(160,136,q),
(160,140,o),
(163,175,o),
(167,223,o),
(169,271,o),
(169,323,o),
(172,323,qs),
(180,323,o),
(208,312,o),
(233,312,qs),
(254,314,l),
(271,327,o),
(280,353,o),
(269,375,qs),
(250,414,o),
(213,385,qs),
(175,354,o),
(169,364,q),
(166,398,o),
(164,444,o),
(162,524,o),
(162,543,o),
(168,573,o),
(201,577,o),
(216,551,o),
(222,513,o),
(225,477,o),
(235,461,o),
(255,452,o),
(290,448,o),
(323,489,o),
(349,541,o),
(351,564,o),
(338,582,o),
(270,640,o),
(202,688,o),
(196,688,o),
(90,603,o),
(45,573,o),
(24,551,o),
(24,543,q),
(37,503,o),
(57,444,o),
(59,401,o),
(56,262,o),
(46,211,o),
(29,150,o),
(25,125,o),
(36,111,o),
(139,26,o),
(184,-5,o),
(202,1,qs),
(210,4,o)
);
},
{
closed = 1;
nodes = (
(299,717,o),
(306,732,o),
(322,754,o),
(315,765,o),
(279,785,o),
(241,819,o),
(209,850,o),
(193,860,o),
(164,841,o),
(116,787,o),
(74,763,o),
(78,745,o),
(106,690,o),
(120,680,o),
(143,697,o),
(185,747,o),
(195,747,o),
(230,709,o),
(272,680,q),
(288,700,o)
);
}
);
width = 375;
}
);
note = uni00CA;
unicode = 202;
},
{
glyphname = uni00CB;
layers = (
{
anchors = (
{
name = top;
pos = (187,863);
},
{
name = top_;
pos = (187,863);
},
{
name = top__;
pos = (187,863);
},
{
name = top___;
pos = (187,863);
},
{
name = top____;
pos = (187,863);
},
{
name = top_____;
pos = (187,863);
},
{
name = top______;
pos = (187,863);
},
{
name = top_______;
pos = (187,863);
},
{
name = top________;
pos = (187,863);
},
{
name = top_________;
pos = (187,863);
},
{
name = top__________;
pos = (187,863);
}
);
layerId = m01;
shapes = (
{
closed = 1;
nodes = (
(237,31,qs),
(256,47,o),
(295,76,o),
(295,76,q),
(320,95,o),
(345,122,o),
(347,145,o),
(338,179,o),
(328,208,qs),
(322,223,o),
(304,251,o),
(275,260,o),
(252,248,qs),
(226,236,o),
(215,201,o),
(224,164,o),
(230,132,o),
(220,123,qs),
(205,108,o),
(175,126,o),
(163,137,q),
(164,219,o),
(166,298,o),
(167,323,o),
(168,324,q),
(230,308,l),
(240,308,o),
(260,324,o),
(275,343,o),
(275,354,o),
(264,379,o),
(247,401,o),
(234,401,o),
(210,386,o),
(190,370,o),
(178,361,o),
(165,364,o),
(161,416,o),
(161,537,qs),
(161,555,o),
(173,576,o),
(188,581,o),
(209,561,o),
(218,526,o),
(223,489,o),
(235,464,o),
(256,449,o),
(286,452,o),
(308,475,o),
(347,552,o),
(350,565,o),
(341,579,o),
(244,664,o),
(212,687,o),
(195,688,o),
(175,679,o),
(140,650,o),
(40,571,o),
(24,552,o),
(26,541,q),
(47,478,o),
(61,415,o),
(61,328,o),
(51,244,o),
(28,131,o),
(28,119,o),
(105,55,o),
(164,0,o),
(184,0,qs),
(200,0,o)
);
},
{
closed = 1;
nodes = (
(150,719,o),
(176,756,o),
(177,769,qs),
(177,780,o),
(154,816,o),
(126,843,o),
(115,843,o),
(73,816,o),
(55,773,o),
(66,736,o),
(91,707,o),
(113,691,o),
(121,691,o)
);
},
{
closed = 1;
nodes = (
(316,732,o),
(328,759,o),
(333,770,o),
(318,798,o),
(293,825,o),
(270,843,o),
(257,843,o),
(228,818,o),
(206,784,o),
(206,754,o),
(230,717,o),
(258,691,o),
(276,691,o)
);
}
);
width = 372;
}
);
note = uni00CB;
unicode = 203;
},
{
glyphname = uni00CC;
layers = (
{
anchors = (
{
name = top;
pos = (140,880);
},
{
name = top_;
pos = (140,880);
},
{
name = top__;
pos = (140,880);
},
{
name = top___;
pos = (140,880);
},
{
name = top____;
pos = (140,880);
},
{
name = top_____;
pos = (140,880);
},
{
name = top______;
pos = (140,880);
},
{
name = top_______;
pos = (140,880);
},
{
name = top________;
pos = (140,880);
},
{
name = top_________;
pos = (140,880);
},
{
name = top__________;
pos = (140,880);
}
);
layerId = m01;
shapes = (
{
closed = 1;
nodes = (
(193,8,o),
(224,44,o),
(244,87,o),
(255,119,o),
(255,119,q),
(255,125,o),
(249,146,o),
(227,205,o),
(215,267,o),
(212,417,o),
(216,480,o),
(230,525,o),
(244,553,o),
(244,564,q),
(226,605,o),
(198,651,o),
(168,686,o),
(143,686,o),
(89,616,o),
(67,564,q),
(95,476,o),
(101,440,o),
(102,318,o),
(95,233,o),
(75,169,o),
(58,131,o),
(62,107,o),
(84,62,o),
(114,17,o),
(128,9,qs),
(153,-6,o)
);
},
{
closed = 1;
nodes = (
(169,780,o),
(143,832,o),
(124,854,o),
(106,859,o),
(74,860,o),
(54,849,o),
(26,819,o),
(28,801,o),
(43,784,o),
(127,729,o),
(171,707,o),
(199,700,o),
(199,708,q),
(190,733,l)
);
}
);
width = 278;
}
);
note = uni00CC;
unicode = 204;
},
{
glyphname = uni00CD;
layers = (
{
anchors = (
{
name = top;
pos = (139,877);
},
{
name = top_;
pos = (139,877);
},
{
name = top__;
pos = (139,877);
},
{
name = top___;
pos = (139,877);
},
{
name = top____;
pos = (139,877);
},
{
name = top_____;
pos = (139,877);
},
{
name = top______;
pos = (139,877);
},
{
name = top_______;
pos = (139,877);
},
{
name = top________;
pos = (139,877);
},
{
name = top_________;
pos = (139,877);
},
{
name = top__________;
pos = (139,877);
}
);
layerId = m01;
shapes = (
{
closed = 1;
nodes = (
(175,25,o),
(210,93,o),
(219,117,o),
(214,142,o),
(195,194,o),
(183,245,o),
(177,306,o),
(173,406,o),
(180,476,o),
(192,514,o),
(210,552,o),
(207,574,o),
(187,613,o),
(159,656,o),
(131,686,o),
(113,686,o),
(86,659,o),
(36,583,o),
(31,563,o),
(61,471,o),
(71,375,o),
(62,244,o),
(42,172,o),
(24,135,o),
(24,124,q),
(49,61,o),
(81,18,o),
(104,4,o),
(112,2,qs),
(137,-5,o)
);
},
{
closed = 1;
nodes = (
(136,717,o),
(193,752,o),
(244,788,o),
(255,799,q),
(239,832,o),
(217,857,o),
(170,855,o),
(148,846,o),
(128,809,o),
(110,766,qs),
(86,705,l),
(91,698,o)
);
}
);
width = 279;
}
);
note = uni00CD;
unicode = 205;
},
{
glyphname = uni00CE;
layers = (
{
anchors = (
{
name = top;
pos = (147,881);
},
{
name = top_;
pos = (147,881);
},
{
name = top__;
pos = (147,881);
},
{
name = top___;
pos = (147,881);
},
{
name = top____;
pos = (147,881);
},
{
name = top_____;
pos = (147,881);
},
{
name = top______;
pos = (147,881);
},
{
name = top_______;
pos = (147,881);
},
{
name = top________;
pos = (147,881);
},
{
name = top_________;
pos = (147,881);
},
{
name = top__________;
pos = (147,881);
}
);
layerId = m01;
shapes = (
{
closed = 1;
nodes = (
(146,-5,o),
(181,8,o),
(211,43,o),
(232,83,o),
(244,115,o),
(244,122,o),
(204,237,o),
(197,385,o),
(206,474,o),
(225,521,o),
(237,552,o),
(226,584,o),
(203,624,o),
(175,662,o),
(152,686,o),
(139,686,o),
(111,656,o),
(81,612,o),
(60,570,o),
(60,554,o),
(89,462,o),
(92,436,o),
(98,327,o),
(88,230,o),
(58,131,o),
(58,115,o),
(84,58,q),
(105,19,o)
);
},
{
closed = 1;
nodes = (
(270,762,o),
(270,763,q),
(261,769,o),
(238,782,o),
(206,810,o),
(173,840,o),
(149,861,o),
(139,861,o),
(104,830,o),
(54,784,o),
(24,763,q),
(51,711,o),
(68,689,o),
(80,687,o),
(100,705,o),
(121,730,o),
(141,750,q),
(223,681,l),
(248,717,o)
);
}
);
width = 295;
}
);
note = uni00CE;
unicode = 206;
},
{
glyphname = uni00CF;
layers = (
{
anchors = (
{
name = top;
pos = (163,866);
},
{
name = top_;
pos = (163,866);
},
{
name = top__;
pos = (163,866);
},
{
name = top___;
pos = (163,866);
},
{
name = top____;
pos = (163,866);
},
{
name = top_____;
pos = (163,866);
},
{
name = top______;
pos = (163,866);
},
{
name = top_______;
pos = (163,866);
},
{
name = top________;
pos = (163,866);
},
{
name = top_________;
pos = (163,866);
},
{
name = top__________;
pos = (163,866);
}
);
layerId = m01;
shapes = (
{
closed = 1;
nodes = (
(217,33,o),
(242,78,o),
(256,113,o),
(256,120,o),
(250,139,o),
(229,192,o),
(214,272,o),
(209,342,o),
(209,386,o),
(210,387,q),
(212,438,o),
(225,501,o),
(238,537,o),
(245,559,o),
(242,570,q),
(220,616,o),
(196,657,o),
(172,686,o),
(156,686,o),
(120,650,o),
(84,599,o),
(71,563,o),
(82,527,o),
(98,481,o),
(112,382,o),
(104,268,o),
(68,131,o),
(69,122,q),
(82,80,o),
(106,34,o),
(142,0,o),
(184,0,o)
);
},
{
closed = 1;
nodes = (
(134,730,o),
(155,771,q),
(128,820,o),
(97,842,o),
(82,846,o),
(49,820,o),
(24,784,o),
(24,754,o),
(51,713,o),
(84,685,o),
(91,688,q),
(92,688,o)
);
},
{
closed = 1;
nodes = (
(276,722,o),
(297,754,o),
(299,762,qs),
(302,776,o),
(277,815,o),
(243,842,o),
(227,840,o),
(203,820,o),
(182,794,o),
(174,770,o),
(188,737,o),
(211,708,o),
(234,690,o),
(250,694,o)
);
}
);
width = 324;
}
);
note = uni00CF;
unicode = 207;
},
{
glyphname = uni00D0;
layers = (
{
anchors = (
{
name = top;
pos = (199,706);
},
{
name = top_;
pos = (199,706);
},
{
name = top__;
pos = (199,706);
},
{
name = top___;
pos = (199,706);
},
{
name = top____;
pos = (199,706);
},
{
name = top_____;
pos = (199,706);
},
{
name = top______;
pos = (199,706);
},
{
name = top_______;
pos = (199,706);
},
{
name = top________;
pos = (199,706);
},
{
name = top_________;
pos = (199,706);
},
{
name = top__________;
pos = (199,706);
}
);
layerId = m01;
shapes = (
{
closed = 1;
nodes = (
(275,21,o),
(324,72,o),
(374,124,q),
(371,142,l),
(371,150,o),
(368,169,qs),
(363,201,o),
(357,240,o),
(355,275,o),
(354,323,o),
(355,478,o),
(361,508,o),
(368,523,o),
(369,553,o),
(340,601,o),
(300,651,o),
(267,686,o),
(263,686,q),
(234,667,o),
(204,633,o),
(196,611,qs),
(185,583,o),
(177,593,o),
(166,643,o),
(136,679,o),
(112,679,o),
(84,649,o),
(57,608,o),
(40,569,q),
(52,539,o),
(73,488,o),
(77,451,o),
(78,373,q),
(49,371,o),
(26,367,o),
(25,349,o),
(31,329,q),
(79,329,l),
(79,262,o),
(68,202,o),
(47,149,o),
(32,116,q),
(66,48,o),
(98,4,o),
(126,1,o),
(148,21,o),
(171,70,o),
(180,65,o),
(188,52,o),
(216,16,o),
(244,-2,o),
(254,3,qs),
(257,5,o)
);
},
{
closed = 1;
nodes = (
(192,134,o),
(184,151,o),
(182,196,o),
(182,332,q),
(219,334,l),
(219,357,o),
(210,364,o),
(182,375,q),
(182,423,ls),
(187,534,o),
(192,555,o),
(208,572,o),
(221,572,o),
(231,561,q),
(244,543,o),
(245,525,o),
(245,285,o),
(241,119,o),
(238,109,o),
(217,109,o)
);
}
);
width = 396;
}
);
note = uni00D0;
unicode = 208;
},
{
glyphname = uni00D1;
layers = (
{
anchors = (
{
name = top;
pos = (217,886);
},
{
name = top_;
pos = (217,886);
},
{
name = top__;
pos = (217,886);
},
{
name = top___;
pos = (217,886);
},
{
name = top____;
pos = (217,886);
},
{
name = top_____;
pos = (217,886);
},
{
name = top______;
pos = (217,886);
},
{
name = top_______;
pos = (217,886);
},
{
name = top________;
pos = (217,886);
},
{
name = top_________;
pos = (217,886);
},
{
name = top__________;
pos = (217,886);
}
);
layerId = m01;
shapes = (
{
closed = 1;
nodes = (
(160,24,o),
(187,69,o),
(201,106,o),
(201,107,q),
(191,132,o),
(163,204,o),
(156,267,o),
(152,341,o),
(150,409,o),
(150,484,o),
(159,487,o),
(160,486,q),
(161,486,o),
(196,342,o),
(228,216,o),
(236,131,o),
(243,87,o),
(266,39,o),
(322,-8,o),
(364,13,o),
(395,77,o),
(410,116,q),
(391,153,o),
(369,204,o),
(360,251,o),
(358,310,o),
(359,459,o),
(374,502,o),
(392,533,o),
(402,571,o),
(385,613,o),
(357,654,o),
(330,681,o),
(306,681,o),
(284,658,o),
(256,615,o),
(235,575,o),
(235,559,o),
(257,512,o),
(267,459,o),
(277,330,o),
(278,222,o),
(272,214,o),
(270,216,o),
(235,347,o),
(201,498,o),
(201,523,o),
(212,541,o),
(212,559,o),
(193,601,o),
(165,648,o),
(136,682,o),
(113,686,o),
(84,661,o),
(58,622,o),
(38,583,o),
(33,563,o),
(36,545,o),
(68,475,q),
(67,307,o),
(62,221,o),
(45,170,o),
(28,138,o),
(24,107,o),
(38,58,o),
(70,10,o),
(121,-5,o)
);
},
{
closed = 1;
nodes = (
(326,752,o),
(348,800,o),
(353,843,o),
(331,866,o),
(302,859,qs),
(296,857,o),
(269,807,o),
(258,807,o),
(218,831,qs),
(162,866,o),
(118,823,qs),
(88,792,o),
(83,740,o),
(107,708,o),
(137,702,o),
(157,749,o),
(166,764,q),
(200,740,o),
(230,721,o),
(266,708,o),
(296,716,o)
);
}
);
width = 433;
}
);
note = uni00D1;
unicode = 209;
},
{
glyphname = uni00D2;
layers = (
{
anchors = (
{
name = top;
pos = (187,874);
},
{
name = top_;
pos = (187,874);
},
{
name = top__;
pos = (187,874);
},
{
name = top___;
pos = (187,874);
},
{
name = top____;
pos = (187,874);
},
{
name = top_____;
pos = (187,874);
},
{
name = top______;
pos = (187,874);
},
{
name = top_______;
pos = (187,874);
},
{
name = top________;
pos = (187,874);
},
{
name = top_________;
pos = (187,874);
},
{
name = top__________;
pos = (187,874);
}
);
layerId = m01;
shapes = (
{
closed = 1;
nodes = (
(278,68,o),
(338,123,qs),
(344,129,o),
(348,142,o),
(345,174,o),
(340,209,qs),
(338,222,o),
(334,257,o),
(331,315,o),
(331,362,qs),
(332,399,o),
(332,450,o),
(336,479,o),
(342,499,qs),
(351,538,o),
(349,547,o),
(322,577,o),
(280,618,o),
(235,659,o),
(197,686,o),
(189,687,qs),
(176,687,o),
(121,631,o),
(49,579,o),
(28,560,o),
(25,545,o),
(26,532,qs),
(36,459,o),
(47,359,o),
(44,310,o),
(24,134,q),
(140,22,o),
(176,-2,o),
(199,1,o),
(213,10,qs),
(219,14,o)
);
},
{
closed = 1;
nodes = (
(185,118,o),
(160,140,o),
(155,152,q),
(151,300,o),
(149,545,q),
(162,559,o),
(182,572,o),
(211,557,o),
(220,544,o),
(222,502,o),
(223,238,o),
(221,146,o),
(212,118,o)
);
},
{
closed = 1;
nodes = (
(191,799,o),
(169,838,o),
(155,852,o),
(124,854,o),
(100,849,o),
(94,846,o),
(62,809,o),
(62,796,o),
(97,766,o),
(148,732,o),
(198,705,o),
(233,695,o),
(233,703,qs),
(233,707,o)
);
}
);
width = 375;
}
);
note = uni00D2;
unicode = 210;
},
{
glyphname = uni00D3;
layers = (
{
anchors = (
{
name = top;
pos = (186,876);
},
{
name = top_;
pos = (186,876);
},
{
name = top__;
pos = (186,876);
},
{
name = top___;
pos = (186,876);
},
{
name = top____;
pos = (186,876);
},
{
name = top_____;
pos = (186,876);
},
{
name = top______;
pos = (186,876);
},
{
name = top_______;
pos = (186,876);
},
{
name = top________;
pos = (186,876);
},
{
name = top_________;
pos = (186,876);
},
{
name = top__________;
pos = (186,876);
}
);
layerId = m01;
shapes = (
{
closed = 1;
nodes = (
(227,20,o),
(283,71,o),
(332,118,qs),
(341,126,o),
(349,141,o),
(346,170,o),
(340,202,qs),
(333,250,o),
(332,304,o),
(332,448,o),
(336,481,o),
(350,529,o),
(351,543,o),
(343,557,o),
(264,633,o),
(200,683,o),
(181,688,o),
(155,669,o),
(30,561,o),
(21,546,o),
(32,496,o),
(47,409,o),
(46,306,o),
(42,261,o),
(24,136,q),
(134,29,o),
(163,5,o),
(180,0,o),
(198,0,o)
);
},
{
closed = 1;
nodes = (
(160,136,o),
(155,150,o),
(153,194,o),
(149,401,o),
(149,547,o),
(152,555,o),
(179,573,o),
(191,573,o),
(209,559,o),
(218,542,o),
(222,501,o),
(222,144,q),
(212,130,o),
(200,119,o),
(183,119,o)
);
},
{
closed = 1;
nodes = (
(186,712,o),
(273,764,o),
(305,787,o),
(309,797,o),
(302,828,o),
(274,856,o),
(228,855,o),
(206,844,o),
(187,807,o),
(152,723,o),
(146,696,o),
(154,696,qs),
(156,696,o)
);
}
);
width = 375;
}
);
note = uni00D3;
unicode = 211;
},
{
glyphname = uni00D4;
layers = (
{
anchors = (
{
name = top;
pos = (185,882);
},
{
name = top_;
pos = (185,882);
},
{
name = top__;
pos = (185,882);
},
{
name = top___;
pos = (185,882);
},
{
name = top____;
pos = (185,882);
},
{
name = top_____;
pos = (185,882);
},
{
name = top______;
pos = (185,882);
},
{
name = top_______;
pos = (185,882);
},
{
name = top________;
pos = (185,882);
},
{
name = top_________;
pos = (185,882);
},
{
name = top__________;
pos = (185,882);
}
);
layerId = m01;
shapes = (
{
closed = 1;
nodes = (
(247,37,o),
(293,79,o),
(338,122,o),
(347,139,o),
(345,171,o),
(339,206,qs),
(326,275,o),
(324,392,o),
(337,482,o),
(349,529,o),
(348,550,o),
(322,580,o),
(256,645,o),
(215,681,o),
(187,688,o),
(158,670,o),
(52,581,o),
(29,561,o),
(24,548,o),
(24,522,o),
(32,490,qs),
(61,366,o),
(27,176,qs),
(22,151,o),
(27,135,o),
(40,118,o),
(93,67,o),
(154,11,o),
(185,-4,o),
(208,4,o)
);
},
{
closed = 1;
nodes = (
(175,120,o),
(161,142,q),
(154,164,o),
(151,207,o),
(150,288,o),
(149,547,q),
(165,561,o),
(179,571,o),
(194,571,o),
(222,546,q),
(222,221,ls),
(220,134,o),
(217,129,qs),
(211,118,o)
);
},
{
closed = 1;
nodes = (
(142,707,o),
(165,734,o),
(183,754,o),
(187,754,o),
(206,738,o),
(223,721,qs),
(251,694,o),
(272,683,o),
(282,695,o),
(298,729,o),
(312,761,o),
(312,763,q),
(310,767,o),
(289,777,o),
(199,862,o),
(177,862,o),
(123,806,o),
(72,767,o),
(69,759,o),
(80,735,o),
(115,687,o),
(123,687,o)
);
}
);
width = 374;
}
);
note = uni00D4;
unicode = 212;
},
{
glyphname = uni00D5;
layers = (
{
anchors = (
{
name = top;
pos = (189,880);
},
{
name = top_;
pos = (189,880);
},
{
name = top__;
pos = (189,880);
},
{
name = top___;
pos = (189,880);
},
{
name = top____;
pos = (189,880);
},
{
name = top_____;
pos = (189,880);
},
{
name = top______;
pos = (189,880);
},
{
name = top_______;
pos = (189,880);
},
{
name = top________;
pos = (189,880);
},
{
name = top_________;
pos = (189,880);
},
{
name = top__________;
pos = (189,880);
}
);
layerId = m01;
shapes = (
{
closed = 1;
nodes = (
(220,11,qs),
(225,15,o),
(235,23,o),
(258,44,o),
(308,91,o),
(352,133,q),
(351,172,o),
(346,202,o),
(340,242,o),
(335,306,o),
(335,426,o),
(346,507,o),
(356,547,o),
(352,554,q),
(328,580,o),
(302,605,o),
(220,681,o),
(208,686,o),
(184,686,o),
(158,673,o),
(103,623,o),
(44,575,o),
(28,560,o),
(25,547,o),
(36,481,o),
(46,423,o),
(47,284,o),
(33,195,o),
(22,151,o),
(34,130,o),
(122,41,o),
(165,4,q),
(193,-7,o)
);
},
{
closed = 1;
nodes = (
(169,131,o),
(158,147,q),
(153,165,o),
(153,210,o),
(154,262,qs),
(154,466,o),
(152,516,o),
(152,507,o),
(152,535,o),
(155,556,o),
(176,578,o),
(196,578,o),
(219,559,o),
(226,548,o),
(228,523,o),
(226,326,o),
(228,165,o),
(222,127,o),
(202,118,o),
(199,118,o)
);
},
{
closed = 1;
nodes = (
(117,706,q),
(132,760,o),
(151,764,o),
(175,749,o),
(203,726,o),
(230,709,o),
(259,709,o),
(307,751,o),
(328,803,o),
(328,844,o),
(320,855,o),
(288,860,o),
(271,853,o),
(249,810,o),
(234,810,o),
(205,828,o),
(166,846,o),
(128,846,o),
(106,840,o),
(76,808,o),
(56,767,o),
(56,749,q),
(64,725,o),
(84,705,o),
(115,704,o)
);
}
);
width = 377;
}
);
note = uni00D5;
unicode = 213;
},
{
glyphname = uni00D6;
layers = (
{
anchors = (
{
name = top;
pos = (185,858);
},
{
name = top_;
pos = (185,858);
},
{
name = top__;
pos = (185,858);
},
{
name = top___;
pos = (185,858);
},
{
name = top____;
pos = (185,858);
},
{
name = top_____;
pos = (185,858);
},
{
name = top______;
pos = (185,858);
},
{
name = top_______;
pos = (185,858);
},
{
name = top________;
pos = (185,858);
},
{
name = top_________;
pos = (185,858);
},
{
name = top__________;
pos = (185,858);
}
);
layerId = m01;
shapes = (
{
closed = 1;
nodes = (
(213,12,o),
(222,19,o),
(263,55,o),
(308,97,o),
(341,132,o),
(344,144,o),
(334,215,o),
(322,315,o),
(322,425,o),
(336,500,o),
(347,539,o),
(343,547,o),
(278,614,o),
(200,684,o),
(185,687,o),
(148,662,o),
(103,623,o),
(29,552,o),
(25,544,o),
(24,531,o),
(46,436,o),
(48,358,o),
(42,274,o),
(26,151,o),
(26,136,o),
(31,126,o),
(59,103,o),
(135,27,o),
(170,0,o),
(196,0,o)
);
},
{
closed = 1;
nodes = (
(150,177,o),
(148,346,qs),
(148,541,l),
(166,559,o),
(185,571,o),
(203,557,o),
(221,535,q),
(221,345,ls),
(221,305,o),
(218,144,q),
(213,121,o),
(186,117,o),
(158,134,o),
(152,146,o)
);
},
{
closed = 1;
nodes = (
(170,743,o),
(175,764,o),
(175,777,o),
(148,812,o),
(120,838,o),
(115,838,o),
(70,804,o),
(52,769,o),
(57,744,o),
(72,716,o),
(98,692,o),
(113,681,q),
(144,705,o)
);
},
{
closed = 1;
nodes = (
(303,715,o),
(325,751,o),
(325,763,qs),
(325,773,o),
(300,807,o),
(268,834,o),
(252,834,o),
(212,799,o),
(200,756,o),
(223,718,o),
(255,690,o),
(273,688,o)
);
}
);
width = 369;
}
);
note = uni00D6;
unicode = 214;
},
{
glyphname = uni00D8;
layers = (
{
anchors = (
{
name = top;
pos = (219,711);
},
{
name = top_;
pos = (219,711);
},
{
name = top__;
pos = (219,711);
},
{
name = top___;
pos = (219,711);
},
{
name = top____;
pos = (219,711);
},
{
name = top_____;
pos = (219,711);
},
{
name = top______;
pos = (219,711);
},
{
name = top_______;
pos = (219,711);
},
{
name = top________;
pos = (219,711);
},
{
name = top_________;
pos = (219,711);
},
{
name = top__________;
pos = (219,711);
}
);
layerId = m01;
shapes = (
{
closed = 1;
nodes = (
(144,11,o),
(153,31,o),
(153,37,qs),
(153,50,o),
(160,53,o),
(182,36,o),
(209,19,o),
(220,19,qs),
(226,19,o),
(242,30,o),
(281,65,o),
(314,95,o),
(338,118,o),
(358,136,o),
(365,147,o),
(365,158,qs),
(362,193,o),
(352,249,o),
(348,314,o),
(349,393,o),
(350,449,q),
(377,501,o),
(377,519,o),
(349,553,o),
(328,577,q),
(328,653,o),
(324,678,o),
(298,691,o),
(274,669,o),
(272,613,q),
(224,644,o),
(196,651,o),
(184,643,q),
(149,613,o),
(69,540,o),
(61,521,o),
(78,438,o),
(84,335,o),
(76,256,o),
(65,209,o),
(64,180,o),
(79,151,o),
(116,93,o),
(117,73,o),
(103,18,o),
(104,4,o),
(113,1,qs),
(126,-2,o)
);
},
{
closed = 1;
nodes = (
(221,123,o),
(198,123,o),
(181,144,o),
(181,201,o),
(200,277,o),
(226,347,o),
(246,394,q),
(258,408,o),
(254,371,q),
(249,158,o),
(246,143,q),
(241,135,o)
);
},
{
closed = 1;
nodes = (
(179,333,o),
(177,425,qs),
(177,530,l),
(191,543,o),
(203,552,o),
(213,552,o),
(244,528,o),
(249,515,o),
(248,506,o),
(218,412,o),
(184,318,o),
(181,318,o)
);
}
);
width = 433;
}
);
note = uni00D8;
unicode = 216;
},
{
glyphname = uni00D9;
layers = (
{
anchors = (
{
name = top;
pos = (202,875);
},
{
name = top_;
pos = (202,875);
},
{
name = top__;
pos = (202,875);
},
{
name = top___;
pos = (202,875);
},
{
name = top____;
pos = (202,875);
},
{
name = top_____;
pos = (202,875);
},
{
name = top______;
pos = (202,875);
},
{
name = top_______;
pos = (202,875);
},
{
name = top________;
pos = (202,875);
},
{
name = top_________;
pos = (202,875);
},
{
name = top__________;
pos = (202,875);
}
);
layerId = m01;
shapes = (
{
closed = 1;
nodes = (
(299,70,o),
(340,110,o),
(366,140,o),
(364,144,q),
(355,171,o),
(345,239,o),
(340,304,o),
(339,346,o),
(339,347,qs),
(339,412,o),
(352,486,o),
(368,525,o),
(381,548,o),
(381,570,o),
(365,610,o),
(340,655,o),
(314,688,o),
(294,693,o),
(269,673,o),
(245,643,o),
(216,598,o),
(209,569,o),
(217,536,o),
(234,485,o),
(236,448,o),
(236,295,o),
(233,135,o),
(228,119,o),
(202,115,o),
(171,129,o),
(164,168,o),
(165,366,o),
(170,495,o),
(197,570,o),
(176,613,qs),
(143,684,o),
(78,684,o),
(45,617,qs),
(30,587,o),
(23,556,o),
(32,535,o),
(47,505,o),
(62,449,o),
(68,316,o),
(54,209,o),
(39,148,o),
(47,125,o),
(84,85,o),
(164,12,o),
(178,3,o),
(215,-2,o),
(228,4,q),
(228,4,o)
);
},
{
closed = 1;
nodes = (
(212,761,qs),
(197,794,o),
(180,826,o),
(166,840,o),
(156,845,qs),
(134,855,o),
(102,846,o),
(81,826,o),
(70,806,o),
(70,805,qs),
(67,792,o),
(81,770,o),
(131,738,o),
(234,688,q),
(244,688,o)
);
}
);
width = 405;
}
);
note = uni00D9;
unicode = 217;
},
{
glyphname = uni00DA;
layers = (
{
anchors = (
{
name = top;
pos = (206,872);
},
{
name = top_;
pos = (206,872);
},
{
name = top__;
pos = (206,872);
},
{
name = top___;
pos = (206,872);
},
{
name = top____;
pos = (206,872);
},
{
name = top_____;
pos = (206,872);
},
{
name = top______;
pos = (206,872);
},
{
name = top_______;
pos = (206,872);
},
{
name = top________;
pos = (206,872);
},
{
name = top_________;
pos = (206,872);
},
{
name = top__________;
pos = (206,872);
}
);
layerId = m01;
shapes = (
{
closed = 1;
nodes = (
(337,102,qs),
(358,121,o),
(367,131,o),
(367,133,qs),
(365,156,o),
(360,176,o),
(360,176,q),
(338,270,o),
(341,368,qs),
(342,428,o),
(357,497,o),
(375,534,o),
(388,554,o),
(388,568,o),
(371,606,o),
(346,654,o),
(319,690,o),
(309,691,qs),
(293,693,o),
(255,660,o),
(223,609,o),
(216,582,qs),
(214,573,o),
(215,558,o),
(225,527,o),
(237,495,q),
(237,288,o),
(235,136,o),
(229,117,o),
(196,115,o),
(176,135,o),
(170,149,o),
(167,185,o),
(171,491,q),
(193,558,o),
(191,585,o),
(178,620,o),
(147,670,o),
(119,691,o),
(112,691,q),
(84,679,o),
(47,635,o),
(24,568,q),
(55,504,o),
(67,404,o),
(71,292,o),
(55,198,o),
(40,147,o),
(44,135,q),
(64,110,o),
(144,32,o),
(196,-6,o),
(243,8,o),
(279,46,qs),
(299,66,o)
);
},
{
closed = 1;
nodes = (
(193,701,o),
(268,744,o),
(282,750,qs),
(332,776,o),
(332,801,o),
(309,842,o),
(283,851,o),
(251,852,o),
(226,842,o),
(207,806,o),
(168,697,q),
(168,691,o)
);
}
);
width = 413;
}
);
note = uni00DA;
unicode = 218;
},
{
glyphname = uni00DB;
layers = (
{
anchors = (
{
name = top;
pos = (208,883);
},
{
name = top_;
pos = (208,883);
},
{
name = top__;
pos = (208,883);
},
{
name = top___;
pos = (208,883);
},
{
name = top____;
pos = (208,883);
},
{
name = top_____;
pos = (208,883);
},
{
name = top______;
pos = (208,883);
},
{
name = top_______;
pos = (208,883);
},
{
name = top________;
pos = (208,883);
},
{
name = top_________;
pos = (208,883);
},
{
name = top__________;
pos = (208,883);
}
);
layerId = m01;
shapes = (
{
closed = 1;
nodes = (
(316,726,o),
(334,761,q),
(333,764,o),
(317,775,o),
(290,793,o),
(255,822,o),
(225,851,o),
(202,863,o),
(174,847,o),
(147,820,qs),
(122,797,o),
(77,762,o),
(77,757,o),
(90,735,o),
(110,709,o),
(130,692,o),
(137,695,q),
(181,739,o),
(201,756,q),
(279,683,o),
(289,689,qs),
(293,692,ls),
(298,696,o)
);
},
{
closed = 1;
nodes = (
(281,678,q),
(271,671,o),
(240,629,o),
(216,581,o),
(216,551,o),
(226,525,o),
(238,499,q),
(238,411,o),
(240,208,o),
(236,125,o),
(224,118,o),
(181,118,o),
(171,152,qs),
(168,164,o),
(168,322,o),
(177,490,o),
(195,557,o),
(191,596,o),
(164,649,o),
(129,687,o),
(116,687,qs),
(80,687,o),
(43,613,qs),
(32,590,o),
(24,568,o),
(28,551,o),
(57,487,o),
(71,383,o),
(65,262,o),
(54,195,o),
(38,141,o),
(45,127,o),
(97,71,o),
(148,24,o),
(179,4,o),
(199,0,o),
(231,0,o),
(240,6,q),
(370,131,l),
(372,134,o),
(355,200,o),
(344,302,o),
(345,395,o),
(350,447,o),
(361,489,o),
(392,561,q),
(372,616,o),
(349,661,o),
(321,691,o),
(304,691,q),
(289,688,o)
);
}
);
width = 416;
}
);
note = uni00DB;
unicode = 219;
},
{
glyphname = uni00DC;
layers = (
{
anchors = (
{
name = top;
pos = (209,874);
},
{
name = top_;
pos = (209,874);
},
{
name = top__;
pos = (209,874);
},
{
name = top___;
pos = (209,874);
},
{
name = top____;
pos = (209,874);
},
{
name = top_____;
pos = (209,874);
},
{
name = top______;
pos = (209,874);
},
{
name = top_______;
pos = (209,874);
},
{
name = top________;
pos = (209,874);
},
{
name = top_________;
pos = (209,874);
},
{
name = top__________;
pos = (209,874);
}
);
layerId = m01;
shapes = (
{
closed = 1;
nodes = (
(171,715,o),
(185,752,o),
(194,778,o),
(194,787,o),
(174,817,o),
(150,845,o),
(132,854,o),
(108,841,o),
(85,819,o),
(71,800,o),
(62,781,o),
(73,746,o),
(97,709,o),
(109,707,qs),
(122,705,l)
);
},
{
closed = 1;
nodes = (
(332,731,o),
(352,774,o),
(344,800,o),
(318,832,o),
(291,854,o),
(284,854,q),
(252,833,o),
(224,801,o),
(217,777,o),
(238,740,o),
(269,707,o),
(298,700,o)
);
},
{
closed = 1;
nodes = (
(97,694,o),
(48,630,o),
(24,577,q),
(49,518,o),
(69,457,o),
(74,353,o),
(66,251,o),
(52,172,o),
(44,149,o),
(49,130,o),
(86,89,o),
(170,11,o),
(189,1,o),
(228,-1,o),
(245,8,o),
(372,131,o),
(376,143,o),
(363,185,o),
(354,244,o),
(350,303,o),
(349,398,o),
(354,461,o),
(368,511,o),
(385,544,o),
(394,572,o),
(381,614,o),
(357,657,o),
(330,691,o),
(319,698,o),
(294,694,o),
(254,656,o),
(218,583,o),
(227,543,o),
(244,503,q),
(244,179,o),
(241,135,o),
(230,116,o),
(193,122,o),
(184,131,q),
(175,147,o),
(172,181,o),
(175,492,q),
(186,522,o),
(198,569,o),
(191,612,o),
(160,664,o),
(120,683,qs)
);
}
);
width = 416;
}
);
note = uni00DC;
unicode = 220;
},
{
glyphname = uni00DD;
layers = (
{
anchors = (
{
name = top;
pos = (194,877);
},
{
name = top_;
pos = (194,877);
},
{
name = top__;
pos = (194,877);
},
{
name = top___;
pos = (194,877);
},
{
name = top____;
pos = (194,877);
},
{
name = top_____;
pos = (194,877);
},
{
name = top______;
pos = (194,877);
},
{
name = top_______;
pos = (194,877);
},
{
name = top________;
pos = (194,877);
},
{
name = top_________;
pos = (194,877);
},
{
name = top__________;
pos = (194,877);
}
);
layerId = m01;
shapes = (
{
closed = 1;
nodes = (
(256,37,o),
(281,87,o),
(289,111,o),
(283,133,o),
(257,187,o),
(246,236,o),
(246,301,o),
(252,345,o),
(280,414,o),
(313,475,o),
(354,540,o),
(366,570,o),
(357,601,o),
(324,668,o),
(301,693,o),
(281,688,o),
(254,666,o),
(230,636,o),
(213,602,o),
(210,574,o),
(225,525,o),
(225,498,o),
(207,381,o),
(201,375,o),
(193,389,o),
(176,446,o),
(165,513,o),
(183,566,o),
(185,588,o),
(169,626,o),
(142,665,o),
(112,692,o),
(91,692,o),
(65,662,o),
(38,618,o),
(23,576,o),
(27,564,q),
(106,428,o),
(136,360,o),
(142,323,o),
(145,252,o),
(121,175,o),
(95,128,o),
(95,116,q),
(104,88,o),
(122,50,o),
(150,14,o),
(188,-4,o),
(212,3,qs),
(231,9,o)
);
},
{
closed = 1;
nodes = (
(192,710,o),
(221,726,qs),
(271,753,o),
(316,780,o),
(320,801,o),
(296,847,o),
(254,857,o),
(218,842,o),
(202,821,o),
(175,752,o),
(147,695,o),
(160,695,qs),
(162,695,o)
);
}
);
width = 386;
}
);
note = uni00DD;
unicode = 221;
},
{
glyphname = uni00DE;
layers = (
{
anchors = (
{
name = top;
pos = (169,706);
},
{
name = top_;
pos = (169,706);
},
{
name = top__;
pos = (169,706);
},
{
name = top___;
pos = (169,706);
},
{
name = top____;
pos = (169,706);
},
{
name = top_____;
pos = (169,706);
},
{
name = top______;
pos = (169,706);
},
{
name = top_______;
pos = (169,706);
},
{
name = top________;
pos = (169,706);
},
{
name = top_________;
pos = (169,706);
},
{
name = top__________;
pos = (169,706);
}
);
layerId = m01;
shapes = (
{
closed = 1;
nodes = (
(137,6,o),
(159,33,o),
(178,66,o),
(190,94,o),
(190,98,qs),
(191,103,o),
(182,124,o),
(180,130,qs),
(174,142,o),
(163,179,o),
(157,208,o),
(163,216,o),
(207,183,o),
(216,183,o),
(249,210,o),
(301,256,o),
(313,274,o),
(315,314,o),
(315,438,q),
(296,470,o),
(266,506,o),
(237,533,o),
(224,536,o),
(200,520,o),
(155,478,o),
(150,478,o),
(148,542,o),
(157,558,o),
(193,578,o),
(193,589,o),
(170,622,o),
(110,686,o),
(98,686,o),
(67,658,o),
(35,619,o),
(23,590,o),
(34,564,o),
(52,525,o),
(59,496,q),
(65,309,o),
(62,207,o),
(45,149,o),
(30,121,o),
(30,109,q),
(40,76,o),
(60,33,o),
(91,0,o),
(113,0,qs),
(123,0,o)
);
},
{
closed = 1;
nodes = (
(158,241,o),
(154,253,o),
(159,441,q),
(170,453,ls),
(189,473,o),
(205,445,o),
(209,377,o),
(209,292,o),
(206,247,o),
(197,231,o),
(181,231,o)
);
}
);
width = 338;
}
);
note = uni00DE;
unicode = 222;
},
{
glyphname = uni00DF;
layers = (
{
anchors = (
{
name = top;
pos = (217,712);
},
{
name = top_;
pos = (217,712);
},
{
name = top__;
pos = (217,712);
},
{
name = top___;
pos = (217,712);
},
{
name = top____;
pos = (217,712);
},
{
name = top_____;
pos = (217,712);
},
{
name = top______;
pos = (217,712);
},
{
name = top_______;
pos = (217,712);
},
{
name = top________;
pos = (217,712);
},
{
name = top_________;
pos = (217,712);
},
{
name = top__________;
pos = (217,712);
}
);
layerId = m01;
shapes = (
{
closed = 1;
nodes = (
(154,33,o),
(177,78,o),
(177,96,qs),
(177,122,o),
(189,108,q),
(242,65,o),
(283,46,o),
(305,57,q),
(344,89,o),
(372,120,o),
(390,157,o),
(382,226,o),
(368,251,q),
(307,336,o),
(278,383,o),
(269,440,o),
(291,518,o),
(323,574,q),
(306,604,o),
(273,639,o),
(234,671,o),
(200,692,o),
(185,692,o),
(123,670,o),
(77,635,o),
(56,603,o),
(51,582,q),
(76,491,o),
(79,463,q),
(81,280,o),
(77,207,o),
(68,152,o),
(44,115,o),
(44,94,o),
(70,49,o),
(103,9,o),
(125,2,o)
);
},
{
closed = 1;
nodes = (
(264,150,o),
(258,203,o),
(249,217,o),
(212,217,o),
(188,194,o),
(178,165,o),
(174,147,o),
(171,153,q),
(171,154,o),
(165,339,o),
(162,559,o),
(164,571,o),
(189,586,o),
(221,552,o),
(221,491,o),
(204,425,o),
(186,370,o),
(186,346,o),
(207,311,o),
(269,232,o),
(289,201,o),
(295,161,o),
(289,132,o),
(272,132,o)
);
}
);
width = 411;
}
);
note = uni00DF;
unicode = 223;
},
{
glyphname = uni00E0;
layers = (
{
anchors = (
{
name = top;
pos = (181,724);
},
{
name = top_;
pos = (181,724);
},
{
name = top__;
pos = (181,724);
},
{
name = top___;
pos = (181,724);
},
{
name = top____;
pos = (181,724);
},
{
name = top_____;
pos = (181,724);
},
{
name = top______;
pos = (181,724);
},
{
name = top_______;
pos = (181,724);
},
{
name = top________;
pos = (181,724);
},
{
name = top_________;
pos = (181,724);
},
{
name = top__________;
pos = (181,724);
}
);
layerId = m01;
shapes = (
{
closed = 1;
nodes = (
(313,45,o),
(339,81,o),
(329,97,o),
(309,123,o),
(291,177,o),
(287,252,o),
(292,328,o),
(302,386,o),
(312,407,o),
(305,425,o),
(241,498,o),
(193,535,o),
(163,539,o),
(152,533,q),
(88,485,o),
(34,441,o),
(34,430,q),
(40,399,o),
(55,361,o),
(85,332,o),
(132,332,o),
(138,345,qs),
(142,353,o),
(141,426,q),
(153,441,o),
(171,441,o),
(184,420,o),
(188,374,o),
(185,327,o),
(179,319,q),
(134,298,l),
(63,272,o),
(51,242,q),
(34,159,l),
(24,128,o),
(26,110,o),
(50,74,o),
(84,36,o),
(115,8,o),
(125,8,o),
(167,45,o),
(184,89,o),
(192,89,o),
(208,40,o),
(242,12,o),
(264,0,q),
(287,15,o)
);
},
{
closed = 1;
nodes = (
(139,152,o),
(135,194,o),
(143,235,o),
(156,248,qs),
(180,271,o),
(189,233,o),
(183,131,o),
(175,115,o),
(158,113,o),
(150,120,o)
);
},
{
closed = 1;
nodes = (
(204,593,o),
(155,683,o),
(139,699,o),
(114,704,o),
(98,704,o),
(68,681,o),
(47,655,o),
(45,642,o),
(80,614,o),
(133,582,o),
(186,556,o),
(222,545,o),
(222,552,qs),
(222,555,o)
);
}
);
width = 360;
}
);
note = uni00E0;
unicode = 224;
},
{
glyphname = uni00E1;
layers = (
{
anchors = (
{
name = top;
pos = (185,726);
},
{
name = top_;
pos = (185,726);
},
{
name = top__;
pos = (185,726);
},
{
name = top___;
pos = (185,726);
},
{
name = top____;
pos = (185,726);
},
{
name = top_____;
pos = (185,726);
},
{
name = top______;
pos = (185,726);
},
{
name = top_______;
pos = (185,726);
},
{
name = top________;
pos = (185,726);
},
{
name = top_________;
pos = (185,726);
},
{
name = top__________;
pos = (185,726);
}
);
layerId = m01;
shapes = (
{
closed = 1;
nodes = (
(320,42,o),
(346,77,q),
(307,139,o),
(297,171,o),
(295,216,o),
(296,323,o),
(301,348,o),
(315,417,o),
(310,426,o),
(234,505,o),
(190,538,o),
(166,538,o),
(123,514,o),
(76,479,o),
(39,445,o),
(35,436,qs),
(32,428,o),
(60,364,o),
(78,338,o),
(96,331,o),
(126,328,o),
(134,331,o),
(142,343,o),
(145,362,o),
(146,437,q),
(165,438,o),
(183,435,o),
(188,409,o),
(190,349,o),
(186,322,o),
(162,308,o),
(133,296,qs),
(61,269,o),
(50,243,q),
(27,132,o),
(25,110,o),
(48,75,o),
(80,36,o),
(111,7,o),
(126,4,o),
(149,20,o),
(171,46,o),
(187,84,o),
(195,85,o),
(211,39,o),
(243,11,o),
(270,0,q),
(284,0,o)
);
},
{
closed = 1;
nodes = (
(140,141,o),
(140,212,o),
(152,242,o),
(182,261,o),
(190,253,o),
(189,172,o),
(182,116,o),
(176,112,qs),
(163,101,o)
);
},
{
closed = 1;
nodes = (
(178,559,o),
(226,588,qs),
(264,610,o),
(296,631,o),
(304,641,o),
(304,647,q),
(297,675,o),
(272,704,o),
(219,706,o),
(194,683,o),
(150,588,o),
(138,554,q),
(143,546,o)
);
}
);
width = 371;
}
);
note = uni00E1;
unicode = 225;
},
{
glyphname = uni00E2;
layers = (
{
anchors = (
{
name = top;
pos = (184,737);
},
{
name = top_;
pos = (184,737);
},
{
name = top__;
pos = (184,737);
},
{
name = top___;
pos = (184,737);
},
{
name = top____;
pos = (184,737);
},
{
name = top_____;
pos = (184,737);
},
{
name = top______;
pos = (184,737);
},
{
name = top_______;
pos = (184,737);
},
{
name = top________;
pos = (184,737);
},
{
name = top_________;
pos = (184,737);
},
{
name = top__________;
pos = (184,737);
}
);
layerId = m01;
shapes = (
{
closed = 1;
nodes = (
(304,23,o),
(328,54,o),
(344,78,o),
(344,79,q),
(329,103,l),
(309,128,o),
(293,205,o),
(297,308,o),
(305,355,o),
(317,394,o),
(317,414,o),
(285,458,o),
(238,505,o),
(192,538,o),
(169,538,o),
(131,515,o),
(85,480,o),
(32,429,q),
(48,383,o),
(79,326,o),
(134,326,o),
(148,355,o),
(149,386,o),
(148,431,q),
(178,431,o),
(188,425,o),
(191,397,o),
(192,316,q),
(142,298,o),
(79,269,o),
(57,247,o),
(46,212,o),
(35,140,o),
(24,120,o),
(37,99,q),
(93,26,o),
(120,3,o),
(135,7,o),
(163,33,o),
(184,62,o),
(184,69,q),
(191,84,o),
(201,86,o),
(208,53,o),
(233,22,o),
(263,0,o),
(281,0,o)
);
},
{
closed = 1;
nodes = (
(168,104,o),
(149,124,o),
(145,159,qs),
(140,193,o),
(147,230,o),
(163,248,o),
(172,254,qs),
(190,264,o),
(195,247,o),
(189,142,o),
(185,113,o)
);
},
{
closed = 1;
nodes = (
(282,565,o),
(302,600,o),
(302,614,o),
(260,643,o),
(229,677,qs),
(209,697,o),
(186,717,o),
(172,717,o),
(142,688,o),
(103,646,o),
(66,616,o),
(62,601,o),
(75,569,o),
(96,543,o),
(114,543,o),
(135,561,o),
(173,603,o),
(177,603,q),
(250,535,o),
(258,535,o)
);
}
);
width = 363;
}
);
note = uni00E2;
unicode = 226;
},
{
glyphname = uni00E3;
layers = (
{
anchors = (
{
name = top;
pos = (185,738);
},
{
name = top_;
pos = (185,738);
},
{
name = top__;
pos = (185,738);
},
{
name = top___;
pos = (185,738);
},
{
name = top____;
pos = (185,738);
},
{
name = top_____;
pos = (185,738);
},
{
name = top______;
pos = (185,738);
},
{
name = top_______;
pos = (185,738);
},
{
name = top________;
pos = (185,738);
},
{
name = top_________;
pos = (185,738);
},
{
name = top__________;
pos = (185,738);
}
);
layerId = m01;
shapes = (
{
closed = 1;
nodes = (
(174,47,o),
(194,100,o),
(213,30,o),
(263,-1,o),
(285,1,o),
(316,37,o),
(346,76,q),
(328,103,o),
(305,144,o),
(295,204,o),
(295,285,o),
(298,325,o),
(316,402,o),
(312,423,o),
(288,452,o),
(233,507,o),
(193,537,o),
(158,538,o),
(115,511,o),
(56,460,o),
(33,436,o),
(34,414,o),
(57,360,o),
(88,334,o),
(127,333,o),
(141,344,o),
(146,387,o),
(148,433,q),
(166,434,o),
(182,430,o),
(186,403,o),
(187,342,o),
(185,320,o),
(173,311,o),
(150,303,o),
(87,276,o),
(56,252,o),
(51,239,q),
(24,119,o),
(24,113,o),
(48,75,o),
(82,32,o),
(114,0,o),
(122,0,q),
(145,14,o)
);
},
{
closed = 1;
nodes = (
(164,104,o),
(146,124,o),
(135,194,o),
(146,235,o),
(166,255,o),
(183,260,o),
(185,260,o),
(190,156,o),
(184,131,qs),
(180,116,o)
);
},
{
closed = 1;
nodes = (
(105,566,o),
(113,588,o),
(121,613,q),
(125,617,o),
(150,606,o),
(211,568,o),
(241,562,o),
(287,598,o),
(320,656,o),
(320,697,o),
(300,714,o),
(274,718,o),
(256,692,o),
(243,664,o),
(226,663,o),
(161,696,o),
(124,702,o),
(101,692,o),
(59,655,o),
(43,605,o),
(60,570,o),
(89,555,o)
);
}
);
width = 370;
}
);
note = uni00E3;
unicode = 227;
},
{
glyphname = uni00E4;
layers = (
{
anchors = (
{
name = top;
pos = (181,712);
},
{
name = top_;
pos = (181,712);
},
{
name = top__;
pos = (181,712);
},
{
name = top___;
pos = (181,712);
},
{
name = top____;
pos = (181,712);
},
{
name = top_____;
pos = (181,712);
},
{
name = top______;
pos = (181,712);
},
{
name = top_______;
pos = (181,712);
},
{
name = top________;
pos = (181,712);
},
{
name = top_________;
pos = (181,712);
},
{
name = top__________;
pos = (181,712);
}
);
layerId = m01;
shapes = (
{
closed = 1;
nodes = (
(295,22,o),
(320,51,o),
(338,76,o),
(338,78,qs),
(338,86,o),
(312,111,o),
(306,127,qs),
(298,146,o),
(288,224,o),
(288,305,o),
(295,356,o),
(304,384,o),
(311,400,o),
(311,418,o),
(289,446,o),
(262,473,qs),
(225,508,o),
(185,537,o),
(160,538,o),
(146,532,qs),
(141,530,o),
(113,509,o),
(76,479,o),
(41,446,o),
(29,433,q),
(37,409,o),
(60,353,o),
(75,341,o),
(100,334,o),
(127,334,o),
(141,348,o),
(144,362,o),
(142,425,o),
(150,437,o),
(164,437,qs),
(174,436,o),
(184,431,o),
(188,409,o),
(188,346,o),
(184,324,o),
(177,320,qs),
(91,281,o),
(56,258,o),
(50,244,q),
(35,159,o),
(24,126,o),
(26,110,o),
(50,73,o),
(83,32,o),
(114,3,o),
(130,3,o),
(157,29,o),
(178,63,o),
(178,74,q),
(184,88,o),
(195,82,o),
(206,44,o),
(232,16,o),
(259,0,o),
(271,0,o)
);
},
{
closed = 1;
nodes = (
(139,162,o),
(135,208,o),
(140,221,qs),
(144,233,o),
(174,262,o),
(189,262,o),
(190,255,q),
(189,223,o),
(182,141,o),
(173,110,o),
(152,121,o)
);
},
{
closed = 1;
nodes = (
(163,604,o),
(163,616,qs),
(163,621,o),
(125,673,o),
(104,692,o),
(93,692,o),
(55,656,o),
(44,636,o),
(36,615,q),
(44,598,o),
(55,580,o),
(98,534,q),
(122,557,o)
);
},
{
closed = 1;
nodes = (
(290,566,o),
(315,603,o),
(315,622,o),
(292,661,o),
(262,691,o),
(241,690,o),
(223,672,qs),
(206,653,o),
(185,612,q),
(205,578,o),
(234,545,o),
(251,536,q),
(260,536,o)
);
}
);
width = 362;
}
);
note = uni00E4;
unicode = 228;
},
{
glyphname = uni00E5;
layers = (
{
anchors = (
{
name = top;
pos = (181,791);
},
{
name = top_;
pos = (181,791);
},
{
name = top__;
pos = (181,791);
},
{
name = top___;
pos = (181,791);
},
{
name = top____;
pos = (181,791);
},
{
name = top_____;
pos = (181,791);
},
{
name = top______;
pos = (181,791);
},
{
name = top_______;
pos = (181,791);
},
{
name = top________;
pos = (181,791);
},
{
name = top_________;
pos = (181,791);
},
{
name = top__________;
pos = (181,791);
}
);
layerId = m01;
shapes = (
{
closed = 1;
nodes = (
(173,45,o),
(179,86,o),
(192,84,o),
(207,40,o),
(238,13,o),
(264,1,o),
(274,-1,o),
(299,21,o),
(322,51,o),
(338,78,q),
(322,102,o),
(301,138,o),
(290,191,o),
(288,251,o),
(291,316,o),
(299,373,o),
(309,402,o),
(310,421,o),
(293,449,o),
(239,502,o),
(198,535,o),
(159,541,o),
(125,524,o),
(56,467,o),
(32,440,o),
(33,434,qs),
(40,404,o),
(57,366,o),
(86,337,o),
(130,337,o),
(142,356,o),
(142,419,o),
(144,441,o),
(168,446,o),
(183,430,o),
(186,411,o),
(186,354,o),
(181,329,o),
(159,314,o),
(90,284,o),
(54,255,o),
(43,221,o),
(40,195,q),
(24,120,o),
(24,114,o),
(41,84,o),
(69,45,o),
(103,10,o),
(120,0,q),
(137,12,o)
);
},
{
closed = 1;
nodes = (
(149,118,o),
(140,149,o),
(136,182,o),
(136,190,qs),
(136,216,o),
(150,243,o),
(174,265,o),
(180,263,q),
(182,263,o),
(184,169,o),
(183,142,o),
(175,125,q),
(164,109,o)
);
},
{
closed = 1;
nodes = (
(284,662,o),
(262,725,o),
(210,767,o),
(174,769,qs),
(131,771,o),
(79,726,o),
(59,664,o),
(69,619,o),
(98,575,o),
(143,546,o),
(201,548,o),
(267,597,o)
);
},
{
closed = 1;
nodes = (
(157,614,o),
(146,635,o),
(140,660,q),
(144,681,o),
(157,699,o),
(188,691,o),
(202,661,o),
(198,627,o),
(174,606,o)
);
}
);
width = 362;
}
);
note = uni00E5;
unicode = 229;
},
{
glyphname = uni00E6;
layers = (
{
anchors = (
{
name = top;
pos = (238,555);
},
{
name = top_;
pos = (238,555);
},
{
name = top__;
pos = (238,555);
},
{
name = top___;
pos = (238,555);
},
{
name = top____;
pos = (238,555);
},
{
name = top_____;
pos = (238,555);
},
{
name = top______;
pos = (238,555);
},
{
name = top_______;
pos = (238,555);
},
{
name = top________;
pos = (238,555);
},
{
name = top_________;
pos = (238,555);
},
{
name = top__________;
pos = (238,555);
}
);
layerId = m01;
shapes = (
{
closed = 1;
nodes = (
(348,9,o),
(381,38,o),
(419,75,o),
(447,104,o),
(452,112,o),
(448,147,o),
(434,188,o),
(408,221,o),
(389,223,qs),
(353,227,o),
(330,190,o),
(338,140,qs),
(342,118,o),
(336,105,o),
(314,105,o),
(300,116,o),
(287,130,q),
(287,268,l),
(312,266,l),
(345,267,o),
(388,270,o),
(424,277,o),
(430,287,o),
(438,322,o),
(445,368,o),
(450,407,o),
(446,425,o),
(413,465,o),
(370,506,o),
(334,535,o),
(320,535,o),
(290,513,o),
(242,465,q),
(213,494,o),
(168,535,o),
(155,535,qs),
(146,535,o),
(63,466,o),
(31,433,o),
(25,420,q),
(43,362,o),
(58,333,o),
(66,327,q),
(92,320,o),
(119,326,o),
(136,355,o),
(130,415,o),
(144,435,o),
(163,429,o),
(169,419,q),
(182,369,o),
(187,329,o),
(176,312,o),
(94,275,o),
(52,247,o),
(35,216,o),
(28,170,o),
(24,115,o),
(47,76,o),
(80,39,o),
(112,14,o),
(132,9,o),
(163,32,o),
(212,93,q),
(247,56,o),
(305,0,o),
(323,0,qs),
(331,0,o)
);
},
{
closed = 1;
nodes = (
(129,143,o),
(129,178,qs),
(132,232,o),
(143,253,o),
(172,262,o),
(180,260,o),
(182,243,o),
(182,183,o),
(178,138,o),
(153,111,o),
(149,114,q),
(149,114,o)
);
},
{
closed = 1;
nodes = (
(286,327,o),
(287,393,o),
(291,420,o),
(301,427,o),
(320,432,o),
(331,422,o),
(334,371,o),
(335,312,q),
(299,307,o),
(288,310,o)
);
}
);
width = 476;
}
);
note = uni00E6;
unicode = 230;
},
{
glyphname = uni00E7;
layers = (
{
anchors = (
{
name = top;
pos = (167,555);
},
{
name = top_;
pos = (167,555);
},
{
name = top__;
pos = (167,555);
},
{
name = top___;
pos = (167,555);
},
{
name = top____;
pos = (167,555);
},
{
name = top_____;
pos = (167,555);
},
{
name = top______;
pos = (167,555);
},
{
name = top_______;
pos = (167,555);
},
{
name = top________;
pos = (167,555);
},
{
name = top_________;
pos = (167,555);
},
{
name = top__________;
pos = (167,555);
}
);
layerId = m01;
shapes = (
{
closed = 1;
nodes = (
(170,-190,o),
(235,-173,o),
(282,-126,o),
(282,-55,o),
(246,-16,o),
(196,1,qs),
(189,3,o),
(194,16,o),
(205,24,o),
(279,90,o),
(311,127,o),
(311,145,o),
(296,179,o),
(273,218,o),
(248,248,o),
(227,252,o),
(191,234,o),
(183,211,o),
(194,140,o),
(183,118,o),
(150,121,o),
(140,134,o),
(138,181,o),
(137,338,o),
(142,424,q),
(169,423,o),
(191,417,o),
(195,396,o),
(195,343,o),
(198,320,o),
(235,307,o),
(259,313,o),
(281,341,o),
(300,377,o),
(311,408,o),
(307,422,o),
(269,462,o),
(219,505,o),
(175,535,o),
(160,535,o),
(137,521,o),
(31,434,o),
(24,425,o),
(29,405,o),
(39,306,o),
(34,209,o),
(24,152,o),
(24,129,o),
(47,101,o),
(136,18,o),
(140,10,o),
(132,-20,o),
(137,-32,o),
(188,-63,o),
(194,-98,o),
(185,-120,o),
(167,-121,o),
(123,-96,o),
(103,-95,o),
(90,-118,o),
(90,-134,o),
(97,-150,qs),
(110,-175,o)
);
}
);
width = 336;
}
);
note = uni00E7;
unicode = 231;
},
{
glyphname = uni00E8;
layers = (
{
anchors = (
{
name = top;
pos = (177,720);
},
{
name = top_;
pos = (177,720);
},
{
name = top__;
pos = (177,720);
},
{
name = top___;
pos = (177,720);
},
{
name = top____;
pos = (177,720);
},
{
name = top_____;
pos = (177,720);
},
{
name = top______;
pos = (177,720);
},
{
name = top_______;
pos = (177,720);
},
{
name = top________;
pos = (177,720);
},
{
name = top_________;
pos = (177,720);
},
{
name = top__________;
pos = (177,720);
}
);
layerId = m01;
shapes = (
{
closed = 1;
nodes = (
(243,30,o),
(292,74,o),
(326,110,o),
(330,121,o),
(323,154,o),
(307,192,o),
(285,221,o),
(268,226,o),
(232,223,o),
(227,221,q),
(206,201,o),
(205,196,q),
(211,116,o),
(207,112,o),
(191,106,o),
(170,108,o),
(157,127,o),
(154,152,o),
(153,210,o),
(152,267,q),
(184,267,o),
(259,272,o),
(298,279,o),
(309,290,o),
(312,299,q),
(319,334,o),
(324,378,o),
(323,419,o),
(311,440,o),
(273,476,o),
(228,513,o),
(190,538,o),
(180,538,o),
(151,518,o),
(111,488,o),
(40,430,o),
(30,420,o),
(29,403,o),
(39,367,qs),
(49,323,o),
(47,245,o),
(35,182,o),
(25,143,o),
(26,137,q),
(50,104,o),
(127,28,o),
(164,2,o),
(193,-2,o)
);
},
{
closed = 1;
nodes = (
(152,332,o),
(152,370,qs),
(152,389,o),
(153,421,o),
(154,423,qs),
(163,437,o),
(200,424,o),
(208,395,o),
(208,320,q),
(173,313,o),
(155,312,o)
);
},
{
closed = 1;
nodes = (
(223,552,qs),
(223,555,o),
(185,631,o),
(155,684,o),
(131,700,o),
(114,700,qs),
(90,700,o),
(60,676,o),
(47,652,o),
(45,643,o),
(73,616,o),
(119,587,o),
(208,546,o),
(223,546,o)
);
}
);
width = 351;
}
);
note = uni00E8;
unicode = 232;
},
{
glyphname = uni00E9;
layers = (
{
anchors = (
{
name = top;
pos = (175,723);
},
{
name = top_;
pos = (175,723);
},
{
name = top__;
pos = (175,723);
},
{
name = top___;
pos = (175,723);
},
{
name = top____;
pos = (175,723);
},
{
name = top_____;
pos = (175,723);
},
{
name = top______;
pos = (175,723);
},
{
name = top_______;
pos = (175,723);
},
{
name = top________;
pos = (175,723);
},
{
name = top_________;
pos = (175,723);
},
{
name = top__________;
pos = (175,723);
}
);
layerId = m01;
shapes = (
{
closed = 1;
nodes = (
(250,40,o),
(295,79,o),
(327,115,o),
(327,125,qs),
(327,129,o),
(319,160,o),
(302,198,o),
(275,225,o),
(256,225,qs),
(222,225,o),
(197,205,o),
(198,169,o),
(209,123,o),
(202,108,o),
(168,108,o),
(152,120,o),
(148,160,o),
(149,201,qs),
(149,240,o),
(152,266,o),
(156,267,q),
(170,267,o),
(231,271,o),
(299,279,o),
(308,287,o),
(322,370,o),
(323,415,o),
(316,432,o),
(230,510,o),
(189,538,o),
(177,538,o),
(142,514,o),
(24,414,q),
(41,367,o),
(47,308,o),
(47,241,o),
(41,198,o),
(26,158,o),
(26,134,o),
(49,101,o),
(131,19,o),
(178,-5,o),
(199,6,qs),
(208,10,o)
);
},
{
closed = 1;
nodes = (
(152,318,o),
(151,368,o),
(155,426,o),
(164,432,o),
(186,432,o),
(200,424,o),
(208,391,o),
(208,332,o),
(206,318,o),
(185,315,o),
(164,315,qs),
(154,315,o)
);
},
{
closed = 1;
nodes = (
(177,553,o),
(226,579,o),
(276,609,o),
(312,632,o),
(314,634,qs),
(322,644,o),
(304,673,qs),
(291,693,o),
(255,703,o),
(220,692,o),
(211,681,q),
(184,633,o),
(144,549,q),
(144,542,o)
);
}
);
width = 351;
}
);
note = uni00E9;
unicode = 233;
},
{
glyphname = uni00EA;
layers = (
{
anchors = (
{
name = top;
pos = (176,738);
},
{
name = top_;
pos = (176,738);
},
{
name = top__;
pos = (176,738);
},
{
name = top___;
pos = (176,738);
},
{
name = top____;
pos = (176,738);
},
{
name = top_____;
pos = (176,738);
},
{
name = top______;
pos = (176,738);
},
{
name = top_______;
pos = (176,738);
},
{
name = top________;
pos = (176,738);
},
{
name = top_________;
pos = (176,738);
},
{
name = top__________;
pos = (176,738);
}
);
layerId = m01;
shapes = (
{
closed = 1;
nodes = (
(327,114,o),
(329,145,o),
(320,168,qs),
(289,252,o),
(227,226,qs),
(210,219,o),
(202,187,o),
(206,151,o),
(212,122,o),
(207,110,o),
(186,106,o),
(163,116,o),
(155,135,o),
(152,173,o),
(150,221,o),
(150,261,o),
(153,272,o),
(262,277,o),
(301,282,o),
(312,299,o),
(324,370,o),
(326,418,o),
(320,437,o),
(274,484,o),
(208,536,o),
(177,539,o),
(137,512,o),
(67,456,o),
(24,416,q),
(34,389,o),
(42,360,o),
(50,272,o),
(40,200,o),
(27,159,o),
(27,140,o),
(35,125,o),
(126,28,o),
(172,-4,o),
(213,9,o),
(244,35,qs),
(290,73,o)
);
},
{
closed = 1;
nodes = (
(158,436,o),
(185,437,o),
(201,430,o),
(210,398,o),
(210,332,o),
(199,319,o),
(153,319,q),
(155,431,l)
);
},
{
closed = 1;
nodes = (
(179,604,o),
(184,604,o),
(207,580,o),
(233,551,o),
(251,534,o),
(265,532,o),
(288,565,o),
(314,606,q),
(279,633,o),
(253,653,o),
(207,704,o),
(188,718,o),
(179,718,qs),
(174,718,o),
(62,615,o),
(62,604,o),
(79,569,o),
(100,545,o),
(112,534,q),
(150,574,o)
);
}
);
width = 352;
}
);
note = uni00EA;
unicode = 234;
},
{
glyphname = uni00EB;
layers = (
{
anchors = (
{
name = top;
pos = (172,708);
},
{
name = top_;
pos = (172,708);
},
{
name = top__;
pos = (172,708);
},
{
name = top___;
pos = (172,708);
},
{
name = top____;
pos = (172,708);
},
{
name = top_____;
pos = (172,708);
},
{
name = top______;
pos = (172,708);
},
{
name = top_______;
pos = (172,708);
},
{
name = top________;
pos = (172,708);
},
{
name = top_________;
pos = (172,708);
},
{
name = top__________;
pos = (172,708);
}
);
layerId = m01;
shapes = (
{
closed = 1;
nodes = (
(211,14,o),
(269,66,o),
(308,104,o),
(320,129,o),
(312,156,o),
(290,205,o),
(265,227,o),
(213,227,o),
(195,199,o),
(198,162,o),
(205,127,o),
(203,111,o),
(184,104,o),
(161,108,o),
(151,123,o),
(148,152,o),
(148,270,q),
(262,276,o),
(286,280,o),
(297,288,o),
(304,307,o),
(317,424,q),
(232,507,o),
(201,531,o),
(179,539,o),
(163,534,o),
(53,444,o),
(24,412,q),
(42,372,o),
(48,313,o),
(47,256,o),
(40,190,o),
(25,152,o),
(29,130,o),
(62,86,o),
(110,36,o),
(159,0,o),
(178,0,qs),
(187,0,o)
);
},
{
closed = 1;
nodes = (
(146,412,o),
(155,435,o),
(183,435,o),
(196,423,o),
(202,394,o),
(205,361,o),
(206,324,o),
(196,318,o),
(146,318,q),
(146,368,ls)
);
},
{
closed = 1;
nodes = (
(166,602,o),
(160,630,o),
(137,661,o),
(114,684,o),
(101,686,o),
(68,658,o),
(43,619,o),
(46,603,o),
(67,559,o),
(105,533,q),
(146,571,o)
);
},
{
closed = 1;
nodes = (
(309,595,o),
(317,610,q),
(303,638,o),
(277,667,o),
(253,688,o),
(245,688,o),
(223,669,o),
(200,642,o),
(186,613,o),
(192,595,o),
(217,556,o),
(244,537,o),
(251,535,o),
(260,540,qs),
(279,551,o)
);
}
);
width = 343;
}
);
note = uni00EB;
unicode = 235;
},
